<?xml version="1.0" encoding="UTF-8" standalone="no"?>
<svg width="100px" height="102px" viewBox="0 0 100 102" version="1.1" xmlns="http://www.w3.org/2000/svg" xmlns:xlink="http://www.w3.org/1999/xlink">
    <!-- Generator: Sketch 3.8 (29681) - http://www.bohemiancoding.com/sketch -->
    <title>Combined Shape</title>
    <desc>Created with Sketch.</desc>
    <defs>
        <path d="M69.0093138,0 L30.7650328,0 C19.9248423,0 13.0520798,0.0444273697 6.55093853,6.64781541 C0.0393918473,13.266753 0,20.2862774 0,31.273166 L0,70.1515572 C0,81.1710257 0.0416215745,88.159451 6.5345872,94.7598772 C13.0543096,101.385479 19.9582882,101.425464 30.7650328,101.425464 L69.0093138,101.425464 C79.8495043,101.425464 86.7192938,101.383258 93.2182053,94.7761672 C99.7252926,88.159451 99.7684006,81.1369648 99.7684006,70.1515572 L99.7684006,31.273166 C99.7684006,20.2522165 99.7282656,13.2645317 93.232327,6.66336499 C86.7192938,0.0422060012 79.8168016,0 69.0093138,0 Z M24.4155129,32.709933 C24.7551747,32.2745447 25.1594986,31.9191258 25.5794305,31.7614086 L47.1193386,23.4312768 C47.7882567,23.1728576 48.8206204,23.0173618 49.8745382,23.0173618 C50.916564,23.0173618 51.9340629,23.1728576 52.5970351,23.4312768 L74.2320782,31.7525231 C74.5888345,31.8946907 74.9433612,32.1723618 75.2466041,32.5174144 C76.0716031,32.354514 77.0021426,32.2241937 78.0961954,32.1345985 C79.5313965,31.9420799 80.5072738,31.813981 81.1918,31.7273476 C80.3222064,29.374178 78.4722761,27.3157098 76.209103,26.4486357 L54.5748031,18.1229466 C53.2815613,17.6223982 51.6077795,17.3491699 49.8745382,17.3491699 C48.1160266,17.3491699 46.4496772,17.6246196 45.1363679,18.1310916 L23.5942301,26.4552998 C21.3161921,27.338664 19.4551131,29.4223076 18.5951817,31.8036146 C19.2603836,31.8946907 20.4034904,32.0405606 22.3381504,32.2952775 C23.0642982,32.3915368 23.7510542,32.5388876 24.4155129,32.709933 Z M75.2797527,35.8058542 C70.454623,36.3997001 67.1189511,38.7136256 65.0728048,42.8727678 C63.0935502,46.9015898 62.2997674,48.3995326 61.2042281,50.4639244 C60.5241613,51.7523181 59.7526756,53.2124977 58.5114608,55.6123161 C57.463489,57.6322805 55.8216666,58.6852091 53.6744393,58.7459265 L50.2354567,58.7459265 L49.5821466,58.7459265 C49.5382953,58.7459265 49.3212685,58.7400029 48.7110665,58.7363006 C46.3326908,58.6815069 41.7379663,57.5834104 40.6416838,55.4605226 C39.9839142,54.186938 39.4733067,53.2050931 39.0548612,52.3891104 C37.4516874,49.3162173 37.1231742,48.6735014 34.7968255,43.8168494 C32.618382,39.2356472 29.0909536,36.7203176 24.0257566,36.1087008 C21.4801514,35.7866024 18.219547,35.3756492 18.0270472,35.34455 L18.0708985,41.8701902 L23.6511624,42.6054631 C23.717311,42.6158295 23.7685947,42.6239746 23.8302839,42.6298982 C26.0473759,42.8772106 27.4632527,43.756132 28.3120355,45.403647 C28.7223053,46.2085228 29.1348049,47.0193223 29.5406152,47.8338241 C29.9152094,48.5824253 30.294263,49.3376906 30.6718302,50.081849 C31.7963559,52.2854465 32.2705446,53.2761769 32.6548009,54.0854955 C33.1706111,55.1813706 33.5556107,55.9862464 35.1275684,58.8977201 C37.2272282,62.7984431 44.2583013,65.1279182 48.7110665,65.4241007 L45.1836381,65.307849 C47.5612705,65.3870779 47.6445137,65.4137343 49.9032273,65.4537189 C58.0469343,65.4426121 63.3469959,61.9780177 66.0531415,55.5049499 C67.4608426,52.1477217 67.8830043,51.3184108 68.6002332,49.947086 C69.0729354,49.0548363 69.648205,47.9426712 70.6530687,45.833852 C71.6683378,43.6917123 73.2559036,42.6010204 75.7963061,42.3055784 C75.9248871,42.2885479 76.0393464,42.2737388 76.1679273,42.2596701 L81.7415021,41.5199544 L81.7415021,35.0550317 C81.4152187,35.0128257 78.9097486,35.3319623 75.2797527,35.8058542 Z M76.1677787,66.7463332 C76.1677787,67.8037046 75.2052798,69.2031668 74.2323755,69.5859826 L52.6441567,77.9079694 C51.9789547,78.1634268 50.9614559,78.3137394 49.9030787,78.3137394 C48.8595663,78.3137394 47.8324053,78.1634268 47.1694331,77.9079694 L25.5797278,69.5859826 C24.6060803,69.2031668 23.6510138,67.8037046 23.6510138,66.7463332 L23.6510138,45.6855386 L18.0707498,44.970258 L18.0707498,66.7463332 C18.0707498,70.1761262 20.4454093,73.6747815 23.6034463,74.8943128 L45.1916651,83.2177805 C46.4856501,83.716848 48.1609185,83.9908168 49.9030787,83.9908168 C51.6444956,83.9908168 53.3242235,83.716848 54.6204382,83.2155592 L76.2190624,74.8943128 C79.3652075,73.6747815 81.7413535,70.1761262 81.7413535,66.7463332 L81.7413535,44.6170604 L76.1677787,45.3345624 L76.1677787,66.7463332 Z" id="path-1"></path>
    </defs>
    <g id="Brand-Assets" stroke="none" stroke-width="1" fill="none" fill-rule="evenodd">
        <g id="Desktop-HD" transform="translate(-397.000000, -64.000000)">
            <g id="LOGO-WHITE-Copy-5" transform="translate(397.000000, 64.000000)">
                <g id="Parche-Verde">
                    <mask id="mask-2" fill="white">
                        <use xlink:href="#path-1"></use>
                    </mask>
                    <use id="Combined-Shape" fill="#71AB43" xlink:href="#path-1"></use>
                </g>
            </g>
        </g>
    </g>
</svg>