<?xml version="1.0" encoding="UTF-8" standalone="no"?>
<svg width="120px" height="22px" viewBox="0 0 120 22" version="1.1" xmlns="http://www.w3.org/2000/svg" xmlns:xlink="http://www.w3.org/1999/xlink">
    <!-- Generator: Sketch 3.8 (29681) - http://www.bohemiancoding.com/sketch -->
    <title>LOGO WHITE</title>
    <desc>Created with Sketch.</desc>
    <defs></defs>
    <g id="Page-1" stroke="none" stroke-width="1" fill="none" fill-rule="evenodd">
        <g id="Landing-2.0" transform="translate(-376.000000, -507.000000)" fill="#71AB43">
            <g id="UI---NAV" transform="translate(376.000000, 507.000000)">
                <g id="LOGO-WHITE">
                    <path d="M66.0801631,15.5754329 C66.0801631,14.9853702 66.0659265,14.9622304 65.4985891,14.8006809 C65.3088392,14.7462598 65.1120772,14.7199062 64.9225398,14.6635567 C64.8277711,14.6350606 64.7200407,14.5894239 64.6565074,14.5148626 C64.0177748,13.7619648 63.282361,13.1121244 62.6670018,12.3800095 L59.9403825,9.57517594 C59.9371952,9.57710425 59.9431448,9.57281912 59.9403825,9.57517594 C59.909997,9.53618124 59.8658,9.504257 59.8339271,9.46354824 L59.4221294,8.97311481 C59.1985942,8.70529402 58.9646472,8.4252606 58.7211383,8.1328003 C59.5001117,7.80091677 59.5001117,7.80091677 59.5001117,6.96403037 C59.5001117,6.74227476 59.4807755,6.52137617 59.5026615,6.30561974 C59.5406965,5.96109508 59.4149048,5.8651081 59.0881015,5.86832195 C57.3361551,5.88503397 55.5837838,5.87539242 53.8343872,5.87539242 L53.4387385,5.87539242 C53.4387385,6.36861119 53.4740111,6.79605317 53.4293891,7.2153534 C53.3775425,7.69100312 53.5694173,8.00146098 53.9822774,8.02481496 C54.6858183,8.0650952 55.0440695,8.50003617 55.4422682,8.96133069 C55.6443423,9.19679873 55.8077439,9.40119956 56.0083306,9.63795314 C56.1534585,9.8080729 56.3874055,10.0186872 56.5329584,10.1900925 L59.3473343,13.0868421 C59.3566837,13.0776291 59.3377725,13.097555 59.3473343,13.0868421 C59.4671764,13.2303941 59.6205912,13.3475925 59.7461704,13.4973579 L59.8086412,13.5614206 L59.804604,13.5678483 C60.1033592,13.9241571 60.4186883,14.2988919 60.7448542,14.6909815 C60.5109072,14.7813978 60.3054333,14.8360333 60.1267327,14.9388765 C60.0268643,14.995226 59.9055348,15.1261368 59.9008601,15.2274802 C59.8791866,15.7858329 59.8910858,16.3444 59.8910858,16.9183935 L66.0801631,16.9183935 L66.0801631,15.5754329 Z M61.302566,8.12489423 C61.3204148,8.13110767 61.3272143,8.16560299 61.3059657,8.13025064 C60.9373027,8.51505556 60.5716144,8.89300425 60.2063511,9.27373829 L61.9434235,11.0632097 C62.5853434,10.3458785 63.2130268,9.6407599 63.8472973,8.9446401 C64.2314718,8.52341156 64.6037472,8.08332844 65.240355,8.08332844 C65.3856953,8.08332844 65.5405976,7.97191499 65.6734013,7.88299849 C65.752871,7.83221967 65.8489146,7.72851946 65.8510395,7.64474512 C65.8667634,7.06689498 65.858264,6.48883059 65.858264,5.90733809 L60.5592902,5.90733809 L60.5592902,7.02104406 C60.5592902,7.84121845 60.5592902,7.84121845 61.302566,8.12489423 Z M57.8482037,14.7001946 C57.827805,14.6946239 57.8144184,14.6699844 57.7950822,14.6517726 C58.2194166,14.2299013 58.6441759,13.8086727 59.0757348,13.379731 L57.3960337,11.6485374 C57.3609735,11.6873178 57.3261258,11.7265268 57.2897907,11.7657358 C56.5467274,12.5422018 55.7947398,13.3100976 55.0608134,14.0972764 C54.7471842,14.432588 54.4395046,14.7224773 53.9529119,14.7466883 C53.7516877,14.7578296 53.551101,14.8859551 53.3615636,14.9834418 C53.2950555,15.0187942 53.2136734,15.117995 53.2128234,15.1908423 C53.2007117,15.7699779 53.2049614,16.3458998 53.2049614,16.9284636 L58.6365264,16.9284636 L58.6365264,15.7944032 C58.6365264,14.9455184 58.6365264,14.9455184 57.8482037,14.7001946 Z M99.5274011,13.9813636 C99.4145711,14.0130736 99.3399885,14.0355705 99.2662559,14.0582817 C98.1479425,14.3880227 97.0147552,14.6307754 95.8469326,14.6500585 C95.1334049,14.6624854 94.4260392,14.6142777 93.7720076,14.2562548 C93.0714415,13.8763778 92.7344389,13.2558906 92.6171466,12.434645 L92.6696307,12.434645 C92.5446889,11.5649773 92.6035475,10.7938677 92.740176,10.1414562 L92.7304016,10.1414562 C92.8351572,9.61267086 92.9475622,9.21608183 93.1084141,8.92554984 C93.2274062,8.63094697 93.3446984,8.38305204 93.4377672,8.1861502 L93.4840892,8.08844918 C93.4959884,8.06338115 94.0813871,6.83697619 94.9374928,5.55272194 C94.6591363,5.55829261 94.3788674,5.57714719 94.097536,5.6032865 C92.6069473,5.74940952 91.3677294,6.40696313 90.4455406,7.63336809 C89.367812,9.06760198 89.0469583,10.7503736 89.1755123,12.5132771 C89.3620749,15.0817856 90.6146794,16.5479438 93.0448808,17.0546607 C94.9751028,17.4587487 96.8978879,17.2747023 98.7947497,16.7630574 C99.5713857,16.5524432 99.5684109,16.5447299 99.5684109,15.6988447 C99.5684109,15.2326223 99.5713857,14.7676854 99.5669235,14.3021058 C99.5656486,14.2014051 99.5418502,14.1013473 99.5274011,13.9813636 Z M99.6620747,9.01328793 C99.3679942,7.40914852 98.532712,6.28344418 96.9785901,5.81229384 C96.4871101,5.66424251 95.9918055,5.58860992 95.4941634,5.56097082 C95.4869389,5.57296919 95.4797144,5.58218222 95.4735523,5.59075249 C94.7171024,6.68217577 94.1028057,7.84751759 93.8816078,8.31716813 C94.2139358,8.23039419 94.6457072,8.22053839 95.2204816,8.25889033 C95.9884057,8.31159746 96.5667923,9.1191307 96.3725802,10.1681312 L93.1933659,10.1681312 C93.0476006,10.8186143 92.9781177,11.5927235 93.1143212,12.4748181 L99.6559126,12.4748181 C99.7472815,11.2869793 99.8698859,10.1477768 99.6620747,9.01328793 Z M52.4875028,13.9813636 C52.3736103,14.0130736 52.2992402,14.0355705 52.2263576,14.0582817 C51.1091066,14.3880227 49.9740068,14.6307754 48.8066092,14.6500585 C48.0930815,14.6624854 47.3869908,14.6142777 46.7327467,14.2562548 C46.0311182,13.8763778 45.6956029,13.2558906 45.5778857,12.434645 L45.6290948,12.434645 C45.5056405,11.5649773 45.5638617,10.7938677 45.7004901,10.1414562 L45.6905033,10.1414562 C45.7958963,9.61267086 45.9078764,9.21608183 46.0687282,8.92554984 C46.1875078,8.63094697 46.3048001,8.38305204 46.3982939,8.1861502 L46.4448283,8.08844918 C46.4563025,8.06338115 47.0417012,6.83697619 47.897382,5.55272194 C47.6190254,5.55829261 47.3387565,5.57714719 47.0570002,5.6032865 C45.5668365,5.74940952 44.3278311,6.40696313 43.4058547,7.63336809 C42.3272762,9.06760198 42.0085473,10.7503736 42.1351889,12.5132771 C42.3221765,15.0817856 43.5741435,16.5479438 46.0051949,17.0546607 C47.935417,17.4587487 49.858627,17.2747023 51.7542139,16.7630574 C52.5308499,16.5524432 52.5289375,16.5447299 52.5289375,15.6988447 C52.5289375,15.2326223 52.5308499,14.7676854 52.5266002,14.3021058 C52.5257502,14.2014051 52.5030142,14.1013473 52.4875028,13.9813636 Z M52.6219638,9.0131808 C52.3280958,7.40904139 51.4934511,6.28333705 49.9378417,5.81218672 C49.4480617,5.66413538 48.9521196,5.58850279 48.4536276,5.56086369 C48.447678,5.5726478 48.4396036,5.58186084 48.4330165,5.5904311 C47.6774166,6.68185439 47.0629073,7.84741046 46.841922,8.317061 C47.1740374,8.23007281 47.6058088,8.220217 48.1807957,8.2587832 C48.9480823,8.31149033 49.5271065,9.11902358 49.3320444,10.168024 L46.154105,10.168024 C46.0074898,10.8185072 45.9394943,11.5926164 46.0742103,12.4747109 L52.6160142,12.4747109 C52.7080206,11.2868722 52.8299876,10.1476697 52.6219638,9.0131808 Z M104.106218,8.33621554 C104.739001,8.2929357 105.374546,8.2603687 106.010091,8.22565912 C106.305234,8.21001839 106.477135,8.32828805 106.580616,8.6561007 C106.667098,8.92906365 106.735518,9.30786937 107.145829,9.30786937 C107.812609,9.30829788 108.479603,9.30829788 109.214167,9.30829788 C109.214167,8.1990913 109.221179,7.14387739 109.20078,6.08694942 C109.198655,6.0021038 109.019954,5.85726631 108.912649,5.84955307 C107.716991,5.74949523 106.520908,5.64150988 105.322912,5.58730296 C104.703516,6.54867246 104.296393,7.57153362 104.106218,8.33621554 Z M109.810551,13.0997618 C109.750417,11.7375182 108.900686,11.0255434 107.747313,10.6546651 C106.983426,10.4069845 106.191491,10.2510056 105.41358,10.045105 C104.904888,9.91355144 104.39046,9.79056814 103.893455,9.61744878 C103.517355,9.48439541 103.544766,9.13301453 103.565165,8.78806136 C103.570264,8.69978762 103.587476,8.62758314 103.612549,8.56373466 C103.75024,7.78769714 104.144826,6.66434962 104.806082,5.57378336 C104.004373,5.57828275 103.217963,5.75183062 102.474475,6.09571252 C101.474941,6.55914961 100.717641,7.28312277 100.456283,8.41761164 C100.021962,10.3049983 100.524279,11.6867393 102.398192,12.2735882 C103.015251,12.4657764 103.647184,12.6011866 104.275293,12.7548086 C104.878115,12.904574 105.4854,13.0307712 106.084398,13.18675 C106.448599,13.2825227 106.551867,13.5531289 106.539543,13.9383623 C106.525306,14.3220959 106.350855,14.4935012 106.018102,14.5155696 C105.231267,14.5695623 104.443157,14.608557 103.656109,14.6539794 C103.188427,14.6824756 102.802978,14.6087713 102.749644,13.9951403 C102.734132,13.8333765 102.608128,13.6735411 102.50996,13.5306319 C102.454501,13.4515712 102.350808,13.3600836 102.267938,13.3590123 C101.571409,13.3463712 100.876155,13.3510848 100.177289,13.3510848 C100.155828,13.4387158 100.132455,13.4903517 100.13203,13.540702 C100.130117,14.5693481 100.134155,15.5960658 100.123955,16.6240692 C100.120343,16.8681075 100.250384,16.9321702 100.438859,16.9480252 C101.722912,17.0568676 103.009514,17.2212024 104.297604,17.24927 C105.60503,17.2771234 106.913305,17.129072 108.092177,16.4530924 C109.359018,15.7278337 109.874509,14.5522075 109.810551,13.0997618 Z M114.218614,8.33621554 C114.853309,8.2929357 115.488004,8.2603687 116.124187,8.22565912 C116.419543,8.21001839 116.591019,8.32828805 116.693862,8.6561007 C116.780344,8.92906365 116.848977,9.30786937 117.259287,9.30786937 C117.92713,9.30829788 118.594124,9.30829788 119.328262,9.30829788 C119.328262,8.1990913 119.334425,7.14387739 119.313813,6.08694942 C119.313388,6.0021038 119.13405,5.85726631 119.027595,5.84955307 C117.830449,5.74949523 116.635003,5.64150988 115.436158,5.58730296 C114.818036,6.54867246 114.411338,7.57153362 114.218614,8.33621554 Z M119.924179,13.0997618 C119.864683,11.7375182 119.015164,11.0255434 117.861791,10.6546651 C117.097054,10.4069845 116.307031,10.2510056 115.527208,10.045105 C115.018517,9.91355144 114.504513,9.79056814 114.008571,9.61744878 C113.631621,9.48439541 113.658819,9.13301453 113.679218,8.78806136 C113.68538,8.69978762 113.701317,8.62758314 113.726815,8.56373466 C113.862806,7.78769714 114.259092,6.66434962 114.919498,5.57378336 C114.119701,5.57828275 113.332016,5.75183062 112.58959,6.09571252 C111.589207,6.55914961 110.831269,7.28312277 110.570337,8.41761164 C110.136865,10.3049983 110.637057,11.6867393 112.512883,12.2735882 C113.129092,12.4657764 113.762513,12.6011866 114.389134,12.7548086 C114.990894,12.904574 115.599878,13.0307712 116.198876,13.18675 C116.562439,13.2825227 116.666558,13.5531289 116.653596,13.9383623 C116.640209,14.3220959 116.464483,14.4935012 116.131943,14.5155696 C115.344895,14.5695623 114.556147,14.608557 113.769525,14.6539794 C113.300781,14.6824756 112.916394,14.6087713 112.862635,13.9951403 C112.848611,13.8333765 112.722819,13.6735411 112.623801,13.5306319 C112.569404,13.4515712 112.464436,13.3600836 112.381779,13.3590123 C111.685888,13.3463712 110.989359,13.3510848 110.290068,13.3510848 C110.269457,13.4387158 110.246296,13.4903517 110.246296,13.540702 C110.242046,14.5693481 110.248633,15.5960658 110.237796,16.6240692 C110.235034,16.8681075 110.364863,16.9321702 110.552913,16.9480252 C111.837178,17.0568676 113.123992,17.2212024 114.411445,17.24927 C115.719933,17.2771234 117.028209,17.129072 118.206656,16.4530924 C119.473072,15.7278337 119.98835,14.5522075 119.924179,13.0997618 Z M41.4677069,9.95141059 C41.2609581,7.8146292 39.9154973,6.24177126 37.9077179,5.76569303 C37.3673662,5.63713905 36.8210649,5.56236348 36.2747636,5.5420091 C36.2639268,5.55872112 36.2520276,5.5741476 36.2407659,5.58978833 C35.4875033,6.67714074 34.8749064,7.84119702 34.6558334,8.30484837 L34.608874,8.40362068 C34.6050493,8.41347649 34.6007996,8.42354655 34.5961249,8.42997425 C34.6063242,8.42847445 34.6169485,8.42483209 34.6269353,8.42354655 C35.3595868,8.26263982 36.088201,8.22578768 36.8023661,8.50496407 C37.4211251,8.74878811 37.7664147,9.25529079 37.9104802,9.8984892 C38.0131109,10.3490709 38.0513584,10.8135793 38.0955554,11.11311 C38.0294723,12.1276152 37.9716761,12.9696438 37.6102376,13.7572511 C37.4702094,14.0606385 37.2687727,14.2515412 36.9547185,14.3552414 C36.2962247,14.5707836 35.6336936,14.5707836 34.9673378,14.4398728 C34.2535976,14.2991062 33.7842162,13.8390972 33.5691804,13.140192 C33.5487818,13.0684161 33.5283831,12.9987827 33.5101094,12.9304348 L33.5030973,12.9304348 C33.4937479,12.8832983 33.4852485,12.8385187 33.4758991,12.7926678 C33.1922304,11.5954017 33.3269465,10.4071344 33.7202579,9.23536493 C33.749156,9.15030504 33.7857036,9.0744582 33.8239511,9.00118243 C33.952505,8.67144147 34.0823339,8.3976215 34.1828398,8.18572169 L34.2308616,8.08802066 C34.2421233,8.06295264 34.8302844,6.82819167 35.6900024,5.54008079 C35.3704236,5.5484368 35.0508447,5.57671868 34.7316909,5.6210698 C33.3059104,5.82032847 32.0373695,6.4011782 31.1493908,7.63551065 C29.7973429,9.51989773 29.6296916,11.6382531 30.1392328,13.848096 C30.4575367,15.229837 31.2923939,16.1879926 32.5700717,16.7157067 C34.1407676,17.3646901 35.7528982,17.4107552 37.3771405,17.0353776 C38.5766235,16.7544872 39.5912438,16.1342142 40.3385568,15.0745009 C41.2118739,13.8350263 41.4745065,12.421361 41.5386772,10.8607157 C41.5199784,10.6063931 41.4995798,10.279009 41.4677069,9.95141059 Z M78.7538005,9.43177398 C78.5842368,8.30928349 78.1630897,7.33548709 77.3184582,6.55473593 C75.978097,5.31611834 73.3893811,5.26555377 72.0483825,6.15579008 C71.7101049,6.38247359 71.3828766,6.62672615 71.0579856,6.86776487 C71.1536043,7.22643047 71.2211748,7.52060482 71.2587848,7.70786512 L71.2749337,7.79099669 C71.3344298,8.08388551 71.422399,8.52503991 71.4602215,9.04439799 C72.0103475,8.65530795 72.621032,8.41126964 73.3264853,8.4406228 C74.5204436,8.49247291 75.2730687,9.28736501 75.3718747,10.5979728 C75.4394452,11.49228 75.2819931,12.3565913 75.0633451,13.2226166 C74.8708329,13.9892268 74.3923146,14.3438215 73.6855865,14.3761743 C72.8611411,14.4130264 72.033296,14.3811022 71.2065133,14.3898867 C70.9700164,14.3905295 70.9273068,14.2634753 70.9290067,14.0530753 C70.9377186,13.3280308 70.9319815,12.6047004 70.9319815,11.8809415 C70.9319815,11.1706808 70.9258194,10.4593488 70.9385685,9.7488738 C70.9400559,9.65267257 70.9598171,9.53440291 71.0025268,9.44484364 C70.9965772,8.81085826 70.8852346,8.25957595 70.8112895,7.89255434 L70.7928032,7.80706594 C70.7184331,7.43168832 70.5707554,6.8334838 70.3601819,6.15579008 C70.2558513,5.95267479 70.0822503,5.85797336 69.7941194,5.86697214 C68.8487695,5.89761084 67.9002324,5.87725646 66.9519078,5.87725646 L66.1803714,5.87725646 C66.1803714,6.60401495 66.1684722,7.27013882 66.1914207,7.93883377 C66.1950329,8.04317675 66.3410108,8.19144234 66.4517159,8.23493643 C66.8165542,8.37634581 67.1975415,8.47683217 67.5755539,8.59531609 L67.5755539,19.6563147 C67.1796927,19.7745844 66.8084798,19.8645722 66.4570281,20.0051245 C66.3461104,20.0494756 66.2207437,20.2303082 66.2152191,20.3543628 C66.187171,20.883791 66.2024699,21.4153617 66.2024699,21.9906407 L72.7298248,21.9906407 C72.7298248,21.4751393 72.7134634,20.9707792 72.7370493,20.4717755 C72.7489485,20.1855286 72.635906,20.0282642 72.3898473,19.9676296 C71.9204659,19.8555734 71.4481098,19.7559441 70.9598171,19.6466732 L70.9598171,17.2223594 C72.0753682,17.146941 73.1732829,17.1662241 74.2403872,16.983249 C76.3990316,16.6132278 77.8498854,15.3116187 78.5009423,13.1167738 C78.8574936,11.9135085 78.9416381,10.6789618 78.7538005,9.43177398 Z M28.5351129,0.00289667317 L28.5351129,0.528253935 C28.5351129,5.08870635 28.5380877,9.6504443 28.5289508,14.2100397 C28.5278883,14.550065 28.5899342,14.705401 28.9556225,14.7660356 C29.8816361,14.9162295 29.8786613,14.9410833 29.8786613,15.9007388 L29.8786613,16.9154582 L23.7673539,16.9154582 C23.7673539,16.3536773 23.7546047,15.79661 23.7796781,15.2421139 C23.7835028,15.1341285 23.9241685,14.9811493 24.0335987,14.9410833 C24.39185,14.8076014 24.7654002,14.7163281 25.1706109,14.5987012 L25.1706109,2.69246017 C24.7161035,2.5544789 24.2754077,2.42592492 23.8368368,2.28901494 C23.6194637,2.2215241 23.5355317,2.07175871 23.5416938,1.82664912 C23.5574178,1.22951589 23.5463685,0.630882862 23.5463685,0.00289667317 L28.5351129,0.00289667317 Z M23.0378685,13.9813636 C22.9271633,14.0130736 22.8525808,14.0355705 22.7792731,14.0582817 C21.6598973,14.3880227 20.5277723,14.6307754 19.3593123,14.6500585 C18.6451471,14.6624854 17.9386315,14.6142777 17.2843873,14.2562548 C16.5840337,13.8763778 16.2470311,13.2558906 16.1288889,12.434645 L16.1820104,12.434645 C16.0568562,11.5649773 16.1159273,10.7938677 16.2514933,10.1414562 L16.2415065,10.1414562 C16.3468995,9.61267086 16.4601545,9.21608183 16.6212188,8.92554984 C16.738936,8.63094697 16.8577156,8.38305204 16.950572,8.1861502 L16.9964689,8.08844918 C17.0081556,8.06338115 17.5939793,6.83697619 18.4502975,5.55272194 C18.1708786,5.55829261 17.8901847,5.57714719 17.6099158,5.6032865 C16.1186896,5.74940952 14.8809591,6.40696313 13.9591952,7.63336809 C12.8793418,9.06760198 12.5580631,10.7503736 12.6881045,12.5132771 C12.8733922,15.0817856 14.1272716,16.5479438 16.557473,17.0546607 C18.4859952,17.4587487 20.4106926,17.2747023 22.3067044,16.7630574 C23.0833405,16.5524432 23.0810031,16.5447299 23.0810031,15.6988447 C23.0810031,15.2326223 23.0833405,14.7676854 23.0801532,14.3021058 C23.0784533,14.2014051 23.0550798,14.1013473 23.0378685,13.9813636 Z M23.1743057,9.01328793 C22.8804377,7.40914852 22.044943,6.28344418 20.4889087,5.81229384 C19.9993411,5.66424251 19.5031865,5.58860992 19.005332,5.56097082 C18.99832,5.57296919 18.9925829,5.58218222 18.9866332,5.59053823 C18.229121,6.68217577 17.6154616,7.84751759 17.3932014,8.31716813 C17.7263793,8.23039419 18.1592131,8.22032413 18.7342,8.25889033 C19.4999992,8.31159746 20.0788109,9.1191307 19.8848112,10.1681312 L16.7060219,10.1681312 C16.5594066,10.8186143 16.4920486,11.5927235 16.6248523,12.4748181 L23.1677186,12.4748181 C23.26015,11.2869793 23.3821169,10.1477768 23.1743057,9.01328793 Z M85.3771778,14.9189506 C84.9107712,14.7970386 84.4405398,14.6841253 83.9303612,14.5585709 C83.9303612,13.1191949 83.9303612,11.6427524 83.9356733,10.1652387 C83.9356733,10.1217446 83.9524597,10.070323 83.9768956,10.0261862 C84.0652897,9.15287612 83.9067752,8.37255347 83.8092442,7.89647523 L83.7928828,7.81077258 C83.782471,7.76449315 83.7712092,7.7113575 83.7605849,7.65629355 C83.7576101,7.66015017 83.7550603,7.66422104 83.7516605,7.66614935 C83.6169444,7.15750411 83.4975273,6.69578107 83.3683359,6.23684336 C83.2935409,5.97095088 83.1377887,5.85482379 82.8430707,5.86832195 C82.2196371,5.89488978 81.5968408,5.87560668 80.9742571,5.87560668 L79.150703,5.87560668 C79.150703,6.54751548 79.1687643,7.17678721 79.143266,7.80091677 C79.1313667,8.09980478 79.2577959,8.22857301 79.5027921,8.29177872 C79.8604059,8.38305204 80.2182322,8.47004024 80.5794583,8.56195633 L80.5794583,14.5926378 C80.1808347,14.706408 79.7972976,14.8021807 79.4258722,14.9313775 C79.3194168,14.9686581 79.1696142,15.0982834 79.1664269,15.1904138 C79.143266,15.7699779 79.1545277,16.3538273 79.1545277,16.9284636 L85.6874072,16.9284636 C85.6874072,16.4061059 85.6721082,15.9021743 85.6959066,15.4003853 C85.7067434,15.1327787 85.6115497,14.9823706 85.3771778,14.9189506 Z M84.068222,7.22769458 C84.1204936,7.43788034 84.1574661,7.60971416 84.1831769,7.73633983 L84.2014507,7.82075694 C84.2807079,8.2137036 84.4139366,8.87789916 84.4039498,9.63893872 C84.8525075,9.31433992 85.3418626,9.08101445 85.894326,9.02466495 C86.0694144,9.42061121 86.2241041,9.78720431 86.4008924,10.1387994 C86.4476393,10.2339294 86.5685438,10.3464141 86.6584253,10.3491995 C87.3742904,10.3644117 88.0893055,10.3577697 88.8100577,10.3577697 L88.8100577,5.89737515 C86.9516559,5.53763827 85.3418626,5.89287576 84.068222,7.22769458 Z M6.79068537,12.9661728 C6.13112909,11.2709743 5.49749608,9.63598198 4.86620043,8.0164161 C5.2709861,7.89021894 5.61542577,7.79873136 5.94860368,7.67231994 C6.04868455,7.63225395 6.18148825,7.49448694 6.18467554,7.39764294 C6.20826147,6.82900584 6.19699972,6.25822617 6.19699972,5.67351982 L0.0903669786,5.67351982 C0.0708182743,5.73629702 0.0495696827,5.77379193 0.0480822813,5.81364366 C0.0451074784,6.19630601 0.0417077038,6.58132517 0.0408577601,6.96205921 C0.0397953305,7.60525762 0.104391049,7.6868894 0.721875121,7.83494073 C0.773084227,7.84608207 0.82599322,7.85615213 0.880177129,7.85958024 C1.22737912,7.87822057 1.38568112,8.09012038 1.51487256,8.41386215 C2.57623971,11.0640024 3.66225523,13.706001 4.72468481,16.3599979 C4.84112709,16.6507441 4.98051785,16.7351612 5.27438587,16.7289478 C6.18892525,16.7088077 7.10686441,16.7088077 8.02204125,16.7253054 L6.79068537,12.9661728 Z M13.2607115,5.67924048 L8.01315934,5.67924048 L8.01315934,6.49105886 C8.01315934,7.72174895 8.01315934,7.72174895 9.18501917,7.95464591 C9.20669273,7.95785976 9.22390409,7.9867844 9.26703873,8.02749316 C8.60875736,9.72012056 7.94771368,11.422818 7.25692197,13.1962202 L8.39308416,16.6721055 C8.46171711,16.6174701 8.51292622,16.5324102 8.55946063,16.4124265 C9.5677063,13.8634153 10.5993254,11.3221174 11.6005591,8.76903537 C11.8002958,8.26188992 11.9849461,7.82952004 12.612842,7.83016281 C12.7705065,7.83230537 12.9326333,7.70653673 13.0811609,7.61997705 C13.1527687,7.57798275 13.2509372,7.49142307 13.2522121,7.42350372 C13.2655987,6.8396544 13.2607115,6.2566621 13.2607115,5.67924048 Z" id="Combined-Shape"></path>
                </g>
            </g>
        </g>
    </g>
</svg>