<?xml version="1.0" standalone="no"?>
<!DOCTYPE svg PUBLIC "-//W3C//DTD SVG 1.1//EN" "http://www.w3.org/Graphics/SVG/1.1/DTD/svg11.dtd" >
<svg>
<metadata>
Created by FontForge 20120731 at Thu May  5 17:53:23 2016
 By www-data
Copyright (c) 2014 by Paula Mastrangelo &#38; Ramiro Espinoza. All rights reserved.
</metadata>
<defs>
<font id="LaskiSlab-Regular" horiz-adv-x="1" >
  <font-face 
    font-family="LaskiSlab-Regular"
    font-weight="400"
    font-stretch="normal"
    units-per-em="1000"
    panose-1="2 0 0 0 0 0 0 0 0 0"
    ascent="762"
    descent="-238"
    x-height="440.998"
    cap-height="654"
    bbox="-560.002 -218.007 1250 926.002"
    underline-thickness="55"
    underline-position="-80"
    unicode-range="U+000D-FB04"
  />
<missing-glyph horiz-adv-x="728" 
d="M118 654h492v-654h-492v654zM194 63h340v528h-340v-528z" />
    <glyph glyph-name="f_f" unicode="ff" horiz-adv-x="624" 
d="M41 42c8 5.33301 18.002 9.16797 30.002 11.501s25 3.83301 39 4.5v324h-77v43c7.33301 4 17.166 7.5 29.499 10.5s28.166 4.83301 47.499 5.5v65c0 63.333 15.333 111.333 46 144c30.667 32.668 73 49.001 127 49c15.333 0 28.833 -0.833008 40.5 -2.5
s21.167 -3.5 28.5 -5.5v-128h-48c-9.33301 21.333 -15 45.666 -17 72.999c-3.33301 0.686523 -8.33301 1.01953 -15 1c-30 -0.00195312 -52.667 -5.66895 -68 -17c-7.33398 -10.667 -12.667 -25.5 -16 -44.5c-3.33398 -19 -5.00098 -40.833 -5 -65.5v-69h227v60
c0 67.333 16.333 117.166 49 149.499s78.334 48.5 137.001 48.5c11.333 -0.0214844 25.333 -0.688477 42 -2c16.668 -1.34375 30.335 -3.67676 41 -6.99902v-126h-52c-8.66699 21.333 -14 45.333 -16 72c-4.66699 0.686523 -9.33398 1.01953 -14.001 1h-11
c-17.334 0 -33.001 -1.83301 -47 -5.5c-14.001 -3.66699 -25.668 -8.16699 -35 -13.5c-7.33301 -10.667 -12.833 -25.5 -16.5 -44.5c-3.66992 -19 -5.50293 -40.5 -5.49902 -64.5v-68h137v-59h-137v-324c16 0 31.167 -1.16699 45.5 -3.5s26.833 -6.5 37.5 -12.5v-42h-225v42
c16.667 9.33301 40 14.666 70 15.999v324h-227v-324c14 -0.666992 27.167 -2.16699 39.5 -4.5s23.166 -6.16602 32.499 -11.499v-42h-214v42z" />
    <glyph glyph-name="f_f_i" unicode="ffi" horiz-adv-x="881" 
d="M41 42c8 5.33301 18.0029 9.16797 30.0029 11.501s25 3.83301 39 4.5v324h-77v43c7.33301 4.66699 17.166 8.33398 29.499 11.001s28.166 4.33398 47.499 5.00098v65c0 63.333 15.333 111.333 46 144c30.667 32.668 73 49.001 127 49
c15.333 0 28.833 -0.833008 40.5 -2.5s21.167 -3.5 28.5 -5.5v-128h-48c-9.33301 21.333 -15 45.666 -17 72.999c-3.33301 0.686523 -8.33301 1.01953 -15 1c-30 -0.00292969 -52.667 -5.66992 -68 -17.001c-7.33398 -10.667 -12.667 -25.5 -16 -44.5
c-3.33398 -19 -5.00098 -40.833 -5 -65.5v-69h227v55c0.000976562 38.667 5.66797 71.167 17.001 97.5c11.334 26.333 27.001 47.166 47 62.499c20 15.333 43.667 26.333 71 33c27.333 6.67188 57 10.0049 89 10c30 0 58.667 -1.5 86 -4.5s47.666 -6.83301 60.999 -11.5
v-123h-53c-5.33594 10.667 -9.16895 21.667 -11.5 33c-2.34375 11.333 -4.17676 22.666 -5.49902 33.999c-14.001 2.66699 -29.168 4.66699 -45.5 6c-16.333 1.33301 -29.833 2 -40.5 2c-25.334 0 -48.501 -2 -69.5 -6c-21.001 -4 -38.168 -10.333 -51.5 -19
c-7.33301 -12.667 -12.833 -29.5 -16.5 -50.5c-3.66992 -21 -5.50293 -40.5 -5.49902 -58.5v-60h299v-383c27.333 -1.33301 49.666 -6.66602 66.999 -15.999v-42h-209v42c16.667 9.33301 40 14.666 69.999 15.999v324h-227v-324c15.333 -0.666992 29.333 -2.16699 42 -4.5
c12.668 -2.33301 24.001 -6.16602 34 -11.499v-42h-217v42c8 5.33301 18 9.16602 30 11.499s25 3.83301 39 4.5v324h-227v-324c14 -0.666992 27.167 -2.16699 39.5 -4.5s23.166 -6.16602 32.499 -11.499v-42h-214v42z" />
    <glyph glyph-name="f_f_l" unicode="ffl" horiz-adv-x="881" 
d="M41 42c8 5.33301 18.0049 9.16797 30.0049 11.501s25 3.83301 39 4.5v324h-77v43c7.33301 4.66699 17.166 8.33398 29.499 11.001s28.166 4.33398 47.499 5.00098v65c0 63.333 15.333 111.333 46 144c30.667 32.668 73 49.001 127 49
c15.333 0 28.833 -0.833008 40.5 -2.5s21.167 -3.5 28.5 -5.5v-128h-48c-4.66699 10.667 -8.16699 22.167 -10.5 34.5s-4.16602 25.166 -5.49902 38.499c-2.66895 0.686523 -5.33594 1.01953 -8 1h-8c-30 -0.00292969 -52.667 -5.66992 -68 -17.001
c-7.33398 -10.667 -12.667 -25.5 -16 -44.5c-3.33398 -19 -5.00098 -40.833 -5 -65.5v-69h227v55c0.000976562 38.667 5.66797 71.167 17.001 97.5c11.334 26.333 27.001 47.166 47 62.499c20 15.333 43.833 26.333 71.499 33c27.667 6.67188 57.834 10.0049 90.5 10
c33.333 0 63.333 -1.83301 90 -5.5c26.6689 -3.66699 45.002 -7.5 55 -11.5v-624c27.333 -1.33301 49.666 -6.66602 66.999 -15.999v-42h-209v42c16.667 9.33301 40 14.666 69.999 15.999v570c-12 2 -25.333 3.66699 -40 5s-30 2 -46 2c-25.333 0 -48.333 -2.33301 -69 -7
s-37.334 -10.667 -50.001 -18c-7.33301 -12.667 -12.833 -28.834 -16.5 -48.501c-3.66992 -19.667 -5.50293 -38.167 -5.49902 -55.5v-65h124v-59h-124v-324c15.333 -0.666992 29.333 -2.16699 42 -4.5c12.668 -2.33301 24.001 -6.16602 34 -11.499v-42h-218v42
c8.66699 5.33301 19 9.16602 31 11.499s25 3.83301 39 4.5v324h-227v-324c13.333 -0.666992 26.166 -2.16699 38.499 -4.5s23.166 -6.16602 32.499 -11.499v-42h-213v42z" />
    <glyph glyph-name="f_i" unicode="fi" horiz-adv-x="582" 
d="M41 42c8 5.33301 18.001 9.16602 30.001 11.499s25 3.83301 39 4.5v324h-77v43c7.33301 4 17 7.5 29 10.5s28 4.83301 48 5.5v55c0 38.667 5.66699 71.167 17 97.5s27.166 47.166 47.499 62.499s44.666 26.333 72.999 33c28.333 6.67188 59.5 10.0049 93.5 10
c31.333 -0.0107422 59.833 -1.67773 85.5 -5c25.667 -3.33301 44.167 -7.33301 55.5 -12v-122h-54c-9.33301 22.001 -15 44.334 -17 67c-13.333 2.66699 -27.666 4.66699 -42.999 6s-27.666 2 -36.999 2c-27.333 0 -51.833 -2 -73.5 -6s-39.167 -10.333 -52.5 -19
c-8 -12.667 -13.667 -29.167 -17 -49.5c-3.33398 -20.334 -5.00098 -40.167 -5 -59.499v-60h299v-383c27.333 -1.33301 49.666 -6.66602 66.999 -15.999v-42h-209v42c16.667 9.33301 40 14.666 70 15.999v324h-227v-324c15.333 -0.666992 29.333 -2.16699 42 -4.5
s24 -6.16602 34 -11.499v-42h-218v42z" />
    <glyph glyph-name="f_l" unicode="fl" horiz-adv-x="582" 
d="M340 42c8.66699 5.33301 18.8369 9.16797 30.5039 11.501s24.5 3.83301 38.5 4.5v570c-12 2 -25 3.66699 -39 5s-28.667 2 -44 2c-26 0 -49.667 -2.33301 -71 -7s-38 -10.667 -50 -18c-8 -12.667 -13.667 -28.834 -17 -48.501
c-3.33398 -19.667 -5.00098 -38.167 -5 -55.5v-65h124v-59h-124v-324c15.333 -0.666992 29.333 -2.16699 42 -4.5s24 -6.16602 34 -11.499v-42h-218v42c8 5.33301 18 9.16602 30 11.499s25 3.83301 39 4.5v324h-77v43c7.33301 4.66699 17.166 8.5 29.499 11.5
s28.166 4.5 47.499 4.5v55c0 38.667 5.66699 71.167 17 97.5s27.166 47.166 47.499 62.499s44.333 26.333 72 33c27.667 6.67188 57.5 10.0049 89.5 10c34 0 64.167 -1.83301 90.5 -5.5s44.833 -7.5 55.5 -11.5v-624c27.333 -1.33301 49.666 -6.66602 66.999 -15.999v-42
h-209v42z" />
    <glyph glyph-name=".notdef" horiz-adv-x="728" 
d="M118 654h492v-654h-492v654zM194 63h340v528h-340v-528z" />
    <glyph glyph-name=".null" horiz-adv-x="0" 
 />
    <glyph glyph-name=".null" horiz-adv-x="0" 
 />
    <glyph glyph-name="nonmarkingreturn" unicode="&#xd;" horiz-adv-x="197" 
 />
    <glyph glyph-name="space" unicode=" " horiz-adv-x="197" 
 />
    <glyph glyph-name="exclam" unicode="!" horiz-adv-x="241" 
d="M77 654h90l-17 -475h-58zM61 50c0 18 5.83301 32.833 17.5 44.5s26.167 17.5 43.5 17.5s32 -5.83301 44 -17.5s18 -26.5 18 -44.5c0 -17.333 -6 -31.666 -18 -42.999s-26.667 -17 -44 -17s-31.833 5.66699 -43.5 17s-17.5 25.666 -17.5 42.999z" />
    <glyph glyph-name="quotedbl" unicode="&#x22;" horiz-adv-x="367" 
d="M70 384c0 22.667 -0.5 46.5 -1.5 71.5s-2.33301 49.5 -4 73.5c-1.66699 24.001 -3.66699 46.834 -6 68.5c-2.33301 21.668 -4.5 40.501 -6.5 56.5h92c0 -19.333 -1 -41.833 -3 -67.5s-4.33301 -51.167 -7 -76.5s-5.5 -49.333 -8.5 -72s-5.83301 -40.667 -8.5 -54h-47z
M240 384c0 22.667 -0.5 46.5 -1.5 71.5s-2.33301 49.5 -4 73.5c-1.66699 24.001 -3.66699 46.834 -6 68.5c-2.33398 21.668 -4.50098 40.501 -6.5 56.5h92c0 -19.333 -1 -41.833 -3 -67.5c-2.00391 -25.667 -4.33691 -51.167 -7 -76.5
c-2.66797 -25.333 -5.50098 -49.333 -8.5 -72c-3.00098 -22.667 -5.83398 -40.667 -8.5 -54h-47z" />
    <glyph glyph-name="numbersign" unicode="#" horiz-adv-x="585" 
d="M340 108h-147l-21 -108h-60l21 108h-101v57h113l27 134h-102v56h113l21 103h60l-21 -103h147l21 103h61l-21 -103h103v-56h-114l-27 -134h102v-57h-114l-21 -108h-61zM205 165h147l27 134h-147z" />
    <glyph glyph-name="dollar" unicode="$" horiz-adv-x="553" 
d="M425 497c-7.33301 11.334 -12.5068 25.0039 -15.5068 41.0029c-3.00293 16 -4.83594 32.667 -5.49902 50c-12 3.33301 -28.167 6.33301 -48.5 9c-20.333 2.67578 -43.166 4.00879 -68.499 4c-12 -0.0185547 -24.5 -0.685547 -37.5 -2.00098
c-13 -1.34668 -25.833 -3.51367 -38.5 -6.5c-12.667 -3 -24.667 -6.5 -36 -10.5c-11.333 -4.00684 -20.666 -8.67383 -27.999 -14.001c-4 -10 -7.33301 -21.5 -10 -34.5c-2.66699 -13.001 -4 -27.834 -4 -44.5c0 -14.667 3 -27.167 9 -37.5s15.333 -20 28 -29
s28.834 -17.667 48.501 -26s42.834 -17.833 69.501 -28.5c36.667 -14.667 68.334 -28 95.001 -40s48.667 -24.667 66 -38c17.334 -13.333 30.167 -28.333 38.5 -45c8.33594 -16.667 12.5029 -36.667 12.5 -60c0 -34 -5 -62.667 -15 -86s-23.833 -42.666 -41.499 -57.999
c-17.667 -15.333 -38.834 -26.833 -63.5 -34.5c-24.667 -7.66699 -51.334 -12.834 -80.001 -15.501v-90h-60v88c-12 0 -25.833 0.5 -41.5 1.5s-31.834 2.33301 -48.501 4s-33.334 3.83398 -50.001 6.50098s-32.334 6.33398 -47.001 11.001v152h49
c7.33301 -12 12.5 -26.5 15.5 -43.5s4.83301 -34.5 5.5 -52.5v-2c19.333 -4 41.5 -7.33301 66.5 -10s49.167 -4 72.5 -4c10.667 0 22.834 0.666992 36.501 2s27.334 3.16602 41.001 5.49902s26.5 5.66602 38.5 9.99902s22 9.5 30 15.5
c4.66699 9.33301 8.83398 22.333 12.501 39s5.5 32.667 5.5 48c0 14.667 -2.66699 27.334 -8 38c-5.33301 10.667 -14.333 20.667 -27 30s-29.334 18.5 -50 27.5c-20.667 9 -46.334 19.5 -77.001 31.5c-36.667 14 -67.667 26.667 -93 38
c-25.333 11.334 -46 23.501 -62 36.501s-27.5 27.667 -34.5 44s-10.5 36.833 -10.5 61.5c0 21.334 2.66699 42.334 8 63c5.33301 20.668 15.166 39.501 29.499 56.499c14.333 17 33.833 31.167 58.5 42.5s56.334 18.666 95.001 21.999v90h59v-88
c30.667 -1.33789 60.334 -4.00488 89.001 -8c28.667 -4 52.334 -9.33301 71.001 -16v-144h-49z" />
    <glyph glyph-name="percent" unicode="%" horiz-adv-x="923" 
d="M140 593c-5.33398 -5.33594 -10.001 -12.501 -14.001 -21.499c-4 -9 -7.16699 -18.833 -9.5 -29.5s-4.16602 -21.667 -5.49902 -33s-2 -22 -2 -32c0 -44.667 8.5 -76.5 25.5 -95.5s40.833 -28.5 71.5 -28.5c14 0 27 1.5 39 4.5c12 3.00098 22.333 7.16797 31 12.5
c5.33398 6 10.001 13.833 14 23.5c4.00098 9.66699 7.16797 20 9.5 31c2.33594 11 4.16895 22 5.5 33c1.33789 11.001 2.00488 21.168 2 30.5c-0.000976562 38.667 -7.33398 68.834 -22 90.5c-14.667 21.668 -40.667 32.501 -78 32.5c-10 0 -21.5 -1.33301 -34.5 -4
s-23.833 -7.33398 -32.5 -14.001zM201 305.002c-48.667 0 -85.668 13.833 -111.001 41.5s-38 68.5 -38 122.5c0 56.667 13.167 102.5 39.5 137.5s67.166 52.5 122.499 52.5c28.667 0 52.667 -4.5 72 -13.5s34.833 -21 46.5 -36s19.834 -32.333 24.501 -52s7 -40.167 7 -61.5
c0 -58 -13.333 -104.333 -39.999 -139c-26.667 -34.667 -67.667 -52 -123 -52zM646.999 281.002c-5.34082 -5.33301 -10.0068 -12.501 -13.999 -21.501c-4.00488 -9 -7.17188 -18.833 -9.5 -29.5c-2.33789 -10.667 -4.1709 -21.667 -5.49902 -33
c-1.35254 -11.333 -2.01953 -22 -2.00098 -32c0 -44.667 8.5 -76.5 25.5 -95.5c17.001 -19 40.834 -28.5 71.5 -28.5c14 0 27 1.5 39 4.5c12.0049 3 22.3379 7.16699 31 12.5c5.33301 6 10 13.833 14 23.5s7.16699 20 9.5 31s4.16602 22 5.49902 33s2 21.167 2 30.5
c0 38.667 -7.33301 68.834 -22 90.501s-40.667 32.5 -78 32.5c-10 -0.00195312 -21.5 -1.33496 -34.5 -3.99902c-13 -2.66797 -23.833 -7.33496 -32.5 -14.001zM708 -6.99902c-48.667 0 -85.665 13.832 -110.998 41.499c-25.334 27.667 -38.001 68.5 -38 122.5
c0 56.667 13.167 102.5 39.5 137.5s67.166 52.5 122.499 52.5c28.667 0 52.667 -4.5 72 -13.5s34.833 -21 46.5 -36c11.6699 -15 19.8369 -32.333 24.5 -51.999c4.67969 -19.667 7.0127 -40.167 6.99902 -61.5c0 -58 -13.333 -104.333 -40 -139s-67.667 -52 -123 -52z
M211.002 -7l460 698l45 -30l-459 -698z" />
    <glyph glyph-name="ampersand" unicode="&#x26;" horiz-adv-x="785" 
d="M493 389h245.004v-45c-9.33496 -6.00195 -21.502 -10.335 -36.501 -13c-15.002 -2.66895 -30.1689 -4.00195 -45.5 -3.99902c-6 -42 -16.833 -81.333 -32.5 -118s-36.167 -69.667 -61.5 -99c18 -17.333 35.5 -31.5 52.5 -42.5s33.5 -16.5 49.5 -16.5c22 0 44.667 6 68 18
v-61c-19.333 -12.667 -45.333 -19 -78 -19c-23.334 0 -46.001 5.5 -68 16.5c-22 11 -47 29.5 -75 55.5c-30.667 -23.333 -65.834 -41.166 -105.5 -53.499c-39.667 -12.333 -83.834 -18.5 -132.501 -18.5c-40 0 -73.833 4.83301 -101.5 14.5s-50.167 22.667 -67.5 39
s-29.833 35 -37.5 56s-11.5 42.833 -11.5 65.5c0 44 12.5 83.667 37.5 119s58.833 63.333 101.5 84c-12.667 12 -24.334 23.833 -35.001 35.5s-19.834 23.667 -27.501 36c-7.66699 12.334 -13.667 25.167 -18 38.5c-4.33301 13.334 -6.5 27.667 -6.5 43
c0 18.002 3 35.835 9 53.5c6 17.667 15.833 33.167 29.5 46.5s31.667 24.166 54 32.499s49.5 12.5 81.5 12.5c31.333 0 58.333 -3.33301 81 -10s41.334 -16 56.001 -28c14.667 -12.001 25.5 -26.168 32.5 -42.5c7 -16.333 10.5 -33.833 10.5 -52.5
c0 -38 -12.833 -73.167 -38.499 -105.5c-25.667 -32.333 -60.834 -59.5 -105.501 -81.5l198 -190c36 45.333 59.667 102.666 71 171.999h-7c-16.667 0 -32.834 1.33301 -48.501 4s-28.167 7 -37.5 13v45zM282.004 53c37.334 0 71.167 4.5 101.5 13.5
c30.334 9 57.167 22.167 80.5 39.5l-229 220c-32 -16 -57.333 -36.667 -76 -62s-28 -56 -28 -92c0 -34 13.667 -62.333 41 -85s64 -34 110 -34zM177.004 526c0.000976562 -10 1.33398 -19.168 4 -27.501c2.66699 -8.33301 7.16699 -17 13.5 -26s14.666 -19 24.999 -30
s23.5 -24.5 39.5 -40.5l15 -15c32.667 16 60.334 35.333 83.001 58s34 50 34 82c0 23.333 -9.66699 41.833 -29 55.5c-19.333 13.6689 -48 20.502 -86 20.5c-12.667 0 -26.167 -1.33301 -40.5 -4s-26.166 -6.66699 -35.499 -12
c-7.33398 -6.66699 -13.001 -15.667 -17.001 -27c-4 -11.335 -6 -22.668 -6 -33.999z" />
    <glyph glyph-name="quotesingle" unicode="'" horiz-adv-x="196" 
d="M70 384c0 22.667 -0.5 46.5 -1.5 71.5s-2.33301 49.5 -4 73.5c-1.66699 24.001 -3.66699 46.834 -6 68.5c-2.33301 21.668 -4.5 40.501 -6.5 56.5h92c0 -19.333 -1 -41.833 -3 -67.5s-4.33301 -51.167 -7 -76.5s-5.5 -49.333 -8.5 -72s-5.83301 -40.667 -8.5 -54h-47z
" />
    <glyph glyph-name="parenleft" unicode="(" horiz-adv-x="358" 
d="M60 280c0 44.667 4.83301 89.3291 14.5 133.996s23.834 88.334 42.501 131.001c18.667 42.668 42 83.335 70 122.001c28 38.667 60.667 74.667 98 108l42 -38c-34 -33.334 -63 -68.667 -87 -106c-24 -37.334 -43.667 -75.667 -59 -114.999
c-15.333 -39.333 -26.5 -79 -33.5 -119s-10.5 -79 -10.5 -117s3.5 -77 10.5 -117s18.167 -79.667 33.5 -119s35 -77.833 59 -115.5s53 -72.834 87 -105.501l-42 -38c-37.333 32.667 -70 68.5 -98 107.5s-51.333 79.833 -70 122.5s-32.834 86.334 -42.501 131.001
s-14.5 89.334 -14.5 134.001z" />
    <glyph glyph-name="parenright" unicode=")" horiz-adv-x="358" 
d="M298 280c-0.00195312 -44.667 -4.83594 -89.3281 -14.501 -133.995c-9.66699 -44.667 -23.834 -88.334 -42.5 -131.001c-18.667 -42.667 -42.167 -83.5 -70.5 -122.5s-60.833 -74.833 -97.5 -107.5l-42 38c34 32.667 63 67.834 87 105.501s43.667 76.167 59 115.5
s26.5 79 33.5 119s10.5 79 10.5 117s-3.5 77 -10.5 117s-18.167 79.667 -33.5 119s-35 77.666 -59 114.999s-53 72.666 -87 105.999l42 38c36.667 -33.333 69.167 -69.333 97.5 -108s51.833 -79.334 70.5 -122.001s32.834 -86.334 42.501 -131.001
s14.5 -89.334 14.5 -134.001z" />
    <glyph glyph-name="asterisk" unicode="*" horiz-adv-x="455" 
d="M265 654c-5.33301 -28 -9.16699 -54.998 -11.5 -80.998s-3.83301 -51 -4.5 -75c33.333 18.668 61.333 32.501 84 41.5c22.667 9 45 14.167 67 15.5l19 -62c-56 -6.66797 -107.667 -17.335 -155 -32.001c28 -25.333 49.667 -48 65 -68c15.334 -20 27.667 -40.667 37 -62
l-54 -37c-12 26.667 -24.833 51.5 -38.499 74.5c-13.667 23 -27.834 44.833 -42.501 65.5c-17.333 -34.667 -33 -62.834 -47 -84.5c-14 -21.667 -29.667 -39.5 -47 -53.5l-50 42c22 19.333 41.833 38.833 59.5 58.5s34.167 39.167 49.5 58.5
c-38 5.33398 -69.333 11.001 -94 17c-24.667 6 -46.667 15.333 -66 28l25 60c25.333 -15.333 49.833 -27.833 73.5 -37.5s47.5 -18.834 71.5 -27.501c-4 22.001 -7.16699 41.834 -9.5 59.5c-2.33496 17.667 -3.50195 34.167 -3.5 49.5c0.000976562 20 2.33398 38 7 54z" />
    <glyph glyph-name="plus" unicode="+" horiz-adv-x="680" 
d="M372 515v-178h177v-60h-177v-178h-63v178h-178v60h178v178h63z" />
    <glyph glyph-name="comma" unicode="," horiz-adv-x="215" 
d="M173 32c0 -18.667 -2.33398 -38.666 -7.00098 -59.999s-10.667 -42 -18 -62s-15.166 -38.667 -23.499 -56s-15.833 -31.333 -22.5 -42l-48 15c6.66699 15.333 12.5 31.5 17.5 48.5s9.33301 33.5 13 49.5s6.66699 31 9 45c2.33398 14 3.50098 25.333 3.5 34l-55 27v62
c8.66699 6 18 10.833 28 14.5s20.333 5.5 31 5.5c24 0 42 -7.33301 54 -22s18 -34.334 18 -59.001z" />
    <glyph glyph-name="hyphen" unicode="-" horiz-adv-x="329" 
d="M44 287h241v-64h-241v64z" />
    <glyph glyph-name="period" unicode="." horiz-adv-x="215" 
d="M46 50c0 18 5.83301 32.833 17.5 44.5s26.167 17.5 43.5 17.5s32 -5.83301 44 -17.5s18 -26.5 18 -44.5c0 -17.333 -6 -31.666 -18 -42.999s-26.667 -17 -44 -17s-31.833 5.66699 -43.5 17s-17.5 25.666 -17.5 42.999z" />
    <glyph glyph-name="slash" unicode="/" horiz-adv-x="503" 
d="M15 -186l419 931l60 -27l-420 -930z" />
    <glyph glyph-name="zero" unicode="0" horiz-adv-x="548" 
d="M274 52c17.333 0 35.3301 2 53.9971 6s35 10.667 49 20c10.001 14.667 19.168 35.167 27.501 61.5c8.33594 26.333 12.5029 56.166 12.501 89.499c0 58.667 -10.833 102.834 -32.499 132.501c-21.667 29.667 -58.167 44.5 -109.5 44.5c-24.667 0 -45.667 -2.5 -63 -7.5
c-17.333 -5.00098 -30.666 -10.834 -39.999 -17.5c-9.33398 -13.333 -18.501 -33.833 -27.501 -61.5s-13.5 -58.167 -13.5 -91.5c0 -62.667 11.833 -107.667 35.5 -135s59.5 -41 107.5 -41zM267.997 -11c-72.667 0 -126.168 20.333 -160.501 61s-51.5 97.334 -51.5 170.001
c0 35.333 4.5 68.166 13.5 98.499s22.667 56.666 41 78.999s41.5 39.833 69.5 52.5s61 19 99 19c73.334 0 127.167 -20.167 161.5 -60.5c34.334 -40.333 51.501 -97.166 51.5 -170.499c0 -36 -4.66699 -69.333 -14 -100s-23.166 -57 -41.499 -79s-41.5 -39.167 -69.5 -51.5
s-61 -18.5 -99 -18.5z" />
    <glyph glyph-name="one" unicode="1" horiz-adv-x="365" 
d="M55 388l146 70h44v-399c18 0 34.5 -1.5 49.5 -4.5s26.833 -7.16699 35.5 -12.5v-42h-245v42c10.667 6 23.5 10.333 38.5 13s31.5 4 49.5 4v317c-28 -14.667 -51.667 -24.167 -71 -28.5s-35 -6.5 -47 -6.5v47z" />
    <glyph glyph-name="two" unicode="2" horiz-adv-x="527" 
d="M68 0l-0.00292969 30.9971c0 14.667 1.33301 29.5 4 44.5s8.16699 30 16.5 45s20.5 29.5 36.5 43.5s37.333 27 64 39c16 7.33301 33.167 15.333 51.5 24c18.334 8.66699 35.667 16.667 52 24c16.334 7.33398 30.501 14.001 42.501 20c12 6 20 10.333 24 13
c2.00293 7.33301 3.66992 15.333 5.00098 24c1.33887 8.66699 2.00586 16.667 2 24c0 26.667 -10.833 45.834 -32.499 57.501c-21.667 11.667 -49.167 17.5 -82.5 17.5c-17.333 -0.00292969 -34 -1.33594 -50 -4c-16 -2.66699 -31 -5.66699 -45 -9
c-1.33301 -13.333 -3.33301 -26.166 -6 -38.499s-6.66699 -24.166 -12 -35.499h-54v121c27.333 9.33301 56.333 16.333 87 21s58 7 82 7c66 0 113.333 -11.5 142 -34.5s43 -54.167 43 -93.5c0 -18 -1.66699 -33.5 -5 -46.5s-8.5 -24.333 -15.5 -33.999
c-7 -9.66699 -16.167 -18.334 -27.5 -26.001s-25 -15.167 -41 -22.5l-133 -60c-23.333 -10.667 -41.5 -22.667 -54.5 -36s-20.5 -31 -22.5 -53h248c1.33301 13.333 3.33301 26 6 38s6.66699 23.667 12 35h54v-136h-391z" />
    <glyph glyph-name="three" unicode="3" horiz-adv-x="514" 
d="M64 442c23.333 8.66699 50.4961 15.3301 81.4961 19.9971s59.833 7 86.5 7c61.333 0 109.333 -12.167 144 -36.5s52 -62.833 52 -115.5c0 -14 -1.66699 -29 -5 -45s-8.33301 -31.5 -15 -46.5s-15.167 -29.167 -25.5 -42.5s-22.833 -24.666 -37.5 -33.999
c37.333 -10.667 66.333 -29 87 -55s31 -57.667 31 -95c0 -74 -22.667 -128.667 -68 -164s-107.333 -53 -186 -53c-56 0 -107.333 4.66699 -154 14v132h54c5.33301 -11.333 9.33301 -23.666 12 -36.999s4.66699 -26.666 6 -39.999c13.333 -2.66699 27.5 -4.5 42.5 -5.5
s30.167 -1.5 45.5 -1.5c10 0 21.167 0.5 33.5 1.5c12.334 1 24.667 2.5 37 4.5s23.833 4.5 34.5 7.5s19.334 6.5 26.001 10.5c9.33496 10 18.668 25.833 28 47.5c9.33594 21.667 14.0029 47.5 14.001 77.5c-0.00292969 16 -2.33594 31.333 -7 46
c-4.66699 14.667 -13.167 27.5 -25.5 38.5s-28.833 19.833 -49.5 26.5s-47 10 -79 10h-85v58h67c23.333 0.000976562 42.833 1.33398 58.5 4c15.667 2.66699 26.167 4.66699 31.5 6c6 4 12.333 9.5 19 16.5s12.834 15.833 18.501 26.499
c5.66699 10.667 10.5 23.167 14.5 37.5s6 30.166 6 47.499c0 13.333 -2.16699 25.833 -6.5 37.5s-11.5 22 -21.5 31s-23.5 16 -40.5 21s-37.833 7.5 -62.5 7.5c-13.333 -0.00585938 -27.833 -0.838867 -43.5 -2.49902c-15.667 -1.66797 -31.5 -4.50098 -47.5 -8.49902
c-1.33398 -13.333 -3.16699 -26.5 -5.5 -39.5s-6.16602 -25.167 -11.499 -36.5h-54v122z" />
    <glyph glyph-name="four" unicode="4" horiz-adv-x="560" 
d="M35 66l294.999 394h82v-383h134v-58h-134v-167c17.334 0 33.667 -1.33301 49 -4s28.333 -7 39 -13v-42h-249v42c11.334 6 24.501 10.333 39.501 13c15 2.66602 31.833 3.99902 50.5 4h2v167h-308v47zM342.999 77v304l-228 -304h228z" />
    <glyph glyph-name="five" unicode="5" horiz-adv-x="539" 
d="M119 458l330.003 -0.00292969v-136h-54c-5.33301 10.667 -9.33301 22 -12 34s-4.66699 24.667 -6 38h-202l-18 -215c30 6 65 9 105 9c30.667 0 59.5 -3.16699 86.5 -9.5c27 -6.33398 50.667 -16.667 71 -31s36.333 -33.166 48 -56.499s17.5 -52 17.5 -86
c0 -32.667 -5 -62.667 -15 -90s-25.5 -50.833 -46.5 -70.5s-47.833 -35 -80.499 -46c-32.667 -11 -71.334 -16.5 -116 -16.5c-22.667 0 -47.834 1 -75.501 3s-52.834 5.33301 -75.501 10v133h54c4.66699 -9.33301 8.66699 -20.166 12 -32.499
s5.66602 -27.166 6.99902 -44.499c13.333 -1.99902 28.333 -3.66602 45 -5c16.667 -1.33203 30.667 -1.99902 42 -2c25.333 -0.000976562 50.666 2.33203 75.999 6.99902s44.666 10.667 57.999 18c12.667 14.667 22.667 34.5 30 59.5c7.33594 25 11.0029 49.833 11.001 74.5
c0 39.333 -12.833 70 -38.499 92c-25.667 22 -63.834 33 -114.501 33c-23.333 0 -47.333 -1.5 -72 -4.5s-45.667 -6.83301 -63 -11.499l-33 20z" />
    <glyph glyph-name="six" unicode="6" horiz-adv-x="567" 
d="M426 594c-32.667 -8.66699 -64.668 -20.334 -96.001 -35.001s-60.166 -33 -86.499 -55s-48.666 -48 -66.999 -78s-30.833 -65 -37.5 -105c20 16.667 44.333 30.667 73 42c28.667 11.334 60 17.001 94 17c36 0 66.833 -5 92.5 -15s46.5 -23.167 62.5 -39.5
s27.833 -35.333 35.5 -57s11.5 -43.834 11.5 -66.501c0 -26 -4.66699 -51.667 -14 -77s-23.166 -48.166 -41.499 -68.499s-40.833 -36.666 -67.5 -48.999s-57.334 -18.5 -92.001 -18.5c-37.333 0 -70.333 7 -99 21s-52.667 33 -72 57s-33.833 51.833 -43.5 83.5
s-14.5 64.834 -14.5 99.501c0 63.333 11.167 118.5 33.5 165.5s50.666 86.667 84.999 119s72 58.166 113 77.499s80.167 33.333 117.5 42zM286.999 314c-29.333 0 -57.335 -5.99805 -84.002 -17.998s-49.667 -26.667 -69 -44c0.666992 -32 5.33398 -60.667 14.001 -86
s20.667 -46.5 36 -63.5s33.333 -30 54 -39s43.334 -13.5 68.001 -13.5c14 0 29.5 1.66699 46.5 5s31.167 8.33301 42.5 15c26.667 38 40 77.333 40 118c-0.00195312 17.333 -2.83496 33.666 -8.5 48.999c-5.66797 15.333 -14.501 28.666 -26.5 39.999
c-12.001 11.333 -27.334 20.333 -46 27c-18.667 6.66699 -41 10 -67 10z" />
    <glyph glyph-name="seven" unicode="7" horiz-adv-x="540" 
d="M493 458l-0.000976562 -54l-209 -450c-16.667 -36 -35.667 -69.667 -57 -101s-43.333 -55 -66 -71l-48 40c21.333 17.333 41.833 39.666 61.5 66.999s38.834 61 57.501 101l187 404h-294c-0.666992 -14 -2.5 -28.167 -5.5 -42.5s-7.16699 -27.166 -12.5 -38.499h-54v145
h440z" />
    <glyph glyph-name="eight" unicode="8" horiz-adv-x="562" 
d="M56 163c0 45.333 11.5 82.832 34.5 112.499s52.167 52.167 87.5 67.5c-30 14 -52.833 32.333 -68.5 55s-23.5 51 -23.5 85c0 20.667 3.16699 41.834 9.5 63.5c6.33301 21.667 17.166 41.334 32.499 59c15.333 17.668 35.666 32.001 60.999 43
c25.333 11 56.666 16.5 93.999 16.5c62 -0.000976562 108.667 -13.668 140 -41c31.334 -27.334 47.001 -64.001 47.001 -110c-0.000976562 -35.333 -7.83398 -66.666 -23.499 -93.999c-15.667 -27.333 -39.167 -49 -70.5 -65c38.667 -12.667 70.167 -30.834 94.5 -54.5
c24.334 -23.667 36.501 -57.5 36.5 -101.5c0 -64 -20.5 -115 -61.5 -153s-99.833 -57 -176.499 -57c-68 0 -120.5 15 -157.5 45s-55.5 73 -55.5 129zM271 314.999c-5.33301 1.33789 -10.499 2.50195 -15.499 3.49707c-5.00098 1.00684 -10.168 2.17383 -15.501 3.5
c-72.667 -28 -109 -78.333 -109 -151c0 -23.333 4.66699 -42.833 14 -58.5s21.166 -28.167 35.499 -37.5s30.166 -16 47.499 -20s34 -6 50 -6c26.667 0 49.667 2.5 69 7.5s34.333 10.167 45 15.5c2.66699 3.33301 6.33398 8.83301 11.001 16.5s9.16699 16.834 13.5 27.501
c4.33594 10.667 8.00293 22.167 11.001 34.5c3 12.333 4.5 24.833 4.5 37.5c-0.00195312 22.667 -4.33496 41.334 -13 56.001c-8.66699 14.667 -20.334 26.5 -35 35.5c-14.667 9.00098 -31.667 16.168 -51 21.5c-19.333 5.33496 -40 10.002 -62 14.001zM156.001 492.996
c0 -23.333 5.16406 -42.168 15.4971 -56.501s23.166 -26 38.499 -35s31.833 -15.667 49.5 -20s33.834 -7.83301 48.501 -10.5c10.667 4.00098 21.5 9.66797 32.5 17.001c11 7.33398 20.833 16.501 29.5 27.5c8.66699 11 15.667 24.167 21 39.5
c5.33496 15.334 8.00195 33.001 8 53c-0.00195312 17.333 -3.33496 32.333 -10 45c-6.66699 12.6689 -15.5 23.002 -26.499 31c-11 8.00195 -23.833 13.835 -38.499 17.499c-14.667 3.67578 -30.334 5.50879 -47 5.5c-16 0 -32.167 -1.5 -48.5 -4.5
s-30.166 -8.5 -41.499 -16.5c-7.33301 -8.00098 -14.333 -20.168 -21 -36.5c-6.66699 -16.334 -10 -35.167 -10 -56.499z" />
    <glyph glyph-name="nine" unicode="9" horiz-adv-x="567" 
d="M127 -147c34.667 8 68.501 19.998 101.501 35.998s63 35.667 90 59s50 50.5 69 81.5s32.167 65.833 39.5 104.5c-20 -17.333 -44.5 -31.5 -73.5 -42.5s-61.5 -16.5 -97.5 -16.5c-27.333 0 -53 4 -77 12s-44.833 19.667 -62.5 35s-31.667 34.333 -42 57
s-15.5 48.667 -15.5 78c0 31.334 5.33301 60.001 16 86.001s25.5 48.333 44.5 67s41.333 33.167 67 43.5c25.667 10.335 53.5 15.502 83.5 15.5c38 0 71.667 -7 101 -21c29.334 -14 53.667 -33 73 -57c19.334 -24 34.001 -51.833 44.001 -83.499
c10 -31.667 15 -64.834 15 -99.501c0 -66 -11.667 -123.333 -35 -172s-52.833 -89.667 -88.5 -123s-74.834 -59.666 -117.501 -78.999s-83.334 -33 -122.001 -41zM276.001 140.998c30 0 58.833 6 86.5 18s51.167 26.667 70.5 44c-1.33301 65.333 -18 115.833 -50 151.5
s-73 53.5 -123 53.5c-14 0 -29.333 -1.66699 -46 -5s-30.667 -8.33301 -42 -15c-26.667 -32 -40 -72.667 -40 -122c0 -37.333 13 -67.5 39 -90.5s61 -34.5 105 -34.5z" />
    <glyph glyph-name="colon" unicode=":" horiz-adv-x="215" 
d="M48 50c0 18 5.83301 32.833 17.5 44.5s26.167 17.5 43.5 17.5s32 -5.83301 44 -17.5s18 -26.5 18 -44.5c0 -17.333 -6 -31.666 -18 -42.999s-26.667 -17 -44 -17s-31.833 5.66699 -43.5 17s-17.5 25.666 -17.5 42.999zM48 344c0 18 5.83301 32.832 17.5 44.499
s26.167 17.5 43.5 17.5c17.333 -0.000976562 32 -5.83398 44 -17.5c12 -11.667 18 -26.5 18 -44.5c0 -17.333 -6 -31.666 -18 -42.999s-26.667 -17 -44 -17c-17.333 0.000976562 -31.833 5.66797 -43.5 17.001c-11.667 11.334 -17.5 25.667 -17.5 42.999z" />
    <glyph glyph-name="semicolon" unicode=";" horiz-adv-x="224" 
d="M178 32c0 -18.667 -2.33496 -38.666 -7.00195 -59.999s-10.667 -42 -18 -62s-15.166 -38.667 -23.499 -56s-15.833 -31.333 -22.5 -42l-48 15c6.66699 15.333 12.5 31.5 17.5 48.5s9.33301 33.5 13 49.5s6.66699 31 9 45c2.33398 14 3.50098 25.333 3.50098 34l-55 27v62
c8.66699 6 18 10.833 28 14.5s20.333 5.5 31 5.5c24 0 42 -7.33301 54 -22s18 -34.334 18 -59.001zM49.998 344.001c0 18 5.83301 32.832 17.5 44.499s26.167 17.5 43.5 17.5c17.333 -0.000976562 32 -5.83398 44 -17.5c12 -11.667 18 -26.5 18 -44.5
c0 -17.333 -6 -31.666 -18 -42.999s-26.667 -17 -44 -17c-17.333 0.000976562 -31.833 5.66797 -43.5 17.001c-11.667 11.334 -17.5 25.667 -17.5 42.999z" />
    <glyph glyph-name="less" unicode="&#x3c;" horiz-adv-x="680" 
d="M160 338l359 188v-68l-295 -151l295 -150v-69l-359 189v61z" />
    <glyph glyph-name="equal" unicode="=" horiz-adv-x="680" 
d="M133 426h414v-60h-414v60zM133 248h414v-60h-414v60z" />
    <glyph glyph-name="greater" unicode="&#x3e;" horiz-adv-x="680" 
d="M160 157l294 150l-294 151v68l359 -188v-61l-359 -189v69z" />
    <glyph glyph-name="question" unicode="?" horiz-adv-x="457" 
d="M36 640c11.333 4 24.3311 7.50098 38.998 10.501s29.667 5.66699 45 8s30.5 4 45.5 5s28.833 1.5 41.5 1.5c36 0 67.167 -4 93.5 -12c26.334 -8 48.167 -19.333 65.5 -34c17.334 -14.667 30.167 -31.834 38.5 -51.501c8.33594 -19.667 12.5029 -40.834 12.501 -63.501
c-0.00195312 -28 -3.83496 -54.333 -11.499 -78.999c-7.66699 -24.667 -19.5 -46.5 -35.5 -65.5s-36.333 -34.667 -60.999 -47c-24.667 -12.333 -54.334 -20.166 -89.001 -23.499l-7 -110h-59l-8 164c34 0 66.5 3.5 97.5 10.5s55.167 15.5 72.5 25.5
c8 14 14.833 31.333 20.5 52s8.5 42.667 8.5 66c0 68 -48 102 -144 102c-15.333 0 -31.5 -1 -48.5 -3s-32.167 -4.33301 -45.5 -7c-2 -32.001 -8.66699 -57.668 -20 -77.001h-51v128zM124.998 50.001c0 18 5.83301 32.833 17.5 44.5s26.167 17.5 43.5 17.5
s32 -5.83301 44 -17.5s18 -26.5 18 -44.5c0 -17.333 -6 -31.666 -18 -42.999s-26.667 -17 -44 -17s-31.833 5.66699 -43.5 17s-17.5 25.666 -17.5 42.999z" />
    <glyph glyph-name="at" unicode="@" horiz-adv-x="903" 
d="M656 26c-25.334 0 -46.5029 5.50098 -63.502 16.501c-17.001 11 -29.168 26.167 -36.5 45.5c-15.334 -16.667 -34.667 -30.834 -57.999 -42.501c-23.333 -11.667 -47.666 -17.5 -72.999 -17.5c-27.333 0 -51.333 4.5 -72 13.5s-37.667 21.167 -51 36.5
s-23.333 33.666 -30 54.999c-6.66797 21.333 -10.001 44.666 -10 69.999c0 36 5.33301 67.667 16 95s25.334 50 44.001 68s40.834 31.667 66.501 41c25.667 9.33496 53.5 14.002 83.5 14c27.334 0 52.501 -2.16699 75.501 -6.5s43.5 -10.166 61.5 -17.499v-250
c0 -17.333 3.66699 -32.833 11 -46.5s20.666 -20.5 39.999 -20.5c32.667 0 58.5 17.667 77.499 53c19 35.333 28.5 83.333 28.5 144c0 30.667 -5.33301 61.667 -16 93c-10.667 31.334 -27.834 59.501 -51.501 84.501s-54.667 45.5 -93 61.5s-84.833 24 -139.5 24
c-45.333 0 -86.166 -5.5 -122.499 -16.5s-64.166 -22.833 -83.499 -35.499c-16.667 -11.333 -32.5 -27 -47.5 -47s-28.333 -43 -40 -69s-21 -54.333 -28 -85s-10.5 -62 -10.5 -94c0 -48.667 7.33301 -91.334 22 -128.001s35 -67.5 61 -92.5s56.833 -43.833 92.5 -56.5
s74.834 -19 117.501 -19c38 0 75.333 4 112 12s72.334 19.333 107 34v-57c-34.001 -16 -70.668 -27.333 -110.001 -34s-76.666 -10 -111.999 -10c-50 0 -96.333 7.16699 -139 21.5s-79.834 36 -111.501 65s-56.334 65.167 -74.001 108.5s-26.5 94 -26.5 152
c0 46 7 93 21 141s36.667 91.833 68 131.5s72.333 72 123 97s112.667 37.5 186 37.5c55.333 -0.00390625 105 -8.1709 149 -24.501c44 -16.334 81.167 -38.667 111.5 -66.999c30.333 -28.333 53.5 -61.666 69.5 -99.999s24 -79.833 24 -124.5c0 -36.667 -4 -70.5 -12 -101.5
s-19.333 -57.833 -34 -80.5s-32.5 -40.334 -53.5 -53.001c-21.001 -12.667 -44.168 -19 -69.501 -19zM430.998 85.001c24 0 46.332 5.49902 66.999 16.499s37.667 24.167 51 39.5v210c-11.333 3.33496 -23.833 6.00195 -37.5 8.00098c-13.667 2 -28.167 3 -43.5 3
c-18.667 0 -37.167 -2 -55.5 -6c-18.333 -4.00098 -34.833 -11.334 -49.5 -22c-10 -12.667 -18.667 -29.167 -26 -49.5s-11 -44.5 -11 -72.5c0 -38.667 8.33301 -69.5 25 -92.5s43.334 -34.5 80.001 -34.5z" />
    <glyph glyph-name="A" unicode="A" horiz-adv-x="672" 
d="M-11 0l0.00195312 47.002c8 5.33301 19 9.16602 33 11.499s28.667 3.83301 44 4.5l226 591h91l222 -591c15.333 -0.666992 30 -2.33398 44 -5.00098c14.001 -2.66699 25.334 -6.66699 33.999 -12v-46h-239v46c8.66699 5.33301 20.167 9.33301 34.5 12
c14.334 2.66699 29.167 4.33398 44.5 5.00098l-53 143h-282l-54 -143c16 -0.666992 31.667 -2.33398 47 -5.00098s27.666 -6.66699 36.999 -12v-46h-229zM212.002 269.002h234l-117 311z" />
    <glyph glyph-name="B" unicode="B" horiz-adv-x="604" 
d="M342 654c36 0 65.3301 -4.49805 87.9971 -13.498s40.334 -20.5 53.001 -34.5c12.667 -14.002 21.167 -29.6689 25.5 -47.001c4.33301 -17.333 6.5 -34.333 6.5 -51c-0.00195312 -30.667 -7.83496 -60.5 -23.5 -89.5c-15.667 -29 -38.834 -50.167 -69.5 -63.5
c45.334 -9.33301 79.001 -28.333 101.001 -57s33 -63 33 -103c0 -26.667 -4 -51.834 -12 -75.501s-21 -44.334 -39 -62.001s-41.333 -31.667 -69.999 -42c-28.667 -10.333 -63.667 -15.5 -105 -15.5h-289v46c8 5.33301 19.333 9.33301 34 12s29.667 4.33398 45 5.00098v528
c-15.333 0 -30.333 1.5 -45 4.5s-26 7.16699 -34 12.5v46h301zM196.997 313.002l-0.000976562 -251h139c24 0 43.5 1.5 58.5 4.5s27.167 6.83301 36.5 11.5c11.333 10 21.333 24.5 30 43.5s13 42.5 13 70.5c0 16 -2 31.333 -6 46s-11.667 27.5 -23 38.5
s-27.166 19.833 -47.499 26.5s-46.5 10 -78.5 10h-122zM196.996 592.002l-0.00292969 -219h112c24 0 44.167 3.83301 60.5 11.5c16.334 7.66699 29.501 17.667 39.501 30c10.001 12.334 17.168 26.167 21.501 41.5c4.33789 15.334 6.50488 30.667 6.5 46
c0 12 -1.66699 23.5 -5 34.5s-9.16602 20.667 -17.499 29s-19.833 14.833 -34.5 19.5c-14.667 4.67578 -33.334 7.00879 -56 7h-127z" />
    <glyph glyph-name="C" unicode="C" horiz-adv-x="661" 
d="M538 477c-7.33301 11.334 -12.8359 26.002 -16.5029 44.001c-3.66699 18.002 -5.5 37.335 -5.5 58c-18 5.33301 -38.667 9.16602 -62 11.499s-44.666 3.5 -63.999 3.5c-35.333 0 -69.833 -4.33301 -103.5 -13s-59.834 -20 -78.501 -34
c-6 -9.33398 -12.667 -21.001 -20 -35c-7.33398 -14.001 -14.167 -30.834 -20.5 -50.5c-6.33398 -19.667 -11.667 -42.334 -16 -68c-4.33398 -25.667 -6.50098 -54.834 -6.5 -87.5c0 -37.333 4.5 -71.333 13.5 -102s23 -57 42 -79s43 -39 72 -51s63.167 -18 102.5 -18
c39.334 0 78.001 4.33301 116.001 13s73.333 20.667 105.999 36v-72c-29.334 -14.667 -64.501 -25.667 -105.5 -33c-41 -7.33301 -82.833 -11 -125.499 -11c-45.333 0 -86.5 6.33301 -123.5 19s-68.667 31.834 -95 57.501s-46.833 57.834 -61.5 96.501s-22 84 -22 136
c0 53.333 6.16699 102.5 18.5 147.5s31.833 83.667 58.5 116s60.834 57.666 102.501 75.999s92.167 27.5 151.5 27.5c41.334 -0.00488281 79.001 -2.67188 113.001 -8c34 -5.33594 61.667 -12.0029 83 -20.001v-160h-53z" />
    <glyph glyph-name="D" unicode="D" horiz-adv-x="713" 
d="M350 654c58.667 -0.00195312 107.169 -8.1709 145.502 -24.502c38.333 -16.334 68.833 -38.001 91.5 -65c22.667 -27 38.667 -58.333 48 -93.999c9.33301 -35.667 14 -72.5 14 -110.5c0 -44.667 -4.83301 -88.5 -14.5 -131.5s-26.334 -81.5 -50.001 -115.5
s-54.834 -61.333 -93.501 -82s-87 -31 -145 -31h-305v46c8 5.33301 19.333 9.33301 34 12s29.667 4.33398 45 5.00098v528c-15.333 0 -30.333 1.5 -45 4.5s-26 7.16699 -34 12.5v46h309zM197.002 590.998l0.000976562 -527.998h140c38 0 70.333 3.83301 97 11.5
s47.667 17.167 63 28.5c8 9.33301 16.167 21.666 24.5 36.999s16 33.5 23 54.5c7.00195 21 12.835 44.667 17.5 71c4.67969 26.333 7.0127 55.166 7 86.499c-0.00683594 34.667 -3.67383 66.5 -11.001 95.5c-7.33398 29 -20.001 54.167 -38 75.5
c-18 21.333 -41.667 38 -71 50s-66 18 -110 18h-142z" />
    <glyph glyph-name="E" unicode="E" horiz-adv-x="600" 
d="M539 654v-157h-51c-7.33301 12.001 -12.5 26.334 -15.5 42.999c-3.00586 16.667 -4.83887 33.667 -5.5 51h-270v-222h224v-63h-224v-243h270c0 18 1.5 36 4.5 54s8.5 33.667 16.5 47h51v-164h-498v46c8 5.33301 19.333 9.33301 34 12s29.667 4.33398 45 5.00098v528
c-15.333 0 -30.333 1.5 -45 4.5s-26 7.16699 -34 12.5v46h498z" />
    <glyph glyph-name="F" unicode="F" horiz-adv-x="570" 
d="M534 654l-0.000976562 -157h-51c-7.33301 12.002 -12.5 26.335 -15.5 43c-3.00488 16.667 -4.83789 33.667 -5.49902 51h-265v-240h219v-63h-219v-225c42.667 -0.666992 73 -6.33398 91 -17.001v-46h-247v46c8 5.33301 19.333 9.33301 34 12s29.667 4.33398 45 5.00098
v528c-15.333 0 -30.333 1.5 -45 4.5s-26 7.16699 -34 12.5v46h493z" />
    <glyph glyph-name="G" unicode="G" horiz-adv-x="709" 
d="M556 477c-7.33301 11.334 -12.8379 26.0039 -16.5049 44.0029c-3.66699 18 -5.5 36.667 -5.5 56c-16.667 4.66699 -37 8.66699 -61 12s-49.667 5 -77 5c-39.333 -0.00683594 -75.666 -4.17383 -108.999 -12.5c-33.333 -8.33301 -59.666 -19.833 -78.999 -34.5
c-15.333 -20.667 -29.666 -51.667 -42.999 -93s-20 -89 -20 -143c0 -49.333 6.16699 -90.5 18.5 -123.5s29.5 -59.333 51.5 -79s48 -33.667 78 -42s63 -12.5 99 -12.5c22 0 45.167 1.66699 69.5 5c24.334 3.33301 48.501 8 72.501 14v171h-10
c-24.667 0.000976562 -47.167 1.33398 -67.5 4c-20.333 2.66699 -36.166 7.33398 -47.499 14v46h266v-46c-7.33594 -5.33301 -16.6689 -9.33301 -28 -12c-11.335 -2.66699 -23.668 -4.66699 -37 -6v-214c-40.667 -16 -81.334 -26.833 -122.001 -32.5s-75.334 -8.5 -104 -8.5
c-49.333 0 -93.666 6 -132.999 18s-72.833 30.833 -100.5 56.5s-49 58.167 -64 97.5s-22.5 86.666 -22.5 141.999c0 56 6.66699 106.333 20 151s34 82.667 62 114s63.333 55.333 106 72c42.667 16.6689 93 25.002 151 24.999c20 -0.0205078 40 -0.6875 60 -2.00098
c20 -1.33301 39 -3.33301 57 -6s34.667 -6 50 -10s28.333 -8.33301 39 -13v-157h-53z" />
    <glyph glyph-name="H" unicode="H" horiz-adv-x="736" 
d="M460 0l0.00292969 46c8.66699 5.33301 20.167 9.33301 34.5 12s29.166 4.33398 44.499 5.00098v237h-342v-237c14.667 -0.666992 29.334 -2.33398 44.001 -5.00098s26.334 -6.66699 35.001 -12v-46h-235v46c8 5.33301 19.333 9.33301 34 12s29.667 4.33398 45 5.00098
v528c-15.333 0 -30.333 1.5 -45 4.5s-26 7.16699 -34 12.5v46h235v-46c-8.66699 -6 -20.334 -10.333 -35.001 -13s-29.334 -4 -44.001 -4v-226h342v226c-15.334 0 -30.167 1.5 -44.5 4.5s-25.833 7.16699 -34.5 12.5v46h236v-46c-9.33496 -6 -21.168 -10.333 -35.5 -13
c-14.334 -2.66699 -29.167 -4 -44.5 -4v-528c15.333 -0.666992 30.166 -2.33398 44.499 -5.00098s26.166 -6.66699 35.499 -12v-46h-236z" />
    <glyph glyph-name="I" unicode="I" horiz-adv-x="317" 
d="M276 654v-46c-8.66699 -6 -20.167 -10.333 -34.5 -13s-29.166 -4 -44.499 -4v-528c15.333 -0.666992 30.166 -2.33398 44.499 -5.00098s25.833 -6.66699 34.5 -12v-46h-235v46c8 5.33301 19.333 9.33301 34 12s29.667 4.33398 45 5.00098v528
c-15.333 0 -30.333 1.5 -45 4.5s-26 7.16699 -34 12.5v46h235z" />
    <glyph glyph-name="J" unicode="J" horiz-adv-x="447" 
d="M133 -11c-16.667 0 -33.834 0.670898 -51.501 2.00391s-33.167 3.66602 -46.5 6.99902v71c12 -2.66699 28 -5 48 -7s39.667 -3 59 -3c14 0 29.667 1.5 47 4.5s31.666 8.5 42.999 16.5c10.667 16.667 17.834 37 21.5 61c3.66699 24 5.5 48.667 5.5 74v377h-5
c-17.333 0.00878906 -34.166 1.3418 -50.499 3.99902c-16.333 2.66699 -29.166 6.66699 -38.499 12v46h250v-46c-8.66699 -6 -20.334 -10.333 -35 -13c-14.667 -2.66699 -29.334 -4 -44 -4v-371c0 -38 -3.66699 -71.333 -11 -100s-19 -52.834 -35 -72.501
s-36.833 -34.334 -62.5 -44.001s-57.167 -14.5 -94.5 -14.5z" />
    <glyph glyph-name="K" unicode="K" horiz-adv-x="663" 
d="M216 355l249.003 235.998c-13.333 1.33301 -25.833 3.33301 -37.5 6c-11.667 2.66895 -21.167 6.33594 -28.5 11v46h235v-46c-9.33496 -6 -21.502 -10.333 -36.501 -13c-15.002 -2.66699 -31.1689 -4 -48.501 -4l-259 -245l278 -282
c17.333 -0.666992 33.166 -2.5 47.499 -5.5s25.833 -7.16699 34.5 -12.5v-46h-258v46c7.33398 4.66699 17.501 8.33398 30.5 11.001c13 2.66699 26.833 4.33398 41.5 5.00098l-248 255v38zM272.003 653.998v-46c-8.66699 -5.33984 -19.667 -9.50684 -33 -12.5
c-13.333 -3 -27.333 -4.5 -42 -4.5v-528c14 -0.666992 27.667 -2.33398 41 -5.00098s24.333 -6.66699 33 -12v-46h-230v46c8 5.33301 19.333 9.33301 34 12s29.667 4.33398 45 5.00098v528c-15.333 0 -30.333 1.5 -45 4.5s-26 7.16699 -34 12.5v46h231z" />
    <glyph glyph-name="L" unicode="L" horiz-adv-x="568" 
d="M535 0l-497 0.000976562v46c8.66699 5.33301 20.167 9.33301 34.5 12s29.166 4.33398 44.499 5.00098v528c-15.333 0 -30.166 1.5 -44.499 4.5s-25.833 7.16699 -34.5 12.5v46h244v-46c-9.33301 -6 -21.833 -10.333 -37.5 -13s-31.167 -4 -46.5 -4h-4v-528h269v5
c0 19.333 1.5 38.166 4.5 56.499s8.5 34.166 16.5 47.499h51v-172z" />
    <glyph glyph-name="M" unicode="M" horiz-adv-x="884" 
d="M32 0l0.00292969 46c8 5.33301 19.5 9.33301 34.5 12s30.167 4.33398 45.5 5.00098l11 528c-15.333 0.00878906 -30.666 1.3418 -45.999 3.99902c-15.333 2.67383 -27.333 7.00684 -36 13v46h195l206 -548l209 548h191v-46c-9.33301 -6 -21.333 -10.333 -36 -13
s-30 -4 -46 -4l11 -528c15.333 -0.666992 30.166 -2.33398 44.499 -5.00098s26.166 -6.66699 35.499 -12v-46h-236v46c8.66797 5.33301 20.335 9.33301 35 12c14.667 2.66699 29.667 4.33398 45 5.00098l-11 509l-209 -549h-80l-208 546l-10 -506h1
c15.333 0 30.666 -1.33301 45.999 -4s27.666 -7 36.999 -13v-46h-229z" />
    <glyph glyph-name="N" unicode="N" horiz-adv-x="755" 
d="M719 654l0.000976562 -46c-8.66699 -5.33984 -20.334 -9.50684 -35.001 -12.5c-14.667 -3 -29.667 -4.5 -45 -4.5v-591h-95l-359 572v-509c15.333 0 30.833 -1.33301 46.5 -4s28.167 -7 37.5 -13v-46h-229v46c8.66699 5.33301 20.334 9.33301 35.001 12
s29.667 4.33398 45 5.00098v528c-15.333 0 -30.333 1.5 -45 4.5s-26.334 7.16699 -35.001 12.5v46h181l353 -563v500h-1c-15.333 0.00878906 -30.833 1.3418 -46.5 3.99902c-15.667 2.67383 -28.167 7.00684 -37.5 13v46h230z" />
    <glyph glyph-name="O" unicode="O" horiz-adv-x="744" 
d="M373 57c32.667 0 63.168 4.16406 91.501 12.4971c28.334 8.33301 50.834 18.833 67.5 31.5c7.33301 10 15 22.5 23 37.5s15.167 32.5 21.5 52.5s11.666 42.667 15.999 68s6.5 54 6.5 86c0 34.667 -4 67.334 -12 98.001s-21 57.5 -39 80.5s-41.5 41 -70.5 54
s-64.5 19.5 -106.5 19.5c-34 0 -65.167 -4.33301 -93.5 -13s-50.5 -19 -66.5 -31c-15.333 -22 -30.166 -52.833 -44.499 -92.499c-14.333 -39.667 -21.5 -89.5 -21.5 -149.5c0 -38 4.33301 -72.667 12.999 -104c8.66699 -31.333 22.167 -58.166 40.5 -80.499
s42 -39.5 71 -51.5s63.5 -18 103.5 -18zM64.001 298.997c0 48 5.33594 94.167 16.0029 138.5c10.667 44.334 28.334 83.334 53.001 117c24.667 33.667 57 60.5 97 80.499c40 20 89.667 30 149 30c52 -0.00292969 97 -7.66992 135 -23.001
c38 -15.333 69.167 -36.833 93.5 -64.5s42.5 -60.334 54.5 -98.001s18 -78.5 18 -122.5c-0.00292969 -54.667 -6.16992 -104.5 -18.501 -149.5c-12.333 -45 -31.333 -83.667 -57 -116s-58.334 -57.5 -98.001 -75.5s-87.167 -27 -142.5 -27
c-52 0 -96.833 7.83301 -134.5 23.5s-68.834 37.334 -93.501 65.001s-42.834 60.334 -54.501 98.001s-17.5 78.834 -17.5 123.501z" />
    <glyph glyph-name="P" unicode="P" horiz-adv-x="589" 
d="M317 654c34.667 -0.00488281 66.002 -3.17383 94.002 -9.50195c28 -6.33789 51.667 -16.6709 71 -30.999c19.334 -14.334 34.334 -33.001 45 -56c10.6689 -23 16.002 -51.167 16 -84.5c0 -23.333 -3.83301 -47.833 -11.5 -73.5s-20.667 -49.167 -39 -70.5
s-42.833 -39 -73.5 -53s-69.334 -21 -116.001 -21h-106v-192c20 0 37.833 -1.33301 53.499 -4c15.667 -2.66699 28.167 -7 37.5 -13v-46h-247v46c8 5.33301 19.333 9.33301 34 12s29.667 4.33398 45 5.00098v528c-15.333 0 -30.333 1.5 -45 4.5s-26 7.16699 -34 12.5v46h276
zM197.002 591.998v-275.003h86c36 0 65 2.33301 87 7s38.333 10.334 49 17.001c9.33301 10.667 18.833 27.334 28.5 50.001s14.5 49 14.5 79c0 41.334 -12.167 72.001 -36.5 92.001s-64.833 30 -121.5 30h-107z" />
    <glyph glyph-name="Q" unicode="Q" horiz-adv-x="744" 
d="M669 -168c-22 0 -42.834 1.16699 -62.501 3.5s-40 6 -61 11s-43.333 11.667 -66.999 20c-23.667 8.33301 -50.167 18.5 -79.5 30.5v63c48 -14 93.5 -25.167 136.5 -33.5s87.5 -13.833 133.5 -16.5v-78zM372.999 57c32.667 0 63.168 4.16406 91.501 12.4971
c28.334 8.33301 50.834 18.833 67.5 31.5c7.33301 10 15 22.5 23 37.5s15.167 32.5 21.5 52.5s11.666 42.667 15.999 68s6.5 54 6.5 86c0 34.667 -4 67.334 -12 98.001s-21 57.5 -39 80.5s-41.5 41 -70.5 54s-64.5 19.5 -106.5 19.5c-34 0 -65.167 -4.33301 -93.5 -13
s-50.5 -19 -66.5 -31c-15.333 -22 -30.166 -52.833 -44.499 -92.499c-14.333 -39.667 -21.5 -89.5 -21.5 -149.5c0 -38 4.33301 -72.667 12.999 -104c8.66699 -31.333 22.167 -58.166 40.5 -80.499s42 -39.5 71 -51.5s63.5 -18 103.5 -18zM64 298.997
c0 48 5.33594 94.167 16.0029 138.5c10.667 44.334 28.334 83.334 53.001 117c24.667 33.667 57 60.5 97 80.499c40 20 89.667 30 149 30c52 -0.00292969 97 -7.66992 135 -23.001c38 -15.333 69.167 -36.833 93.5 -64.5s42.5 -60.334 54.5 -98.001s18 -78.5 18 -122.5
c-0.00292969 -54.667 -6.16992 -104.5 -18.501 -149.5c-12.333 -45 -31.333 -83.667 -57 -116s-58.334 -57.5 -98.001 -75.5s-87.167 -27 -142.5 -27c-52 0 -96.833 7.83301 -134.5 23.5s-68.834 37.334 -93.501 65.001s-42.834 60.334 -54.501 98.001
s-17.5 78.834 -17.5 123.501z" />
    <glyph glyph-name="R" unicode="R" horiz-adv-x="620" 
d="M41 0l0.000976562 45.9971c8 5.33301 19.333 9.33301 34 12s29.667 4.33398 45 5.00098v528c-15.333 0 -30.333 1.5 -45 4.5s-26 7.16699 -34 12.5v46h284c30 -0.00488281 57.833 -2.67188 83.5 -8c25.667 -5.33594 48 -14.5029 67 -27.501c19 -13 34 -30 45 -51
s16.5 -46.833 16.5 -77.5c0 -20 -2.83301 -40.167 -8.5 -60.5s-14.167 -39.166 -25.5 -56.499s-25.833 -32.833 -43.5 -46.5s-38.5 -24.167 -62.5 -31.5l141 -231c18.667 -0.666992 34.167 -2.5 46.5 -5.5s23.166 -7.16699 32.499 -12.5v-46h-230v46
c6.66699 4 15.5 7.33301 26.5 10s22.833 4.66699 35.5 6l-134 222h-118v-221c16.667 -1.33301 30.167 -3.16602 40.5 -5.49902s19.5 -6.16602 27.5 -11.499v-46h-224zM197.001 591.997v-246.001h97c30 0 55 2 75 6c20 4.00098 36.667 9.66797 50 17.001
c10.667 12.667 19.667 29.334 27 50.001c7.33594 20.667 11.0029 42.334 11 65.001c0 14.667 -2.16699 28.5 -6.5 41.5s-12.333 24.5 -24 34.5c-11.667 10.0029 -27.167 17.8359 -46.5 23.499c-19.333 5.6709 -44 8.50391 -74 8.49902h-109z" />
    <glyph glyph-name="S" unicode="S" horiz-adv-x="575" 
d="M443 493c-6.66699 11.333 -11.6719 25.1748 -15.0049 41.5078s-5.33301 33.166 -6 50.499c-12.667 3.33301 -28.5 6.16602 -47.5 8.49902c-19.001 2.33301 -37.834 3.5 -56.5 3.5c-12.667 -0.0185547 -26 -0.685547 -40 -2.00098c-14 -1.33301 -27.667 -3.33301 -41 -6
s-25.666 -6 -36.999 -10c-11.334 -4.00391 -21.001 -8.6709 -29.001 -14c-4.66699 -10.667 -8.16699 -23.834 -10.5 -39.501c-2.33496 -15.667 -3.50195 -28.5 -3.50098 -38.5c0 -13.333 2.66699 -24.833 8 -34.5s13.833 -18.834 25.5 -27.5
c11.667 -8.66699 27 -17.667 46 -27s42.5 -20 70.5 -32c40.667 -18 74.5 -33.667 101.5 -47s48.5 -26.5 64.5 -39.5s27.333 -26.833 34 -41.5c6.6709 -14.667 10.0039 -32.334 10 -53.001c0 -38.667 -6.66699 -70.5 -20 -95.5s-31.666 -45 -54.999 -60
s-50.5 -25.5 -81.5 -31.5s-64.167 -9 -99.5 -9c-11.333 0 -25.166 0.333008 -41.499 1s-33.333 1.83398 -51 3.50098s-35.167 4 -52.5 7s-33 6.5 -47 10.5v159h50c12.667 -22.667 19.667 -55.667 21 -99c17.333 -4 37.5 -7.33301 60.5 -10s43.833 -4 62.5 -4
c14.667 0 29.834 0.666992 45.501 2s30.667 3.16602 45 5.49902c14.334 2.33301 27.501 5.5 39.501 9.5s22 8.66699 30 14c4.66699 8.66699 8.83398 21 12.501 37s5.5 32 5.5 48c0 12 -2.66699 22.667 -8 32s-14.166 18.5 -26.499 27.5s-28.5 18.333 -48.5 27.999
c-20 9.66699 -45 21.167 -75 34.5c-40 16.667 -72.833 31.5 -98.5 44.5s-46 25.833 -61 38.5s-25.5 26.667 -31.5 42c-6 15.334 -9 34.001 -9 56c0 22.667 3.5 45.334 10.5 68c7 22.668 19.5 43.001 37.5 60.999c18 18 42.5 32.5 73.5 43.5s70.833 16.5 119.5 16.5
c34 0 66.167 -1.83301 96.5 -5.5s54.833 -8.83398 73.5 -15.501v-151h-51z" />
    <glyph glyph-name="T" unicode="T" horiz-adv-x="641" 
d="M551 494c-7.33789 12.667 -12.6699 27.5 -15.999 44.5c-3.3418 17 -5.00879 34.5 -5.00098 52.5h-171v-528h1c15.334 0 30.667 -1.33301 46 -4c15.334 -2.66699 27.667 -7 37 -13v-46h-246v46c9.33301 5.33301 21.833 9.5 37.5 12.5s31.167 4.5 46.5 4.5h1v528h-171
c-0.666992 -18 -2.5 -35.5 -5.5 -52.5c-3 -17.001 -8.16699 -31.834 -15.5 -44.5h-51v160h563v-160h-51z" />
    <glyph glyph-name="U" unicode="U" horiz-adv-x="731" 
d="M265 654l-0.00488281 -45.998c-9.33301 -6 -21.166 -10.333 -35.499 -13c-14.334 -2.66699 -29.167 -4 -44.5 -4v-344c0 -37.333 5 -68.333 15 -93s23.333 -44.167 40 -58.5s35.834 -24.5 57.501 -30.5s44.5 -9 68.5 -9c25.334 0 50.001 2.5 74.001 7.5
s44.667 13.167 62 24.5c16.001 17.333 29.334 41.666 40 72.999c10.6689 31.333 16.002 69 16 113v317h-2c-15.334 0.00878906 -30.667 1.3418 -45.999 3.99902c-15.333 2.67383 -27.666 7.00684 -36.999 13v46h228v-46c-8.66699 -5.33984 -20.167 -9.50684 -34.5 -12.5
c-14.333 -3 -28.833 -4.5 -43.5 -4.5v-319c-0.000976562 -100.667 -23.168 -173 -69.501 -217s-113.166 -66 -200.499 -66c-37.333 0 -71 5 -101 15s-55.667 25 -77 45s-37.833 45 -49.5 75s-17.5 64.667 -17.5 104v363c-15.333 0.675781 -30 2.34277 -44 5
c-14 2.66699 -25 6.66699 -33 12v46h234z" />
    <glyph glyph-name="V" unicode="V" horiz-adv-x="672" 
d="M683 654l-0.00195312 -46.998c-8.66699 -5.33301 -20 -9.33301 -34 -12c-14.001 -2.66699 -28.668 -4 -44 -4l-225 -591h-91l-223 591c-15.333 0.675781 -30.166 2.34277 -44.499 5c-14.333 2.66699 -25.166 6.66699 -32.499 12v46h238v-46
c-8 -5.33301 -19.333 -9.33301 -34 -12s-29.667 -4.33398 -45 -5.00098l194 -517l195 517c-16 0.00878906 -31.5 1.3418 -46.5 3.99902c-15 2.67383 -27.167 7.00684 -36.5 13v46h229z" />
    <glyph glyph-name="W" unicode="W" horiz-adv-x="963" 
d="M482 528l-155 -527.997h-96l-153 591c-16.667 0.00878906 -32.167 1.3418 -46.5 3.99902c-14.333 2.67383 -25.833 7.00684 -34.5 13v46h244v-46c-8.66699 -5.33984 -21 -9.50684 -37 -12.5c-16 -3 -32 -4.5 -48 -4.5l131 -516l164 562h76l160 -559l133 513
c-18 0.00878906 -34.5 1.3418 -49.5 3.99902c-15.001 2.67383 -27.168 7.00684 -36.5 13v46h232v-46c-8.66699 -5.33301 -20.167 -9.33301 -34.5 -12s-29.833 -4.33398 -46.5 -5.00098l-154 -591h-97z" />
    <glyph glyph-name="X" unicode="X" horiz-adv-x="716" 
d="M12 46c9.33301 5.33301 21.6709 9.5 37.0039 12.5s31 4.5 47 4.5l214 275l-193 253c-15.333 0.675781 -30 2.34277 -44 5c-14 2.66699 -24.667 6.66699 -32 12v46h243v-46c-8 -5.33301 -18.667 -9.33301 -32 -12s-27 -4.33398 -41 -5.00098l152 -199l154 199
c-14 0.675781 -27.833 2.34277 -41.499 5c-13.667 2.66699 -24.5 6.66699 -32.5 12v46h232v-46c-8.66699 -5.33984 -20.334 -9.50684 -35.001 -12.5c-14.667 -3 -29.667 -4.5 -45 -4.5l-189 -242l218 -286c15.333 -0.666992 30.166 -2.33398 44.499 -5.00098
s26.166 -6.66699 35.499 -12v-46h-255v46c9.33398 5.33301 21.167 9.5 35.499 12.5c14.333 3 29.166 4.5 44.499 4.5h1l-177 231l-180 -231c15.333 -1.33301 30 -3.16602 44 -5.49902s25.667 -6.16602 35 -11.499v-46h-240v46z" />
    <glyph glyph-name="Y" unicode="Y" horiz-adv-x="622" 
d="M186 46c9.33301 5.33301 21.833 9.50098 37.5 12.501s31.167 4.5 46.5 4.5h3v201l-198 327c-14.667 0.675781 -28.667 2.34277 -42 5c-13.333 2.66699 -23.666 6.66699 -30.999 12v46h231v-46c-7.33398 -5.33594 -17.501 -9.16895 -30.501 -11.5
c-13 -2.34277 -26.167 -4.17578 -39.5 -5.5l156 -260l155 260c-14 0.675781 -27.667 2.34277 -41 5c-13.333 2.66699 -23.666 6.66699 -30.999 12v46h218v-46c-8.66699 -5.33301 -19.834 -9.33301 -33.501 -12s-27.167 -4.33398 -40.5 -5.00098l-196 -324v-204h4
c15.334 0 30.667 -1.33301 46 -4c15.334 -2.66699 27.667 -7 37 -13v-46h-251v46z" />
    <glyph glyph-name="Z" unicode="Z" horiz-adv-x="640" 
d="M73 654l500 0.00195312v-53l-421 -539h365v6c0 19.333 1.5 38.166 4.5 56.499s8.5 34.166 16.5 47.499h51v-172h-534v53l421 539h-331c-0.666992 -17.333 -2.5 -34.333 -5.5 -51s-8.16699 -31.667 -15.5 -45h-51v158z" />
    <glyph glyph-name="bracketleft" unicode="[" horiz-adv-x="333" 
d="M225 -145c20.667 0 39.5 -1.33301 56.5 -4s30.167 -6.66699 39.5 -12v-46h-214v969h214v-46c-9.33301 -5.33301 -22.5 -9.33301 -39.5 -12s-36.5 -4 -58.5 -4h-46v-845h48z" />
    <glyph glyph-name="backslash" unicode="\" horiz-adv-x="462" 
d="M16 717l60 26l370 -934l-59 -26z" />
    <glyph glyph-name="bracketright" unicode="]" horiz-adv-x="333" 
d="M108 700c-20.667 0.0107422 -39.667 1.34375 -57 4c-17.333 2.66699 -30.666 6.66699 -39.999 12v46h215v-969h-215v46c9.33301 6 22.666 10.167 39.999 12.5s37 3.5 59 3.5h46v845h-48z" />
    <glyph glyph-name="asciicircum" unicode="^" horiz-adv-x="583" 
d="M49 511c16 9.33301 34.666 20.668 55.999 34.001s43 27.5 65 42.5c22 15.002 43.667 30.335 65 46c21.334 15.667 40.001 30.167 56.001 43.5c16 -13.333 34.667 -27.833 56 -43.5c21.334 -15.667 43.167 -31 65.5 -46c22.334 -15.001 44.167 -29.168 65.5 -42.5
c21.334 -13.335 40.001 -24.668 56 -33.999l-24 -39c-44 23.333 -84.833 45.166 -122.499 65.499c-37.667 20.333 -69.834 39.166 -96.501 56.499c-26 -17.335 -57.833 -36.168 -95.5 -56.5c-37.667 -20.334 -78.5 -42.167 -122.5 -65.5z" />
    <glyph glyph-name="underscore" unicode="_" horiz-adv-x="486" 
d="M0 -106h486v-55h-486v55z" />
    <glyph glyph-name="grave" unicode="`" horiz-adv-x="535" 
d="M322 507c-17.333 16.668 -34.168 33.3359 -50.501 50.002c-16.333 16.667 -31.166 32.834 -44.499 48.5c-13.334 15.668 -24.667 30.835 -34 45.5c-9.33301 14.6689 -16 29.002 -20 43l59 34c13.333 -28.667 31 -59.334 53 -92.001s46.333 -66.334 73 -101.001z" />
    <glyph glyph-name="a" unicode="a" horiz-adv-x="508" 
d="M81 422c26.667 10.667 54.165 18.332 82.498 22.999s53.5 7 75.5 7c32 0 59 -3.5 81 -10.5s39.833 -17 53.5 -30c13.667 -13.001 23.5 -28.334 29.5 -46c6 -17.667 9 -36.834 9 -57.5v-229c0 -18.667 7 -28 21 -28c7.33496 0 15.002 1.5 23.001 4.5
c8 3 16 6.16699 24 9.5v-56c-9.33301 -6 -20.166 -10.833 -32.499 -14.5s-23.5 -5.5 -33.5 -5.5c-25.333 0 -43.5 6.5 -54.5 19.5s-17.5 28.5 -19.5 46.5c-16.667 -17.333 -37.667 -32.666 -63 -45.999s-56.333 -20 -93 -20c-46.667 0 -81.834 11.5 -105.501 34.5
s-35.5 52.167 -35.5 87.5c0 46 14.5 81 43.5 105s73.833 36 134.5 36c43.333 0 82.666 -3.66699 117.999 -11v56c-0.000976562 18 -2.83398 33 -8.49902 45c-5.66699 12 -13.334 21.5 -23 28.5c-9.66699 7 -21.167 11.833 -34.5 14.5s-28 4 -44 4
c-14.667 0 -28.667 -1 -42 -3s-25.666 -4.66699 -36.999 -8c-2 -24.667 -7.33301 -46 -16 -64h-53v108zM130.998 175.998c-8 -14 -11.998 -32.6641 -11.998 -55.9971c0 -16.667 5.66699 -32 17 -46s31.666 -21 60.999 -21c32 0 59.833 6.33301 83.5 19
s43.167 26.667 58.5 42v69c-18 4 -37.167 6.83301 -57.5 8.49902c-20.333 1.66797 -41.166 2.50098 -62.499 2.49902c-20.667 -0.000976562 -38.334 -1.66797 -53.001 -5.00098c-14.667 -3.33398 -26.334 -7.66699 -35.001 -13z" />
    <glyph glyph-name="b" unicode="b" horiz-adv-x="554" 
d="M21 691l146.995 -0.000976562v-307c18.667 20 40.834 36.333 66.501 49s53.834 19 84.501 19c31.334 0 58.501 -5.16699 81.501 -15.5s42 -24.5 57 -42.5s26.167 -39.333 33.5 -63.999c7.33496 -24.667 11.002 -51.334 11 -80.001
c0 -85.333 -21.833 -150.166 -65.499 -194.499c-43.667 -44.333 -105.834 -66.5 -186.501 -66.5c-12.667 0 -26.167 0.5 -40.5 1.5s-28.666 2.5 -42.999 4.5s-27.666 4.16699 -39.999 6.5s-22.833 4.83301 -31.5 7.5v618c-29.333 0.666992 -54 6.66699 -74 18v46z
M304.995 386.999c-28 0 -53.333 -6.00195 -76 -18.002s-43 -27.667 -61 -47v-260c15.333 -3.33301 30.333 -5.83301 45 -7.5s27.667 -2.5 39 -2.5c26 0 50.167 2.66699 72.5 8c22.334 5.33301 41.501 13.666 57.5 24.999c12.667 14.667 23.167 35.334 31.5 62.001
c8.33594 26.667 12.5029 58.334 12.5 95.001c-0.000976562 44 -9.83398 79.167 -29.5 105.5c-19.667 26.334 -50.167 39.501 -91.5 39.501z" />
    <glyph glyph-name="c" unicode="c" horiz-adv-x="489" 
d="M431 303l-53.999 -0.00390625c-11.333 24.667 -18 50 -20 76c-23.333 6 -49.666 9 -78.999 9c-14.667 0 -33 -2 -55 -6c-22 -4.00098 -40.333 -11.334 -55 -22c-9.33398 -10 -18.667 -28 -28 -54c-9.33398 -26 -14.001 -58 -14.001 -96
c0 -19.333 2.33301 -38.5 6.99902 -57.5c4.66699 -19 12.667 -36 24 -51s26.666 -27.167 45.999 -36.5s43.666 -14 72.999 -14c37.334 0 69.001 3.83301 95.001 11.5s46 14.834 60 21.501v-63c-12 -6 -31.667 -12.833 -59 -20.5s-61.333 -11.5 -102 -11.5
c-40 0 -74 5.66699 -102 17s-50.667 26.833 -68 46.5s-29.833 42.334 -37.5 68.001s-11.5 52.834 -11.5 81.501c0 78.667 20.5 140 61.5 184s99.5 66 175.5 66c60.667 -0.000976562 108.334 -7.33398 143.001 -21.999v-127z" />
    <glyph glyph-name="d" unicode="d" horiz-adv-x="559" 
d="M310 691h148v-608c0.00683594 -11.333 1.17383 -19.5 3.5 -24.5c2.33301 -5 7.83301 -7.5 16.5 -7.5c7.33398 0 15.167 1.5 23.499 4.5c8.33301 3 16.166 6.16699 23.499 9.5v-56c-9.33398 -6 -20.167 -10.833 -32.5 -14.5s-23.5 -5.5 -33.5 -5.5
c-26.667 0 -45.334 6.83301 -56 20.5c-10.667 13.667 -16.667 30.167 -18 49.5c-18.667 -21.333 -40.834 -38.333 -66.5 -51c-25.667 -12.667 -53.167 -19 -82.5 -19c-32 0 -59.667 5.16699 -83 15.5s-42.5 24.5 -57.5 42.5s-26.167 39.667 -33.5 65s-11 53 -11 83
c0 82.667 22 146.167 66 190.5c44 44.334 104 66.501 180 66.501c16.667 -0.00683594 32.334 -0.839844 47.001 -2.5c14.667 -1.67188 28.334 -3.50488 41.001 -5.5v183c-16 0.680664 -30 2.51367 -42 5.49902c-12 3 -23 7.16699 -33 12.5v46zM247 54
c28 0 53.498 6.16602 76.498 18.499s43.5 28.166 61.5 47.499v258c-14 3.33496 -28.667 6.00195 -44 8c-15.333 2 -31.666 3 -48.999 3c-22.667 0 -44.667 -2.66699 -66 -8s-39.666 -13.666 -54.999 -24.999c-13.333 -15.333 -24 -36.166 -32 -62.499s-12 -55.833 -12 -88.5
c0 -48 10 -85.167 30 -111.5s50 -39.5 90 -39.5z" />
    <glyph glyph-name="e" unicode="e" horiz-adv-x="520" 
d="M51 202c0 40 5.66309 75.6611 16.9961 106.994c11.333 31.334 27 57.501 47 78.501s43.667 37 71 48s57.333 16.5 90 16.5c25.333 0 49 -3 71 -9c22 -6.00098 41 -15.834 57 -29.499c16 -13.667 28.667 -31.5 38 -53.499c9.33496 -22 14.002 -49.333 14 -81.999
c-0.0136719 -12 -0.34668 -24.667 -0.999023 -38c-0.680664 -13.333 -1.34766 -23.666 -2 -30.999h-327c1.33301 -105.333 54.333 -158 159 -158c32 0 62.667 4.16699 92 12.5s53.333 17.166 72 26.499v-63c-15.333 -9.33301 -38.166 -18 -68.499 -26
s-66.166 -12 -107.499 -12c-40.667 0 -75.167 5.66699 -103.5 17s-51.166 26.833 -68.499 46.5s-30 42.334 -38 68.001s-12 52.834 -12 81.501zM167.996 360.994c-7.33398 -9.33301 -14.5 -21.834 -21.5 -37.501s-12.5 -34.834 -16.5 -57.5h250v16
c0 72.667 -36.667 109 -110 109c-19.333 0 -38.333 -2.66699 -57 -8s-33.667 -12.666 -45 -21.999z" />
    <glyph glyph-name="f" unicode="f" horiz-adv-x="325" 
d="M41 42c8 5.33301 18.001 9.1709 30.001 11.5039s25 3.83301 39 4.5v324h-77v43c7.33301 4.66699 17.166 8.5 29.499 11.5s28.166 4.5 47.499 4.5v60c0 67.333 16 117.166 48 149.499s78 48.5 138 48.5c13.333 -0.0214844 28.166 -0.688477 44.499 -2.00098
c16.334 -1.33301 29.167 -3.33301 38.5 -6v-127h-51c-5.33301 11.333 -9.33301 22.666 -12 33.999s-4.66699 24 -6 38c-4 0.686523 -8 1.01953 -12 1h-10c-17.333 0 -33.166 -1.83301 -47.499 -5.5s-26.166 -8.16699 -35.499 -13.5
c-7.33301 -10.667 -12.833 -26.334 -16.5 -47.001s-5.5 -42.667 -5.5 -66v-64h136v-59h-136v-324c16 0 31 -1.33301 45 -4s26.333 -6.66699 37 -12v-42h-224v42z" />
    <glyph glyph-name="g" unicode="g" horiz-adv-x="505" 
d="M240 129c-24.667 0 -47.6709 2.66406 -69.0039 7.99707c-10 -4.66699 -18.667 -11.167 -26 -19.5c-7.33398 -8.33301 -11.001 -18.166 -11.001 -29.499c0 -18.667 16 -28.334 48 -29.001c15.333 0 29.333 -0.166992 42 -0.5s24.834 -0.833008 36.501 -1.5
s23.334 -1.16699 35.001 -1.5s24.5 -0.833008 38.5 -1.5c86.667 -2.66699 130 -38 130 -106c0 -53.333 -21.667 -94.333 -65 -123s-102.333 -43 -177 -43c-28 -0.000976562 -53.833 2.33203 -77.5 7c-23.667 4.66602 -44.167 11.833 -61.5 21.5s-31 22 -41 37
s-15 33.167 -15 54.5c0 25.333 6.5 46.833 19.5 64.5s29.167 32.167 48.5 43.5c-10.667 7.33301 -18.334 16.333 -23.001 27s-7 22.667 -7 36c0 19.333 5.83301 36.333 17.5 51s25.167 26.334 40.5 35.001c-21.333 14 -36.833 31.667 -46.5 53s-14.5 44.666 -14.5 69.999
c0 22 3.33301 43.167 10 63.5c6.66699 20.334 17.5 38.501 32.5 54.501s34.333 28.667 58 38c23.667 9.33594 52.5 14.0029 86.5 14c26.667 0 50.334 -3.66699 71.001 -11h20c10 0.0136719 21.667 0.180664 35 0.500977c13.333 0.339844 26.833 1.00684 40.5 2
c13.667 1 26.667 2.33301 39 4c12.335 1.66699 22.168 3.5 29.499 5.5v-56c-7.33301 -4.66797 -15.666 -8.00098 -24.999 -9.99902c-9.33301 -2 -18.666 -3 -27.999 -3h-16c-5.33301 0.00585938 -13 0.672852 -23 2c21.334 -24.667 32.001 -55 32.001 -91
c0 -22.667 -3.66699 -44.167 -11 -64.5s-18.666 -38 -33.999 -53s-34.5 -26.833 -57.5 -35.5s-50.167 -13 -81.5 -13zM243.996 187.997c18.667 0 35.332 2.16699 49.999 6.5s26.334 9.5 35.001 15.5c8 8.66699 14.5 20.5 19.5 35.5s7.5 30.833 7.5 47.5
c0 28 -8.16699 51.667 -24.5 71c-16.333 19.334 -44.833 29.001 -85.5 29c-20 0 -37.333 -2.16699 -52 -6.5s-26.334 -9.16602 -35.001 -14.499c-9.33301 -10.667 -16.166 -24.167 -20.499 -40.5c-4.33398 -16.333 -6.50098 -30.833 -6.5 -43.5
c0 -34 9.66699 -59.167 29 -75.5c19.333 -16.334 47 -24.501 83 -24.501zM142.994 -7.00293c-11.333 -8 -20.833 -18.499 -28.5 -31.499s-11.5 -28.5 -11.5 -46.5c0 -12.667 3.83301 -23.5 11.5 -32.5s17.667 -16.333 30 -22s26 -9.83398 41 -12.501s29.833 -4 44.5 -4
c28.667 0 55.667 2 81 6s44.666 9.66699 57.999 17c6 7.33301 11 17.333 15 30s6 24.667 6 36c0 6 -0.666992 12 -2 18s-4.5 11.333 -9.5 16s-12.167 8.66699 -21.5 12s-21.666 5.33301 -36.999 6l-156 5z" />
    <glyph glyph-name="h" unicode="h" horiz-adv-x="570" 
d="M337 42c8.66699 5.33301 18.667 9.16602 30 11.499c11.334 2.33301 23.667 3.83301 37 4.5v242c-0.000976562 28.667 -7.83398 49.834 -23.5 63.501c-15.667 13.667 -37.5 20.5 -65.5 20.5c-21.333 0 -44.5 -5.5 -69.5 -16.5s-48.5 -27.167 -70.5 -48.5v-261
c13.333 -0.666992 25.833 -2.16699 37.5 -4.5s21.834 -6.16602 30.5 -11.499v-42h-211v42c8.66699 5.33301 19 9.16602 31 11.499s25 3.83301 39 4.5v569c-16 0.680664 -29.833 2.51367 -41.5 5.49902c-11.667 3 -22.5 7.16699 -32.5 12.5v46h147v-310
c21.333 20.667 45.333 37.667 72 51c26.667 13.334 55.334 20.001 86.001 20c42.667 0 77.334 -11.167 104.001 -33.5s40 -56.166 40 -101.499v-260c11.334 -0.666992 22.667 -2 33.999 -4c11.333 -2 21.666 -5.66699 30.999 -11v-42h-205v42z" />
    <glyph glyph-name="i" unicode="i" horiz-adv-x="283" 
d="M201 584c0 -16.001 -5.66699 -29.668 -17 -41c-11.333 -11.335 -25.666 -17.002 -42.999 -17c-17.333 0 -31.5 5.66699 -42.5 17s-16.5 25 -16.5 41c0 16.667 5.5 30.667 16.5 42s25.167 17 42.5 17c17.333 -0.00195312 31.666 -5.66895 42.999 -17
c11.333 -11.333 17 -25.333 17 -42zM39 441l143.999 -0.00195312v-383c27.333 -1.33301 49.666 -6.66602 66.999 -15.999v-42h-209v42c8 5.33301 18 9.16602 30 11.499s25 3.83301 39 4.5v319c-15.333 0.666992 -28.666 2.33398 -39.999 5.00098
s-21.666 6.33398 -30.999 11.001v48z" />
    <glyph glyph-name="j" unicode="j" horiz-adv-x="274" 
d="M194 584c0 -16.001 -5.66699 -29.668 -17 -41c-11.333 -11.335 -25.666 -17.002 -42.999 -17c-17.333 0 -31.5 5.66699 -42.5 17s-16.5 25 -16.5 41c0 16.667 5.5 30.667 16.5 42s25.167 17 42.5 17c17.333 -0.00195312 31.666 -5.66895 42.999 -17
c11.333 -11.333 17 -25.333 17 -42zM-21 -142c4 0.00390625 8 -0.163086 12 -0.500977c4 -0.329102 7.66699 -0.496094 11 -0.5c20 0 37.333 1.5 52 4.5s25.667 7.16699 33 12.5c5.33301 11.333 9.66602 27.833 12.999 49.5c3.33398 21.667 5.00098 45.167 5.00098 70.5v383
c-15.333 0.666992 -28.5 2.33398 -39.5 5.00098s-21.167 6.66699 -30.5 12v47h143v-440c-0.000976562 -39.333 -4.16797 -72.333 -12.501 -99s-20.166 -48.167 -35.499 -64.5s-33.833 -28 -55.5 -35s-46.167 -10.5 -73.5 -10.5h-10
c-3.33301 -0.00292969 -7.33301 0.330078 -12 1v65z" />
    <glyph glyph-name="k" unicode="k" horiz-adv-x="530" 
d="M32 42c8.66699 5.33301 19.001 9.16699 31.001 11.5s25 3.83301 39 4.5v569c-29.333 0.666992 -54 6.66699 -74 18v46h147v-634c19.333 -2 36.666 -7 51.999 -15v-42h-195v42zM192.001 250.001l152.997 132.998c-10 0.666992 -20.167 2.16699 -30.5 4.5
c-10.333 2.33594 -20.166 6.50293 -29.499 12.501v41h210v-41c-5.33301 -4 -13.666 -7.66699 -24.999 -11s-26.666 -5.66602 -45.999 -6.99902l-160 -138l192 -187c24.667 -0.666992 45 -5.66699 61 -15v-42h-210v42c14.667 7.33301 31.667 12 51 14l-166 164v30z" />
    <glyph glyph-name="l" unicode="l" horiz-adv-x="275" 
d="M32 42c8.66699 5.33301 19 9.16699 31 11.5s25 3.83301 39 4.5v569c-16 0.680664 -29.833 2.51367 -41.5 5.49902c-11.667 3 -22.5 7.16699 -32.5 12.5v46h147v-633c26.667 -1.33301 48.667 -6.66602 66 -15.999v-42h-209v42z" />
    <glyph glyph-name="m" unicode="m" horiz-adv-x="846" 
d="M41 42c17.333 9.33301 40.3379 14.666 69.0049 15.999v319h-7c-10.667 1.33496 -21.834 3.16797 -33.501 5.5c-11.667 2.33301 -21.167 5.83301 -28.5 10.5v48h122c4.66699 -7.33301 8.16699 -16.666 10.5 -27.999s3.83301 -23.333 4.5 -36c20.667 22 43.5 40 68.5 54
s52.833 21 83.5 21c32 0 58.833 -6.66699 80.5 -20s37.167 -32.333 46.5 -57c21.333 22.667 45.333 41.167 72 55.5c26.667 14.334 56 21.501 87.999 21.5c40.667 0 73.5 -11.667 98.499 -35c25 -23.333 37.5 -56 37.5 -98v-262c11.333 -0.666992 22.666 -2 33.999 -4
s21.666 -5.66699 30.999 -11v-42h-205v42c8.00391 5.33301 17.8369 9.16602 29.5 11.499c11.667 2.33301 24.167 3.83301 37.5 4.5v243c-0.00390625 28 -7.1709 48.833 -21.5 62.5c-14.335 13.667 -35.168 20.5 -62.5 20.5c-42 0 -84.667 -21.667 -128 -65v-261
c11.333 -0.666992 22.833 -2.16699 34.5 -4.5s22.167 -6.16602 31.5 -11.499v-42h-206v42c8.66699 5.33301 18.667 9.16602 30 11.499c11.334 2.33301 23.667 3.83301 37 4.5v243c0 28 -7.16699 48.833 -21.5 62.5s-34.833 20.5 -61.5 20.5
c-42.667 0 -85.667 -21.667 -129 -65v-261c26.667 -1.33301 49 -6.66602 67 -15.999v-42h-209v42z" />
    <glyph glyph-name="n" unicode="n" horiz-adv-x="578" 
d="M346 42c8.00098 5.33301 17.6631 9.16016 28.9961 11.4932c11.334 2.33301 23.667 3.83301 37 4.5v242c-0.000976562 28.667 -7.83398 49.834 -23.5 63.501c-15.667 13.667 -37.5 20.5 -65.5 20.5c-21.333 0 -44.5 -5.5 -69.5 -16.5s-48.5 -27.167 -70.5 -48.5v-261
c26.667 -1.33301 49 -6.66602 67 -15.999v-42h-209v42c17.333 9.33301 40.333 14.666 69 15.999v319h-4c-11.333 0.666992 -23.166 2.33398 -35.499 5.00098s-22.166 6.33398 -29.499 11.001v48h122c5.33301 -7.33301 9 -16.666 11 -27.999
c2.00098 -11.333 3.33398 -23.666 4 -36.999c21.333 21.333 45.833 39.333 73.5 54s57.834 22 90.501 22c42.667 0 77.167 -11.167 103.5 -33.5c26.334 -22.333 39.501 -56.166 39.501 -101.499v-259c11.333 -0.666992 22.833 -2.16699 34.5 -4.5
s22.167 -6.16602 31.5 -11.499v-42h-205v42z" />
    <glyph glyph-name="o" unicode="o" horiz-adv-x="549" 
d="M272 390c-22 -0.00195312 -42.834 -2.83496 -62.501 -8.5c-19.667 -5.66699 -34.167 -13.167 -43.5 -22.5c-10.667 -14.667 -19.834 -34.5 -27.501 -59.5s-11.5 -53.5 -11.5 -85.5c0 -56 13 -97.167 39 -123.5s62.667 -39.5 110 -39.5c20.667 0 40.834 2.66699 60.501 8
s35.167 12.666 46.5 21.999c12 16.667 21.5 37.834 28.5 63.501s10.5 54.167 10.5 85.5c0 53.333 -12.833 93.333 -38.499 120c-25.667 26.667 -62.834 40 -111.5 40zM51.999 206c0 34.667 4.83203 67 14.499 97s24 56 43 78s42.833 39.333 71.5 52s62.334 19 101.001 19
c36 0 67.333 -5.16699 94 -15.5s49 -24.833 67 -43.5s31.5 -41.167 40.5 -67.5s13.5 -55.833 13.5 -88.5c-0.00292969 -36.667 -4.83594 -70.167 -14.5 -100.5c-9.66699 -30.333 -24.334 -56.5 -44 -78.5c-19.667 -22 -43.834 -39 -72.5 -51c-28.667 -12 -62 -18 -100 -18
c-66 0 -118.167 18.167 -156.5 54.5s-57.5 90.5 -57.5 162.5z" />
    <glyph glyph-name="p" unicode="p" horiz-adv-x="560" 
d="M33 -165c8 5.33301 17.833 9.16602 29.5 11.499s24.5 3.83301 38.5 4.5v526h-7c-10.667 1.33496 -21.834 3.16797 -33.501 5.5c-11.667 2.33301 -21.167 5.83301 -28.5 10.5v48h122c5.33301 -7.33301 9 -16.5 11 -27.5c2.00098 -11 3.33398 -23.167 4 -36.5
c19.333 22 42 40 68 54s55.333 21 88 21c31.334 0 58.501 -5 81.501 -15s42 -24 57 -42s26.167 -39.5 33.5 -64.5c7.33496 -25 11.002 -52.5 11 -82.5c0 -84 -22.167 -148 -66.5 -192s-105.166 -66 -182.499 -66c-16 0 -31.167 0.833008 -45.5 2.5
s-27.5 3.83398 -39.5 6.50098v-148c37.333 0 65.666 -5.33301 84.999 -16v-42h-226v42zM268 52c21.333 0 42.833 2.66699 64.5 8s40.167 13.666 55.5 24.999c12.667 14.667 23.334 35.167 32.001 61.5s13 57.833 13 94.5c0 44.667 -10.167 80.167 -30.5 106.5
c-20.333 26.334 -51.5 39.501 -93.5 39.501c-26.667 0 -51.334 -6 -74.001 -18s-43 -27.667 -61 -47v-259c13.333 -3.33301 27.333 -6 42 -8s32 -3 52 -3z" />
    <glyph glyph-name="q" unicode="q" horiz-adv-x="553" 
d="M300 -165c18.667 10.667 46.998 16 84.998 16v207c-18.667 -20 -40.667 -36.5 -66 -49.5s-53.666 -19.5 -84.999 -19.5s-58.5 5 -81.5 15s-42 24.167 -57 42.5s-26.167 40.166 -33.5 65.499s-11 53 -11 83c0 82 21.833 145.333 65.5 190s103.834 67 180.501 67
c36 0 67.667 -2.16699 95 -6.5s49.333 -9.16602 66 -14.499v-580c14 -0.666992 26.833 -2.16699 38.5 -4.5s21.5 -6.16602 29.5 -11.5v-42h-226v42zM247.998 54c28 0 53.333 6.16797 76 18.501s43 28.166 61 47.499v257c-14.667 3.33496 -29.667 6.16797 -45 8.5
c-15.333 2.3418 -32 3.50879 -50 3.5c-21.333 0 -42.5 -2.5 -63.5 -7.5s-39.5 -13.167 -55.5 -24.5c-12 -14.667 -22.333 -34.834 -31 -60.5c-8.66699 -25.667 -13 -56.5 -13 -92.5c0 -48 10.167 -85 30.5 -111s50.5 -39 90.5 -39z" />
    <glyph glyph-name="r" unicode="r" horiz-adv-x="409" 
d="M39 42c17.333 9.33301 40.3301 14.6641 68.9971 15.9971v319h-7c-11.333 1.33496 -22.666 3.16797 -33.999 5.5c-11.333 2.33301 -20.666 5.83301 -27.999 10.5v48h122c5.33301 -7.33301 9 -17.166 11 -29.499c2.00098 -12.333 3.33398 -25.833 4 -40.5v-7
c20.667 25.334 43.667 45.501 69 60.501s54.333 22.5 87 22.5c8 0 17 -0.5 27 -1.5s18.333 -2.5 25 -4.5v-121h-53c-8.66699 16 -14 35.667 -15.999 59h-2c-48 0 -92 -25.333 -132 -75.999v-245h2c14 0 28.5 -1.16699 43.5 -3.5s27.833 -6.5 38.5 -12.5v-42h-226v42z" />
    <glyph glyph-name="s" unicode="s" horiz-adv-x="453" 
d="M386 324l-54.001 -0.00683594c-4.00098 9.33398 -7.33398 18.667 -9.99902 28c-2.66699 9.33301 -4.66699 19.333 -6 30c-11.333 2 -23.166 3.83301 -35.499 5.5s-25.166 2.5 -38.499 2.5c-18 0 -36.667 -1.66699 -56 -5s-34.666 -8.66602 -45.999 -15.999
c-2.00098 -6 -3.66797 -13.167 -5.00098 -21.5c-1.33398 -8.33301 -2.00098 -15.166 -2 -20.499c0 -8.66699 1 -15.834 3 -21.5c2 -5.66699 6.83301 -11.167 14.499 -16.5c7.66699 -5.33301 18.667 -10.666 33 -15.999s34.166 -11.666 59.499 -18.999
c32 -10 58.333 -19.167 79 -27.5c20.667 -8.33398 37 -17.167 49 -26.5s20.333 -20 25 -32s7 -26.667 7 -44c0 -41.333 -15.5 -74.166 -46.5 -98.499s-81.833 -36.5 -152.5 -36.5c-6 0 -14.833 0.333008 -26.5 1s-24.5 1.66699 -38.5 3s-28.333 3.5 -43 6.5
s-28 6.5 -40 10.5v118h54c4.66699 -10 8.33398 -20.667 11.001 -32s4.66699 -23 6 -35c12 -3.33301 25.5 -5.83301 40.5 -7.5s30.167 -2.5 45.5 -2.5c24.667 0 47 1.83301 67 5.5s35.667 9.16699 47 16.5c2 6 3.5 12.833 4.5 20.5s1.5 13.834 1.5 18.501
c0 8 -1.16699 15.167 -3.5 21.5s-7.33301 12.5 -15 18.5s-18.667 11.833 -33 17.5s-33.5 11.834 -57.5 18.5c-30.667 8.66699 -56.334 16.667 -77.001 24s-37.167 15.5 -49.5 24.5s-21 19.5 -26 31.5s-7.5 27 -7.5 45c0 42 15.167 75.667 45.5 101
c30.333 25.334 76.5 38.001 138.5 38.001c31.333 -0.00488281 58.333 -1.83789 81 -5.49902c22.667 -3.66797 41.667 -7.83496 57 -12.501v-110z" />
    <glyph glyph-name="t" unicode="t" horiz-adv-x="344" 
d="M171 382v-269c0 -23.333 4.83301 -39.666 14.499 -48.999c9.66699 -9.33301 23.167 -14 40.5 -14c13.333 0 27.5 1.66699 42.5 5s28.167 7.66602 39.5 12.999v-60c-9.33301 -4.66699 -23.166 -9 -41.499 -13s-35.833 -6 -52.5 -6c-16 0 -31 1.66699 -45 5
s-26.333 9.33301 -37 18s-19 20.167 -25 34.5s-9 32.5 -9 54.5v281h-75v43c7.33301 4 16.833 7.5 28.5 10.5s27.167 4.83301 46.5 5.5v102l73 12v-114h131v-59h-131z" />
    <glyph glyph-name="u" unicode="u" horiz-adv-x="564" 
d="M24 441l143.003 -0.00195312v-300c0 -30 8.16699 -51.667 24.5 -65s35.166 -20 56.499 -20c28.667 0 55.167 6.33301 79.5 19c24.334 12.667 45.167 27.667 62.5 45v260c-13.333 0.00585938 -25.833 1.17285 -37.5 3.5c-11.667 2.33496 -22.167 6.16797 -31.5 11.5v46
h142v-358c0.0107422 -11.333 1.17773 -19.5 3.5 -24.5c2.33301 -5 7.83301 -7.5 16.5 -7.5c7.33398 0 15.167 1.5 23.5 4.5s16.166 6.16699 23.499 9.5v-56c-9.33398 -6 -20.167 -10.833 -32.5 -14.5s-23.5 -5.5 -33.5 -5.5c-26 0 -44.5 6.83301 -55.5 20.5
s-17.167 29.834 -18.5 48.501c-20.667 -21.333 -45 -38.166 -73 -50.499s-55.667 -18.5 -83 -18.5c-18.667 0 -36.5 2.33301 -53.5 7s-31.833 12.5 -44.5 23.5s-22.834 25.333 -30.501 43s-11.5 39.5 -11.5 65.5v252c-14 0.00585938 -26.833 1.17285 -38.5 3.5
c-11.667 2.33496 -22.167 6.16797 -31.5 11.5v46z" />
    <glyph glyph-name="v" unicode="v" horiz-adv-x="532" 
d="M64 383c-13.333 1.33594 -25.332 3.1709 -35.999 5.50098c-10.667 2.33301 -19.667 5.83301 -27 10.5v42h208v-42c-9.33301 -5.33301 -20 -9 -32 -11s-23.667 -3.66699 -35 -5l131 -313l131 313c-12 1.33594 -23.5 3.16895 -34.5 5.49902
c-11 2.33301 -20.5 5.83301 -28.5 10.5v42h190v-42c-8.66699 -5.33301 -18.834 -9 -30.501 -11s-23.5 -3.66699 -35.5 -5l-161 -383h-77z" />
    <glyph glyph-name="w" unicode="w" horiz-adv-x="742" 
d="M70 383c-26.667 2 -46.999 7.33105 -60.999 15.998v42h202v-42c-9.33301 -5.33301 -20 -9.16602 -32 -11.499s-23.667 -3.83301 -35 -4.5l89 -308l110 348h69l110 -349l90 309c-26.001 2 -47.668 7.33301 -65.001 16v42h185v-42c-8 -4.66699 -17.333 -8.16699 -28 -10.5
s-21.667 -4.16602 -33 -5.49902l-114 -383h-79l-107 333l-106 -333h-80z" />
    <glyph glyph-name="x" unicode="x" horiz-adv-x="542" 
d="M9 0l0.000976562 41.999c16 8.66699 38 13.667 66 15l148 170l-132 156c-10.667 1.33594 -21.167 3.16895 -31.5 5.49902c-10.333 2.33301 -19.833 5.83301 -28.5 10.5v42h201v-42c-7.33398 -4 -15.501 -7.16699 -24.501 -9.5s-18.167 -4.16602 -27.5 -5.49902l93 -111
l97 111c-9.33301 1.33594 -18.333 3.16895 -27 5.49902c-8.66699 2.33496 -16.334 5.50195 -23 9.5v42h186v-42c-8.66797 -5.33301 -18.835 -9 -30.501 -11c-11.667 -2 -23.167 -3.66699 -34.5 -5l-127 -145l151 -180c10.667 -0.666992 22.334 -2.16699 35.001 -4.5
s23.667 -6.16602 33 -11.499v-42h-210v42c14.001 8 31.668 13 53.001 15l-113 134l-116 -134c10 -1.33301 20 -3.16602 30 -5.49902s19.333 -5.5 27.999 -9.5v-42h-196z" />
    <glyph glyph-name="y" unicode="y" horiz-adv-x="530" 
d="M26 -91l51 0.00195312c5.33301 -10.667 9.33301 -20.5 12 -29.5s4.66699 -19.5 6 -31.5c10.667 1.33301 21.667 4.5 33 9.5s23 13 35 24s24.167 25.5 36.5 43.5s24.833 40.667 37.5 68l1 4l-170 386c-13.333 1.33594 -25.5 3.16895 -36.5 5.49902
c-11 2.33301 -20.167 5.83301 -27.5 10.5v42h206v-42c-9.33398 -5.33301 -19.667 -9 -31 -11c-11.334 -2 -22.667 -3.66699 -34 -5l130 -300l127 300c-12.667 1.33594 -24.5 3.16895 -35.5 5.49902c-11.001 2.33301 -20.834 5.83301 -29.5 10.5v42h190v-42
c-8.00195 -4.66699 -17.835 -8.16699 -29.5 -10.5c-11.667 -2.33301 -23.167 -4.16602 -34.5 -5.49902l-174 -404c-26.667 -62 -58.167 -109 -94.5 -141s-81.5 -48 -135.5 -48c-3.33301 0 -8.33301 0.166992 -15 0.5s-12.667 1.16602 -18 2.49902v116z" />
    <glyph glyph-name="z" unicode="z" horiz-adv-x="491" 
d="M432 441v-45.002l-297 -342h233c2 28.667 8.33301 54 19 76h54v-130h-400v46l296 341h-209c-1.33301 -13.333 -3.33301 -26.166 -6 -38.499s-6.66699 -24.166 -12 -35.499h-54v128h376z" />
    <glyph glyph-name="braceleft" unicode="{" horiz-adv-x="346" 
d="M45 308c18 0.000976562 32.668 2.66797 44.001 8c11.333 5.33398 20 12.167 26 20.5c6 8.33398 10.167 18.001 12.5 29c2.33301 11 3.5 22.5 3.5 34.5c0 13.334 -0.333008 30.667 -1 52c-0.666992 21.334 -1.33398 43.501 -2.00098 66.501
c-0.667969 23 -1.33496 45.167 -2.00098 66.5c-0.667969 21.333 -1.00098 38.666 -1 51.999c0 24.6689 3 45.002 9 61c6 16.001 15 28.834 27 38.499c12 9.66992 26.667 16.3369 44 20.001c17.333 3.68359 37.333 5.5166 60 5.49902h68v-46
c-11.333 -5.33301 -24 -8.83301 -38 -10.5s-31.333 -3.16699 -51.999 -4.5c-18 -1.33887 -30.333 -7.17188 -37 -17.5c-6.66699 -10.335 -10 -24.502 -10 -42.501c0 -14.667 0.166992 -32.667 0.5 -54c0.333008 -21.334 0.833008 -43.167 1.5 -65.5s1.16699 -43.333 1.5 -63
s0.5 -35.167 0.5 -46.5c0 -13.333 -0.833008 -26.666 -2.5 -39.999s-5.16699 -26 -10.5 -38s-13.166 -22.833 -23.499 -32.499c-10.333 -9.66699 -23.833 -17.5 -40.5 -23.499c16.667 -6 30.167 -14 40.5 -24s18.166 -21 23.499 -33s8.83301 -24.667 10.5 -38
c1.66797 -13.333 2.50098 -26.666 2.49902 -39.999c-0.00585938 -11.334 -0.172852 -26.834 -0.5 -46.5c-0.333008 -19.667 -0.833008 -40.667 -1.5 -63s-1.16699 -44.166 -1.5 -65.499c-0.338867 -21.333 -0.505859 -39.333 -0.5 -54c0 -18 3.33301 -32.167 9.99902 -42.5
c6.66699 -10.333 19 -16.166 37 -17.499c20.667 -0.666992 38 -1.83398 52 -3.50098s26.667 -5.16699 38 -10.5v-47h-68c-22.667 -0.000976562 -42.667 1.83203 -60 5.49902c-17.333 3.66602 -32 10.333 -44 20s-21 22.5 -27 38.5s-9 36.333 -9 61
c0 13.333 0.333008 30.666 1 51.999s1.33398 43.5 2.00098 66.5c0.670898 23 1.33789 45.167 2.00098 66.5c0.668945 21.333 1.00195 39 1 53c-0.000976562 12 -1.16797 23.5 -3.5 34.5c-2.33301 11 -6.5 20.667 -12.5 29s-14.667 15.166 -26 20.499s-26 8 -44 8v60z" />
    <glyph glyph-name="bar" unicode="|" horiz-adv-x="257" 
d="M95 732h67v-932h-67v932z" />
    <glyph glyph-name="braceright" unicode="}" horiz-adv-x="346" 
d="M301 247c-18 0 -32.498 -2.66309 -43.498 -7.99609c-11 -5.33398 -19.667 -12.167 -26 -20.5c-6.33398 -8.33398 -10.501 -18.001 -12.5 -29.001c-2 -11 -3 -22.5 -3 -34.5c0.00292969 -13.333 0.335938 -30.666 0.999023 -51.999
c0.666992 -21.333 1.16699 -43.5 1.5 -66.5s0.833008 -45.167 1.5 -66.5c0.669922 -21.333 1.00293 -38.666 1 -51.999c0 -24.667 -3 -45 -9 -61s-15 -28.833 -27 -38.5s-26.667 -16.334 -44 -20.001s-37.333 -5.5 -60 -5.5h-68v47c11.333 5.33301 24 8.83301 38 10.5
c14 1.66602 31.333 2.83301 52 3.50098c18 1.33301 30.333 7.16602 37 17.499s10 24.5 10 42.5c-0.00488281 14.667 -0.171875 32.667 -0.500977 54c-0.333008 21.333 -0.833008 43.166 -1.5 65.499s-1.16699 43.333 -1.5 63c-0.337891 19.667 -0.504883 35.167 -0.5 46.5
c0.000976562 13.333 0.833984 26.666 2.5 39.999c1.66699 13.333 5 26 10 38s12.5 22.833 22.5 32.5s23.667 17.5 41 23.5c-17.333 6 -31 14 -41 24s-17.5 21 -22.5 33s-8.33301 24.667 -10 38c-1.66699 13.334 -2.5 26.667 -2.5 40c0 10.667 0.166992 26 0.5 46
s0.833008 41.167 1.5 63.5s1.16699 44.166 1.5 65.499s0.5 39.333 0.5 54c0 18 -3.33301 32.167 -10 42.5s-19 16.166 -37 17.499c-20.667 1.33301 -38 2.83301 -52 4.5s-26.667 5.16699 -38 10.5v46h68c22.667 0 42.667 -1.83301 60 -5.5s32 -10.334 44 -20.001
s21 -22.5 27 -38.5s9 -36.333 9 -61c0 -13.334 -0.333008 -30.667 -1 -52c-0.666992 -21.334 -1.16699 -43.501 -1.5 -66.5c-0.333008 -23 -0.833008 -45.167 -1.5 -66.5s-1 -39 -1 -53c0 -12 1 -23.5 3 -34.5s6.16699 -20.667 12.5 -29s15 -15.166 26 -20.499
s25.5 -8 43.5 -8v-60z" />
    <glyph glyph-name="asciitilde" unicode="~" horiz-adv-x="595" 
d="M147 241c-7.33398 -7.33301 -13.1689 -16.835 -17.502 -28.502s-7.5 -22.167 -9.5 -31.5h-57c0 38.667 8.5 68.667 25.5 90c17 21.334 42.5 32.001 76.5 32.001c20 -0.000976562 43 -2.83398 69 -8.49902c26 -5.66699 52.167 -11.667 78.5 -18
c26.334 -6.33301 51.501 -12.333 75.501 -18s44 -8.5 60 -8.5c13.335 13.333 22.002 33.333 26.001 60h57c0 -36 -7.83301 -65.167 -23.5 -87.5s-43.167 -33.5 -82.5 -33.5c-19.333 0 -41.333 2.66699 -66 8s-49.834 11.333 -75.5 18c-25.667 6.66699 -50.5 12.667 -74.5 18
s-44.667 8 -62 8z" />
    <glyph glyph-name="uni00A0" unicode="&#xa0;" horiz-adv-x="197" 
 />
    <glyph glyph-name="exclamdown" unicode="&#xa1;" horiz-adv-x="241" 
d="M164 -207h-90l18 471h57zM61 390c0 18 5.83301 32.8301 17.5 44.4971s26.167 17.5 43.5 17.5c17.333 -0.000976562 32 -5.83398 44 -17.5c12 -11.667 18 -26.5 18 -44.499c0 -17.333 -6 -31.666 -18 -42.999s-26.667 -17 -44 -17
c-17.333 0.000976562 -31.833 5.66797 -43.5 17.001c-11.667 11.334 -17.5 25.667 -17.5 43z" />
    <glyph glyph-name="cent" unicode="&#xa2;" horiz-adv-x="512" 
d="M448 317h-55.0029c-6.00195 12 -10.335 24.333 -12.999 37c-2.66699 12.667 -4.66699 26.334 -6 41.001c-12.667 3.33301 -25.834 5.83301 -39.5 7.5c-13.667 1.66699 -27.167 2.5 -40.5 2.5c-26 -0.00488281 -49.667 -2.33789 -71 -7
c-21.334 -4.66699 -40.667 -12.667 -58 -24c-11.333 -14.667 -20.833 -36 -28.5 -64s-11.5 -58 -11.5 -90c0 -22.667 2.5 -44.167 7.5 -64.5s13.667 -38.333 26 -54s28.666 -28 48.999 -37s45.833 -13.5 76.5 -13.5c36 0 68.333 3.66699 97 11s51 14.666 67 21.999v-65
c-9.33301 -4.66699 -25.666 -10.334 -48.999 -17.001s-53.666 -10.667 -90.999 -12v-89h-58v89c-36 2.66699 -66.667 10 -92 22s-46 27.667 -62 47s-27.667 41.833 -35 67.5s-11 53.5 -11 83.5c0 80.667 18.667 141.834 56 183.501s87.333 66.167 150 73.5v91h58v-89
c26.667 -1.33301 51.834 -4 75.501 -8c23.667 -4.00098 43.167 -9.33398 58.5 -16v-128z" />
    <glyph glyph-name="sterling" unicode="&#xa3;" horiz-adv-x="539" 
d="M47 0v43.002c7.33301 5.33301 18.166 9.33301 32.499 12s28.833 4.33398 43.5 5.00098v233h-83v55h83v48c0 34 4 67.167 12 99.5s21.333 61 40 86s43.334 45.167 74.001 60.5s68.667 23 114 23c25.334 0 47.167 -0.833008 65.5 -2.5s34.833 -3.83398 49.5 -6.50098v-140
h-50c-11.333 20.667 -18 47.334 -20 80c-7.33301 0.666992 -15.333 1.16699 -24 1.5s-16.667 0.5 -24 0.5c-17.333 -0.0185547 -35.666 -1.18555 -54.999 -3.50098c-19.333 -2.33789 -36.666 -7.1709 -51.999 -14.5c-6 -6 -12.333 -13.833 -19 -23.5
s-12.834 -21.834 -18.501 -36.501s-10.334 -32 -14.001 -52s-5.5 -43.333 -5.5 -69.999v-50h161v-55h-161v-233h229v1c0 18 1.5 36.667 4.5 56s8.5 35.666 16.5 48.999h48v-166h-447z" />
    <glyph glyph-name="currency" unicode="&#xa4;" horiz-adv-x="523" 
d="M264 50c-46 0 -84.0029 11.332 -114.003 33.999l-61 -62l-35 36l63 62c-19.333 28.667 -29 62.334 -29 101.001c0 19.333 2 37.5 6 54.5s10.667 32.833 20 47.5l-61 60l37 37l57 -59c14.667 12 31.834 21.5 51.501 28.5s42.167 10.5 67.5 10.5
c23.334 0 44.501 -3 63.501 -9s35.833 -14.667 50.5 -26l53 55l37 -36l-56 -55c19.334 -29.333 29.001 -63 29 -101c0 -43.333 -11.333 -80.333 -33.999 -111l61 -59l-36 -36l-60 61c-29.333 -22 -66 -33 -110 -33zM388.997 224.999c0 38 -10.501 68.665 -31.501 91.998
c-21 23.334 -52.167 35.001 -93.5 35.001c-19.333 0 -36 -2.16699 -50 -6.5s-26.667 -9.83301 -38 -16.5c-12 -12 -20.833 -27.833 -26.5 -47.499c-5.66699 -19.667 -8.5 -38.5 -8.5 -56.5c0 -40 11.167 -71.167 33.5 -93.5s52.833 -33.5 91.5 -33.5
s68.834 10.833 90.501 32.5s32.5 53.167 32.5 94.5z" />
    <glyph glyph-name="yen" unicode="&#xa5;" horiz-adv-x="630" 
d="M70 416l119.001 0.00195312l-106 179c-14.667 0.675781 -28.834 2.34277 -42.501 5c-13.667 2.66699 -24.167 6.66699 -31.5 12v42h233v-42c-7.33301 -5.33301 -18 -9.33301 -32 -12s-28.667 -4.33398 -44 -5.00098l158 -271l156 271c-15.333 0 -29.833 1.5 -43.5 4.5
s-24.834 7.16699 -33.5 12.5v42h218v-42c-8.66699 -5.33301 -19.667 -9.33301 -33 -12c-13.334 -2.66699 -27.001 -4.33398 -41 -5.00098l-106 -179h117v-55h-150l-51 -86h201v-55h-205v-161h3c15.333 0 30.833 -1.33301 46.5 -4s28.167 -7 37.5 -13v-42h-248v42
c8.66699 6 20.834 10.333 36.5 13c15.667 2.66699 31.5 4 47.5 4h3v161h-209v55h203l-51 86h-152v55z" />
    <glyph glyph-name="brokenbar" unicode="&#xa6;" horiz-adv-x="257" 
d="M95 185h67v-385h-67v385zM95 732h67v-385h-67v385z" />
    <glyph glyph-name="section" unicode="&#xa7;" horiz-adv-x="550" 
d="M101 9l51.9961 0.000976562c12 -22 19 -49.333 21 -82c11.333 -2.66699 24.833 -5 40.5 -7s30.167 -3 43.5 -3c23.333 0 46.5 2.5 69.5 7.5s41.833 12.833 56.5 23.5c4 8.66699 7 19.334 9 32.001s3 24.667 3 36c0 12 -2.66699 22 -8 30s-13.833 15 -25.5 21
s-26.5 11.667 -44.5 17s-39.667 11.333 -65 18c-33.333 8.66699 -62 16.667 -86 24s-43.667 15.5 -59 24.5s-26.666 19.833 -33.999 32.5s-11 28.334 -11 47.001c0 10.667 1.33301 21.167 4 31.5c2.66699 10.334 6.16699 20.001 10.5 29c4.33301 9 8.83301 17 13.5 24
s9 12.833 13 17.5h67c-7.33301 -9.33301 -14.833 -22.166 -22.5 -38.499s-11.5 -31.833 -11.5 -46.5c0 -11.334 2.66699 -20.501 8 -27.501s13.833 -13.333 25.5 -19s26.167 -11 43.5 -16s38 -10.5 62 -16.5c34.667 -9.33301 64.334 -17.833 89.001 -25.5
s44.834 -16.334 60.501 -26.001s27 -21.334 34 -35.001s10.5 -31.5 10.5 -53.5c0 -18 -3 -37.333 -9 -58s-17 -39.667 -33 -57s-38 -31.833 -66 -43.5s-64.333 -17.5 -108.999 -17.5c-32 -0.000976562 -61.5 1.83203 -88.5 5.5c-27 3.66602 -48.167 8.49902 -63.5 14.499
v137zM448.996 509.001l-52.0068 -0.00292969c-12 21.333 -18.667 48.333 -20 81c-11.333 2.67578 -24.833 5.00879 -40.5 7c-15.667 2 -30.5 3 -44.5 3c-23.333 0 -46.5 -2.5 -69.5 -7.5s-41.833 -12.5 -56.5 -22.5c-4 -9.33398 -7 -20.167 -9 -32.499
c-2 -12.334 -3 -24.501 -3 -36.5c0 -13.333 3.5 -24.166 10.5 -32.499s16.833 -15.5 29.499 -21.5c12.667 -6.00098 27.834 -11.334 45.501 -16c17.667 -4.66797 37.167 -10.001 58.5 -16c33.334 -9.33301 62.001 -17.833 86.001 -25.5
c24.001 -7.66699 43.668 -16 59.001 -24.999c15.334 -9 26.501 -19.5 33.501 -31.5s10.5 -27 10.5 -45c-0.00195312 -23.333 -4.83496 -44 -14.5 -62c-9.66699 -18 -18.167 -31.667 -25.5 -41h-68c7.33301 9.33301 14.833 22.333 22.5 39s11.5 32.667 11.5 48
c0 10.667 -3.16699 19.667 -9.5 27s-15.333 13.833 -27 19.5s-26 10.834 -42.999 15.501c-17 4.66699 -36.167 9.66699 -57.5 15c-32 8 -60.167 15.5 -84.5 22.5s-44.666 15.333 -60.999 25s-28.666 21.667 -36.999 36c-8.33301 14.334 -12.5 33.167 -12.5 56.5
c0 18.001 2.83301 37.334 8.5 57.999c5.66699 20.6689 16.5 39.8359 32.5 57.5c16 17.667 38.167 32.167 66.5 43.5s64.833 17 109.5 17c31.334 0 60.501 -1.83301 87.501 -5.5s48.167 -8.16699 63.5 -13.5v-137z" />
    <glyph glyph-name="dieresis" unicode="&#xa8;" horiz-adv-x="535" 
d="M230 582c0 -13.333 -4.66699 -24.832 -14 -34.499s-21.666 -14.5 -36.999 -14.5c-15.333 0.00585938 -27.5 4.83887 -36.5 14.499c-9 9.66699 -13.5 21.167 -13.5 34.5c0 14.001 4.5 25.834 13.5 35.5c9 9.67188 21.167 14.5049 36.5 14.5
c15.333 0 27.666 -4.83301 36.999 -14.5s14 -21.5 14 -35.5zM405 582.001c0 -13.333 -4.66797 -24.8311 -14.001 -34.498s-21.666 -14.5 -36.999 -14.5c-15.333 0.00585938 -27.5 4.83887 -36.5 14.499c-9 9.66699 -13.5 21.167 -13.5 34.5c0 14.001 4.5 25.834 13.5 35.499
c9 9.67188 21.167 14.5049 36.5 14.5c15.334 0 27.667 -4.83301 37 -14.5c9.33496 -9.66699 14.002 -21.5 14 -35.5z" />
    <glyph glyph-name="copyright" unicode="&#xa9;" horiz-adv-x="561" 
d="M515 230c0 -32 -4.99805 -62.5029 -14.998 -91.5029s-25 -54.667 -45 -77s-44.833 -40 -74.499 -53c-29.667 -13 -63.834 -19.5 -102.501 -19.5c-36.667 0 -69.334 5.83301 -98.001 17.5s-52.834 27.5 -72.501 47.5s-34.667 43.667 -45 71s-15.5 57 -15.5 89
c0 32.667 5.16699 63.334 15.5 92.001s25.5 53.834 45.5 75.501s44.833 38.834 74.5 51.501s64.167 19 103.5 19c36.667 -0.000976562 69.167 -5.83398 97.5 -17.5c28.334 -11.667 52.167 -27.667 71.5 -48c19.334 -20.333 34.167 -44 44.5 -71
c10.3359 -27 15.5029 -55.5 15.5 -85.5zM468.002 226.997c-0.00292969 26 -4.33691 50.166 -13.001 72.499c-8.66699 22.334 -21 41.667 -37 58c-16 16.334 -35.667 29.167 -59 38.5c-23.333 9.33594 -49.333 14.0029 -78 14.001c-19.333 -0.00488281 -40 -2.33789 -62 -7
c-22 -4.66699 -41.333 -12.667 -58 -24c-23.333 -19.333 -40.5 -43.333 -51.5 -72s-16.5 -58 -16.5 -88c0 -28 4.5 -53.667 13.5 -77s21.667 -43.166 38 -59.499s36 -29 59 -38s48.833 -13.5 77.5 -13.5c28 0 53.5 4.66699 76.5 14s42.667 22.5 59 39.5
c16.334 17 29.001 37.667 38.001 62s13.5 51.166 13.5 80.499zM362.001 261.996l-32.001 -0.00488281c-2.66699 4.00098 -4.66699 9.66797 -6 17.001c-1.33301 7.33398 -2.33301 13.667 -3 19c-14.667 3.33594 -27.334 5.00293 -38 5.00098
c-13.333 0 -24.5 -1.16699 -33.5 -3.5s-16.167 -5.16602 -21.5 -8.49902c-4.66699 -9.33301 -8.33398 -19.833 -11.001 -31.5s-4 -25.167 -4 -40.5c0 -21.333 5.83301 -39.166 17.499 -53.499c11.667 -14.333 29.834 -21.5 54.501 -21.5
c14.667 0.000976562 28.834 1.83398 42.501 5.5c13.667 3.66699 25.167 7.83398 34.5 12.5v-38c-9.33301 -5.33301 -21.166 -9.66602 -35.499 -12.999s-28.833 -5 -43.5 -5c-21.333 0 -39.166 3 -53.499 9c-14.334 6 -26.167 14 -35.5 24
c-9.33398 10 -16.001 21.667 -20.001 35s-6 27.333 -6 42c0 38.667 10.333 69.5 31 92.5s50 34.5 88 34.5c15.333 -0.00292969 29.333 -1.33594 42 -4c12.667 -2.66699 23.667 -6.33398 33 -11v-66z" />
    <glyph glyph-name="ordfeminine" unicode="&#xaa;" horiz-adv-x="347" 
d="M263 393c-14.667 0 -25.501 3.3291 -32.501 9.99609s-11.5 15 -13.5 25c-11.333 -10.001 -24.5 -18.334 -39.5 -24.999c-15 -6.66797 -31.833 -10.001 -50.5 -9.99902c-24.667 0.000976562 -44 6.16797 -58 18.501c-14 12.334 -21 29.501 -21 51.501
c0 28 9.16699 48.5 27.5 61.5s43.5 19.5 75.5 19.5c9.33301 0 19.666 -0.333008 30.999 -1s22.666 -2 33.999 -4v30c0 20.668 -5.66699 34.335 -17 41c-11.333 6.67188 -24.666 10.0049 -39.999 10c-6.66699 -0.0185547 -14.167 -0.685547 -22.5 -2
c-8.33301 -1.34277 -16.5 -3.00977 -24.5 -5c-1.33301 -13.334 -4.33301 -25.001 -9 -35h-36v65c17.333 6.66699 35.5 11.167 54.5 13.5s33.167 3.5 42.5 3.5c34.667 0 59.667 -7.33301 75 -22s23 -35.667 23 -63v-124c0.00195312 -12.668 4.66895 -19.001 14.001 -19
c7.33398 0 15.667 2.33301 25 7v-36c-6.00098 -3.33301 -12.334 -5.83301 -19 -7.5c-6.66699 -1.67285 -13 -2.50586 -18.999 -2.5zM51.999 348.996h238v-40h-238v40zM136.999 434.996c14 0.00195312 28.002 2.66797 42.002 8c14 5.33398 26.333 12.667 37 22v37
c-10 1.34473 -21.167 2.51172 -33.5 3.5c-12.333 1 -23.5 1.5 -33.5 1.5c-7.33301 -0.0078125 -15.333 -0.84082 -24 -2.5c-8.66699 -1.66699 -15.334 -4.16699 -20.001 -7.5c-2.66699 -4 -4.5 -8.5 -5.5 -13.5c-1 -5.00195 -1.5 -9.83496 -1.5 -14.5
c0 -12 3.66699 -20.667 11 -26s16.666 -8 27.999 -8z" />
    <glyph glyph-name="guillemotleft" unicode="&#xab;" horiz-adv-x="553" 
d="M247 426l34 -33l-142 -168l142 -168l-34 -33l-206 201zM462 426l34 -33l-142 -168l142 -168l-34 -33l-206 201z" />
    <glyph glyph-name="logicalnot" unicode="&#xac;" horiz-adv-x="680" 
d="M132 337h416v-235h-63v175h-353v60z" />
    <glyph glyph-name="uni00AD" unicode="&#xad;" horiz-adv-x="329" 
d="M44 287h241v-64h-241v64z" />
    <glyph glyph-name="registered" unicode="&#xae;" horiz-adv-x="445" 
d="M404 487c0 -25.333 -4.00098 -49.332 -12.001 -71.999s-19.667 -42.5 -35 -59.499c-15.333 -17 -34.5 -30.667 -57.5 -41s-49.5 -15.5 -79.5 -15.5c-28 0 -53 4.5 -75 13.5s-40.667 21.5 -56 37.5s-27 34.667 -35 56s-12 44.333 -12 69s4 48.167 12 70.5s19.667 42 35 59
c15.333 17.001 34.333 30.334 57 39.999c22.667 9.67383 49 14.5068 79 14.499c28 -0.0078125 53.167 -4.6748 75.5 -14.001c22.334 -9.33301 41.167 -21.833 56.5 -37.5c15.334 -15.667 27.001 -34 35.001 -55s12 -42.833 12 -65.499zM367.999 484.001
c0 20 -3.50098 38.667 -10.501 56s-16.667 32.5 -29 45.5s-27.333 23.167 -45 30.5s-37.5 11 -59.5 11c-13.333 -0.00976562 -29 -1.67676 -47 -5.00098c-18 -3.33301 -33.667 -9.33301 -47 -18c-17.333 -15.334 -30.333 -34.167 -39 -56.5
c-8.66699 -22.335 -13 -45.835 -13 -70.5c0 -22.001 3.5 -41.834 10.5 -59.5c7 -17.667 16.833 -33 29.5 -45.999c12.667 -13 28 -23 46 -30s38 -10.5 60 -10.5c42.667 0 77.334 13.667 104.001 41c26.667 27.334 40 64.667 40 112zM138.998 408.001
c2.66699 1.33301 6.16504 2.33203 10.498 2.99902s8.5 1.33398 12.5 2.00098v137c-3.33398 0 -7.16699 0.5 -11.5 1.5s-8.16602 2.5 -11.499 4.5v19h97c39.334 0 59.001 -16.333 59.001 -49c0 -13.334 -3.16699 -25.001 -9.5 -35.001s-16.5 -17 -30.5 -21l38 -57
c4.66699 0 9.16699 -0.5 13.5 -1.5s7.83301 -2.16699 10.5 -3.5v-20h-79v20c4.66699 2.66699 10.334 4.33398 17 5.00098l-34 53h-26v-53c7.33301 -1.33301 13.333 -3 18 -5v-20h-74v20zM194.996 549v-59.002h29c5.33301 0 10.333 0.333008 15 1s9.33398 2.33398 14 5.00098
c1.33301 2 2.83301 5.33301 4.5 10c1.66699 4.66797 2.5 10.335 2.5 17.001c0 6.66699 -2 12.667 -6 18s-12.667 8 -26 8h-33z" />
    <glyph glyph-name="macron" unicode="&#xaf;" horiz-adv-x="535" 
d="M118 621h297v-59h-297v59z" />
    <glyph glyph-name="degree" unicode="&#xb0;" horiz-adv-x="352" 
d="M314 525c-0.000976562 -18.667 -3.33594 -36.167 -10.001 -52.5c-6.66699 -16.333 -16 -30.666 -27.999 -42.999c-12 -12.333 -26.5 -22 -43.5 -29s-35.833 -10.5 -56.5 -10.5c-21.333 0 -40.5 3.5 -57.5 10.5c-17 7.00098 -31.5 16.668 -43.5 29.001
c-12 12.334 -21.167 26.667 -27.5 43s-9.5 33.833 -9.5 52.5s3.16699 36.167 9.5 52.5s15.5 30.666 27.5 42.999s26.5 22 43.5 29s36.167 10.5 57.5 10.5c20.667 0 39.5 -3.5 56.5 -10.5c17 -7.00391 31.5 -16.6709 43.5 -29.001c12 -12.334 21.333 -26.667 28 -43
s10 -33.833 10 -52.5zM268.998 525c0 27.333 -8.5 49.833 -25.5 67.5c-17 17.6689 -39.5 26.502 -67.5 26.5c-28.667 0 -51.334 -8.83301 -68.001 -26.5s-25 -40.167 -25 -67.5s8.33301 -50 25 -68s39.334 -27 68.001 -27c28 0 50.5 9 67.5 27s25.5 40.667 25.5 68z" />
    <glyph glyph-name="plusminus" unicode="&#xb1;" horiz-adv-x="680" 
d="M372 515v-171h176v-61h-176v-161h-63v161h-177v61h177v171h63zM132 60h416v-60h-416v60z" />
    <glyph glyph-name="twosuperior" unicode="&#xb2;" horiz-adv-x="396" 
d="M331 416l0.00195312 -103.001h-260v26c0 12 0.833008 24.167 2.5 36.5s5.5 24.333 11.5 36s14.5 22.834 25.5 33.501s25.833 21 44.5 31c4.66699 2.66699 12 6.16699 22 10.5s20.333 8.83301 30.999 13.5c10.667 4.66699 20.334 9 29 13c8.66699 4 14.334 7 17 9
c4.66699 9.33301 7 23.333 7 42c0 18.668 -7 31.001 -21 37c-14 6 -31.667 9 -53 9c-20.667 -0.00878906 -38.667 -1.67578 -54 -5c-0.666992 -9.33398 -1.83398 -18.667 -3.50098 -27.999c-1.66699 -9.33691 -4.5 -17.0039 -8.5 -23.001h-40v88
c6 2.66699 13.667 5.16699 23 7.5s19 4.16602 29 5.49902s19.833 2.5 29.5 3.5s18.5 1.5 26.5 1.5c41.333 -0.00292969 73.166 -6.66992 95.499 -20.001c22.334 -13.334 33.501 -37.001 33.501 -71c0 -19.333 -3.5 -37.333 -10.5 -54s-21.833 -30.667 -44.499 -42
c-5.33301 -2.66797 -12.166 -5.83496 -20.499 -9.5c-8.33398 -3.66895 -17.001 -7.50195 -26.001 -11.499c-9 -4.00293 -17.667 -7.83594 -26 -11.5c-8.33301 -3.66797 -14.833 -6.83496 -19.5 -9.5c-17.333 -9.33301 -29.333 -19.166 -36 -29.499
s-10.334 -23.5 -11.001 -39.5h154c0.666992 10 2 20 4 30c2.00098 10 4.66797 18 8 24h41z" />
    <glyph glyph-name="threesuperior" unicode="&#xb3;" horiz-adv-x="396" 
d="M142 505l57.0059 -0.00390625c15.333 0 27.666 2 36.999 6c7.33301 6 12.666 14.167 15.999 24.5s5 19.833 5 28.5c0 15.333 -5 27.166 -15 35.499s-27 12.5 -51 12.5c-8 0 -16.833 -0.5 -26.5 -1.5s-18.834 -2.5 -27.501 -4.5
c-1.33398 -17.335 -5.66699 -32.002 -13 -44h-40v80c14 5.33301 30.667 9.5 50 12.5s39.666 4.5 60.999 4.5c39.333 -0.00390625 68.666 -7.1709 87.999 -21.501c19.334 -14.334 29.001 -35.167 29 -62.5c-0.000976562 -17.335 -3.33398 -33.002 -9.99902 -47
c-6.66797 -14.001 -15.001 -26.334 -25 -37c14 -5.33301 26 -14.166 36 -26.499s15 -28.166 15 -47.499c-0.00195312 -21.333 -3.83496 -39.166 -11.5 -53.499c-7.66699 -14.333 -18.167 -25.833 -31.5 -34.5s-29.333 -14.834 -48 -18.5
c-18.667 -3.66895 -39.334 -5.50195 -62.001 -5.5c-6 0.00976562 -13.167 0.176758 -21.5 0.500977c-8.33398 0.333008 -17.001 0.833008 -26.001 1.5s-17.833 1.5 -26.5 2.5c-8.66699 1.00488 -16 2.17188 -22 3.50098v92h39c4 -6.00098 6.83301 -13.334 8.5 -22
c1.66797 -8.66699 2.83496 -17.667 3.50098 -27c8.66699 -1.33301 17.667 -2.16602 27 -2.49902s18.333 -0.5 27 -0.5c12 0 24 0.833008 36 2.5s22.333 4.5 30.999 8.5c5.33301 4.66699 9.83301 11.5 13.5 20.5s5.5 18.5 5.5 28.5c-0.000976562 14 -4.83398 25.5 -14.5 34.5
c-9.66699 9 -24.167 13.5 -43.5 13.5h-70v44z" />
    <glyph glyph-name="acute" unicode="&#xb4;" horiz-adv-x="535" 
d="M155 545c36.667 25.333 70.668 50 102.001 74s57.666 47.667 78.999 71l46 -52c-8.66699 -12.001 -20.167 -23.668 -34.5 -35c-14.333 -11.334 -30.5 -22.501 -48.5 -33.5c-18 -11.001 -37 -21.668 -57 -32c-20 -10.335 -40.333 -20.502 -61 -30.5z" />
    <glyph glyph-name="mu" unicode="&#xb5;" horiz-adv-x="566" 
d="M465 83c0 -11.333 1.3291 -19.5029 3.99609 -24.5029s8.33398 -7.5 17.001 -7.5c7.33398 0 15.167 1.5 23.5 4.5s16.166 6.16699 23.499 9.5v-56c-9.33398 -6 -20.167 -10.833 -32.499 -14.5c-12.333 -3.66699 -23.5 -5.5 -33.5 -5.5c-26 0 -44.5 6.83301 -55.5 20.5
s-17.167 29.834 -18.5 48.501c-20.667 -21.333 -44.667 -38.166 -72 -50.499s-54.666 -18.5 -81.999 -18.5c-29.333 0 -54.666 5.33301 -75.999 16c-1.33398 -30 -3.16699 -60.5 -5.5 -91.5c-2.33398 -31 -5.16699 -57.833 -8.5 -80.5l-73 -2
c3.33301 26.667 6.33301 52.834 9 78.501s5 52.5 7 80.5s3.66699 58.333 5 91c1.33398 32.667 2.00098 70 2.00098 112v187c-14 0.00585938 -26.833 1.17285 -38.5 3.5c-11.667 2.33496 -22.167 6.16797 -31.5 11.5v46h142v-300c0 -30 8.33301 -51.667 24.999 -65
c16.667 -13.333 35.667 -20 57 -20c28.667 0 54.834 6.33301 78.501 19s44.167 27.667 61.5 45v260c-13.333 0.00585938 -25.833 1.17285 -37.5 3.5c-11.667 2.33496 -22.167 6.16797 -31.5 11.5v46h141v-358z" />
    <glyph glyph-name="paragraph" unicode="&#xb6;" horiz-adv-x="813" 
d="M601 587l-200.997 0.000976562v-726l-77 -16v310c-7.33301 -1.33301 -16 -2.33301 -26 -3s-21 -1 -33 -1c-34 0 -63.833 5.66699 -89.5 17s-47.334 27 -65.001 47s-30.834 44.167 -39.501 72.5c-8.66699 28.334 -13 59.501 -13 93.501
c0 39.333 5.83301 75.666 17.5 108.999s29.334 62.166 53.001 86.499s53 43.333 88 57c35 13.6689 75.5 20.502 121.5 20.5h443v-49c-8.00098 -5.33789 -20.168 -9.6709 -36.5 -13c-16.335 -3.3418 -34.502 -5.00879 -54.501 -5h-13v-661h17
c18.001 0 34.834 -1.33301 50.499 -4c15.668 -2.66699 27.835 -7 36.5 -13v-46h-179v724z" />
    <glyph glyph-name="periodcentered" unicode="&#xb7;" horiz-adv-x="208" 
d="M45 245c0 18 5.83301 32.834 17.5 44.501s26.167 17.5 43.5 17.5c17.333 -0.000976562 32 -5.83398 44 -17.5c12 -11.667 18 -26.5 18 -44.5c0 -17.333 -6 -31.666 -18 -42.999c-12 -11.334 -26.667 -17.001 -44 -17.001s-31.833 5.66699 -43.5 17
s-17.5 25.666 -17.5 42.999z" />
    <glyph glyph-name="cedilla" unicode="&#xb8;" horiz-adv-x="535" 
d="M248 -218c-12 -0.000976562 -26.335 1.83301 -43.002 5.50098c-16.667 3.66602 -30.667 8.83301 -42 15.5l15 37c11.333 -5.33301 23.333 -9.33301 36 -12s24.334 -4 35.001 -4c20 0 35.167 4.66699 45.5 14c10.335 9.33301 15.502 20.666 15.501 33.999
c0 9.33301 -3.5 17.5 -10.5 24.5s-18.167 10.5 -33.5 10.5c-4.66699 0.000976562 -10 -0.332031 -16 -0.999023c-6 -0.666016 -12 -1.99902 -18 -3.99902l-17 10l35 100h37l-19 -70c3.33496 0.666016 7.00195 0.999023 11 0.999023h8c28 0 48.833 -6.83301 62.5 -20.5
s20.5 -29.5 20.5 -47.5c0 -24.667 -10 -46.334 -30 -65.001s-50.667 -28 -92 -28z" />
    <glyph glyph-name="onesuperior" unicode="&#xb9;" horiz-adv-x="396" 
d="M85 596l127 57h36v-293h21c16.667 -0.00585938 31 -0.838867 43 -2.5c12 -1.66797 21 -4.50098 27 -8.5v-37h-237v37c6 3.33496 15 6.00195 27 8.00098c12 2 26.667 3 44 3h20v227l-38 -15c-15.333 -7.33789 -29 -12.1709 -41 -14.5
c-12 -2.35059 -21.667 -3.51758 -29 -3.50098v42z" />
    <glyph glyph-name="ordmasculine" unicode="&#xba;" horiz-adv-x="351" 
d="M114 603c-12.667 -20 -19 -46.001 -19 -78.001s7 -55.167 21 -69.5s33.667 -21.5 59 -21.5c12 0 23.833 1.33301 35.5 4s20.167 6.33398 25.5 11.001c5.33301 7.33398 10 18.001 14 32.001s6 31 6 51c0 25.333 -6.5 46.166 -19.5 62.499s-33.833 24.5 -62.5 24.5
c-11.333 0 -22.333 -1.33301 -33 -4s-19.667 -6.66699 -27 -12zM173 392.999c-39.333 0 -70 10.666 -92 31.999c-22 21.334 -33 53.001 -33 95.001c0 20 2.83301 38.5 8.5 55.5s14 31.667 25 44s24.667 22.166 41 29.499s35.166 11 56.499 11
c40 -0.000976562 70.667 -11.168 92 -33.5c21.334 -22.334 32.001 -52.501 32.001 -90.5c0 -46 -11.667 -81.333 -35 -105.999c-23.333 -24.667 -55 -37 -95 -37zM56 308.998v40h240v-40h-240z" />
    <glyph glyph-name="guillemotright" unicode="&#xbb;" horiz-adv-x="547" 
d="M90 24l-33 32l142 168l-142 168l33 33l207 -201zM299 24l-33 32l142 168l-142 168l33 33l207 -201z" />
    <glyph glyph-name="onequarter" unicode="&#xbc;" horiz-adv-x="900" 
d="M42 597l127 56.999h36v-293h21c16.667 -0.00585938 31 -0.838867 43 -2.5c12 -1.66797 21 -4.50098 27 -8.5v-37h-237v37c6 3.33496 15 6.00195 27 8.00098c12 2 26.667 3 44 3h20v227l-38 -15c-15.333 -7.33789 -29 -12.1709 -41 -14.5
c-12 -2.3584 -21.667 -3.52539 -29 -3.5v42zM702 342.999h63.001v-199h88v-44h-88v-52h11c12.668 0 24.501 -0.833008 35.499 -2.5c11 -1.66699 19.5 -4.5 25.5 -8.5v-37h-198v37c6.00293 3.33301 14.3359 6 25 8c10.667 2 21.667 3 33 3h16v52h-175v37zM713.001 143.999
v145l-116 -145h116zM200.001 -7.00098l460 698l45 -30l-459 -698z" />
    <glyph glyph-name="onehalf" unicode="&#xbd;" horiz-adv-x="900" 
d="M42 597l127 56.999h36v-293h21c16.667 -0.00585938 31 -0.838867 43 -2.5c12 -1.66797 21 -4.50098 27 -8.5v-37h-237v37c6 3.33496 15 6.00195 27 8.00098c12 2 26.667 3 44 3h20v227l-38 -15c-15.333 -7.33789 -29 -12.1709 -41 -14.5
c-12 -2.3584 -21.667 -3.52539 -29 -3.5v42zM849 102.999l0.00488281 -102.999h-260v26c0.0175781 12 0.850586 24.167 2.49902 36.5c1.6709 12.333 5.50391 24.333 11.499 36c6 11.667 14.5 22.834 25.5 33.501c11.002 10.667 25.835 21 44.5 31
c4.66895 2.66699 12.002 6.16699 21.999 10.5c10.0029 4.33301 20.3359 8.83301 31 13.5c10.6689 4.66699 20.3359 9 29 12.999c8.66992 4 14.3369 7 17.001 9c4.67871 9.33301 7.01172 23.333 7 42c0 18.667 -7 31 -21 37c-14.002 6 -31.6689 9 -53 9
c-20.667 0 -38.667 -1.66699 -54 -5c-0.666992 -9.33301 -1.83398 -18.666 -3.50098 -27.999c-1.66699 -9.33398 -4.5 -17.001 -8.5 -23.001h-40v88c6 2.66699 13.667 5.16699 23 7.5c9.33301 2.33496 19 4.16797 29 5.5c10.0029 1.34082 19.8359 2.50781 29.5 3.5
c9.66895 1 18.502 1.5 26.499 1.5c41.333 0 73.166 -6.66699 95.499 -20s33.5 -37 33.5 -71c0 -19.333 -3.5 -37.333 -10.5 -54s-21.833 -30.667 -44.5 -42c-5.33594 -2.66699 -12.1689 -5.83398 -20.499 -9.50098c-8.33594 -3.66699 -17.0029 -7.5 -26 -11.5
c-9.00391 -4 -17.6709 -7.83301 -26 -11.5c-8.33301 -3.66699 -14.833 -6.83398 -19.5 -9.50098c-17.333 -9.33301 -29.333 -19.166 -36 -29.499s-10.334 -23.5 -11.001 -39.5h154c0.678711 10 2.01172 20 4 30c2 10 4.66699 18 8 24h41zM200.005 -7l460 698l45 -30
l-459 -698z" />
    <glyph glyph-name="threequarters" unicode="&#xbe;" horiz-adv-x="891" 
d="M699 343h63.001v-199h88v-44h-88v-52h11c12.668 0 24.501 -0.833008 35.499 -2.5c11 -1.66699 19.5 -4.5 25.5 -8.5v-37h-198v37c6.00293 3.33301 14.3359 6 25 8c10.667 2 21.667 3 33 3h16v52h-175v37zM710.001 144v145l-116 -145h116zM197.001 -7l460 698l45 -30
l-459 -698zM115.001 506l57.0049 -0.00390625c15.333 0 27.666 2 36.999 6c7.33301 6 12.666 14.167 15.999 24.5s5 19.833 5 28.5c0 15.333 -5 27.166 -15 35.499s-27 12.5 -51 12.5c-8 0 -16.833 -0.5 -26.5 -1.5s-18.834 -2.5 -27.501 -4.5
c-1.33301 -17.335 -5.66602 -32.002 -12.999 -44h-40v80c14 5.33301 30.667 9.5 50 12.5s39.666 4.5 60.999 4.5c39.333 -0.00390625 68.666 -7.1709 87.999 -21.501c19.334 -14.335 29.001 -35.168 29 -62.5c-0.000976562 -17.335 -3.33398 -33.002 -10 -47
c-6.66699 -14.001 -15 -26.334 -25 -37c14 -5.33301 26 -14.166 36 -26.499s15 -28.166 15 -47.499c-0.000976562 -21.333 -3.83398 -39.166 -11.5 -53.499c-7.66699 -14.333 -18.167 -25.833 -31.5 -34.5s-29.333 -14.834 -48 -18.5
c-18.667 -3.66895 -39.334 -5.50195 -62.001 -5.5c-6 0.00976562 -13.167 0.176758 -21.5 0.500977c-8.33301 0.333008 -17 0.833008 -26 1.5s-17.833 1.5 -26.5 2.5c-8.66699 1.00684 -16 2.17383 -22 3.5v92h39c4 -6.00098 6.83301 -13.334 8.5 -21.999
c1.66699 -8.66699 2.83398 -17.667 3.50098 -27c8.66699 -1.33301 17.667 -2.16602 27 -2.49902s18.333 -0.5 27 -0.5c12 0 24 0.833008 36 2.5s22.333 4.5 30.999 8.5c5.33301 4.66699 9.83301 11.5 13.5 20.5c3.66797 9 5.50098 18.5 5.5 28.5
c0 14 -4.83301 25.5 -14.5 34.5s-24.167 13.5 -43.5 13.5h-70v44z" />
    <glyph glyph-name="questiondown" unicode="&#xbf;" horiz-adv-x="457" 
d="M427 -193c-11.333 -4 -24.502 -7.49707 -39.502 -10.4971s-30.333 -5.66699 -45.999 -8.00098c-15.667 -2.33301 -31 -4 -46 -5.00098c-15 -1 -28.5 -1.5 -40.5 -1.5c-36.667 0 -68.167 4.16699 -94.5 12.5s-48 19.666 -65 33.999s-29.5 31.333 -37.5 51
s-12 40.834 -12 63.501c0 28 3.83301 54.167 11.5 78.5s19.5 46 35.5 65s36.333 34.667 61 47s54.334 20.166 89.001 23.499l7 107h59l8 -160c-34 0 -66.5 -3.5 -97.5 -10.5s-55.167 -15.5 -72.5 -25.5c-8 -14 -14.833 -31.333 -20.5 -52s-8.5 -42.667 -8.5 -66
c0 -68 48 -102 144 -102c14.667 0 30.5 1 47.5 3c17 1.99902 32.167 4.33203 45.5 6.99902c2 32.667 9 58.334 21 77.001h51v-128zM220.998 390.003c0 18 5.83301 32.8301 17.499 44.4971c11.667 11.667 26.167 17.5 43.5 17.5
c17.334 -0.000976562 32.001 -5.83398 44.001 -17.5c12 -11.667 18 -26.5 18 -44.499c0 -17.333 -6 -31.666 -18 -42.999s-26.667 -17 -44 -17c-17.333 0.000976562 -31.833 5.66797 -43.5 17.001c-11.667 11.334 -17.5 25.667 -17.5 43z" />
    <glyph glyph-name="Agrave" unicode="&#xc0;" horiz-adv-x="672" 
d="M-11 0l0.00195312 47.002c8 5.33301 19 9.16602 33 11.499s28.667 3.83301 44 4.5l226 591h91l222 -591c15.333 -0.666992 30 -2.33398 44 -5.00098c14.001 -2.66699 25.334 -6.66699 33.999 -12v-46h-239v46c8.66699 5.33301 20.167 9.33301 34.5 12
c14.334 2.66699 29.167 4.33398 44.5 5.00098l-53 143h-282l-54 -143c16 -0.666992 31.667 -2.33398 47 -5.00098s27.666 -6.66699 36.999 -12v-46h-229zM212.002 269.002h234l-117 311zM364.002 716.002c-49.333 26 -91.832 50.167 -127.499 72.5
s-61.167 45.166 -76.5 68.499l48 52c21.333 -23.334 48.166 -48.667 80.499 -75.999c32.333 -27.334 66.5 -54.001 102.5 -80z" />
    <glyph glyph-name="Aacute" unicode="&#xc1;" horiz-adv-x="672" 
d="M-11 0l0.00195312 47.002c8 5.33301 19 9.16602 33 11.499s28.667 3.83301 44 4.5l226 591h91l222 -591c15.333 -0.666992 30 -2.33398 44 -5.00098c14.001 -2.66699 25.334 -6.66699 33.999 -12v-46h-239v46c8.66699 5.33301 20.167 9.33301 34.5 12
c14.334 2.66699 29.167 4.33398 44.5 5.00098l-53 143h-282l-54 -143c16 -0.666992 31.667 -2.33398 47 -5.00098s27.666 -6.66699 36.999 -12v-46h-229zM212.002 269.002h234l-117 311zM282.002 755.002c38 23.333 74.999 47.668 110.999 73.001s65.333 49 88 71l45 -56
c-9.33398 -12.002 -22.001 -23.6689 -38 -35.001c-16 -11.333 -33.833 -22.333 -53.499 -33c-19.667 -10.667 -40.667 -21 -63 -31s-43.833 -19.333 -64.5 -28z" />
    <glyph glyph-name="Acircumflex" unicode="&#xc2;" horiz-adv-x="672" 
d="M-11 0l0.00195312 47.002c8 5.33301 19 9.16602 33 11.499s28.667 3.83301 44 4.5l226 591h91l222 -591c15.333 -0.666992 30 -2.33398 44 -5.00098c14.001 -2.66699 25.334 -6.66699 33.999 -12v-46h-239v46c8.66699 5.33301 20.167 9.33301 34.5 12
c14.334 2.66699 29.167 4.33398 44.5 5.00098l-53 143h-282l-54 -143c16 -0.666992 31.667 -2.33398 47 -5.00098s27.666 -6.66699 36.999 -12v-46h-229zM212.002 269.002h234l-117 311zM336.002 807.002c-15.333 -11.333 -36.332 -25.8311 -62.999 -43.498
s-54.334 -34.5 -83.001 -50.5l-24 38c25.333 19.333 51.333 39.5 78 60.5s55 46.5 85 76.5h13c30 -30 58.333 -55.5 85 -76.5c26.667 -21.002 53 -41.1689 79 -60.501l-25 -38c-28.667 16.002 -56.334 32.835 -83 50.499c-26.667 17.667 -47.334 32.167 -62 43.5z" />
    <glyph glyph-name="Atilde" unicode="&#xc3;" horiz-adv-x="672" 
d="M-11 0l0.00195312 47.002c8 5.33301 19 9.16602 33 11.499s28.667 3.83301 44 4.5l226 591h91l222 -591c15.333 -0.666992 30 -2.33398 44 -5.00098c14.001 -2.66699 25.334 -6.66699 33.999 -12v-46h-239v46c8.66699 5.33301 20.167 9.33301 34.5 12
c14.334 2.66699 29.167 4.33398 44.5 5.00098l-53 143h-282l-54 -143c16 -0.666992 31.667 -2.33398 47 -5.00098s27.666 -6.66699 36.999 -12v-46h-229zM212.002 269.002h234l-117 311zM153.002 733.002l-0.00390625 6.00195c0 36 8.16699 62.667 24.5 80
s37.833 26 64.5 26c17.334 -0.0126953 35.501 -1.67969 54.501 -5c19 -3.33301 37.5 -6.83301 55.5 -10.5s35 -7.16699 51 -10.5c16 -3.3457 29.667 -5.0127 41 -5c3.33594 5.33301 7.00293 13.166 11 23.499c4.00195 10.333 6.66895 20.166 8.00098 29.499h55v-8
c0 -19.3359 -2.5 -35.5029 -7.5 -48.501c-5 -13 -11.5 -23.833 -19.5 -32.5c-8.00098 -8.66699 -17.334 -14.834 -27.999 -18.501c-10.667 -3.66699 -22 -5.5 -34 -5.5c-17.333 0 -35.333 1.66699 -54 5s-37 7 -54.999 11c-18 4 -35 7.66699 -51 11s-29.667 5 -41 5
c-3.33301 -5.33594 -6.83301 -13.1689 -10.5 -23.499c-3.66699 -10.3359 -6.5 -20.1689 -8.5 -29.499h-56z" />
    <glyph glyph-name="Adieresis" unicode="&#xc4;" horiz-adv-x="672" 
d="M-11 0l0.00195312 47.002c8 5.33301 19 9.16602 33 11.499s28.667 3.83301 44 4.5l226 591h91l222 -591c15.333 -0.666992 30 -2.33398 44 -5.00098c14.001 -2.66699 25.334 -6.66699 33.999 -12v-46h-239v46c8.66699 5.33301 20.167 9.33301 34.5 12
c14.334 2.66699 29.167 4.33398 44.5 5.00098l-53 143h-282l-54 -143c16 -0.666992 31.667 -2.33398 47 -5.00098s27.666 -6.66699 36.999 -12v-46h-229zM212.002 269.002h234l-117 311zM290.002 799.002c0 -14 -4.66602 -26 -13.999 -36s-22 -15 -38 -15
s-28.833 5 -38.5 15s-14.5 22 -14.5 36c0 14.667 4.83301 27.167 14.499 37.5c9.66699 10.333 22.5 15.5 38.5 15.5c16 -0.00976562 28.667 -5.17676 38 -15.5c9.33496 -10.333 14.002 -22.833 14 -37.5zM483.003 799.002c0 -14 -4.66797 -26 -14.001 -36s-22 -15 -38 -15
s-28.667 5 -38 15s-14 22 -14 36c0.000976562 14.667 4.66797 27.167 14 37.5c9.33398 10.333 22.001 15.5 38.001 15.5c16 -0.00976562 28.667 -5.17676 38 -15.5c9.33594 -10.333 14.0029 -22.833 14 -37.5z" />
    <glyph glyph-name="Aring" unicode="&#xc5;" horiz-adv-x="672" 
d="M-11 0l0.00195312 47.002c8 5.33301 19 9.16602 33 11.499s28.667 3.83301 44 4.5l226 591h91l222 -591c15.333 -0.666992 30 -2.33398 44 -5.00098c14.001 -2.66699 25.334 -6.66699 33.999 -12v-46h-239v46c8.66699 5.33301 20.167 9.33301 34.5 12
c14.334 2.66699 29.167 4.33398 44.5 5.00098l-53 143h-282l-54 -143c16 -0.666992 31.667 -2.33398 47 -5.00098s27.666 -6.66699 36.999 -12v-46h-229zM212.002 269.002h234l-117 311zM448.002 820.002c0 -14 -2.50195 -27.3311 -7.50195 -39.998
c-5.00098 -12.667 -12.334 -24 -21.999 -34c-9.66699 -10 -21.334 -17.833 -35 -23.5c-13.667 -5.66699 -29.167 -8.5 -46.5 -8.5c-17.333 0.00585938 -32.833 2.83887 -46.5 8.5c-13.667 5.6709 -25.334 13.5039 -35 23.5c-9.66699 10.002 -17 21.335 -22 34
c-5 12.668 -7.5 26.001 -7.5 39.999c0 14.002 2.5 27.335 7.5 40c5 12.668 12.333 24.001 21.999 33.999c9.66699 10.0039 21.334 17.8369 35.001 23.5c13.667 5.67383 29.167 8.50684 46.5 8.5c17.333 0 32.833 -2.83301 46.5 -8.5s25.334 -13.5 35.001 -23.5
s17 -21.333 22 -34s7.5 -26 7.5 -40zM405 820.004c-0.000976562 19.333 -5.83594 35.333 -17.502 48c-11.667 12.6699 -28.167 19.0029 -49.5 19c-22.667 0 -39.834 -6.33301 -51.5 -19c-11.667 -12.667 -17.5 -28.667 -17.499 -48c0 -19.333 5.83301 -35.333 17.5 -48
s28.834 -19 51.501 -19c21.333 0.00292969 37.833 6.33594 49.5 19c11.667 12.667 17.5 28.667 17.5 48z" />
    <glyph glyph-name="AE" unicode="&#xc6;" horiz-adv-x="921" 
d="M-17 0l0.00195312 45.999c8.66699 5.33301 20.5 9.33301 35.5 12s30.167 4.33398 45.5 5.00098l326 528c-13.333 1.33301 -25.666 3.33301 -36.999 6c-11.333 2.66895 -20.333 6.33594 -27 11v46h534v-157h-51c-7.34277 12.002 -12.5098 26.335 -15.501 43
c-3 16.667 -4.83301 33.667 -5.5 51h-255v-222h208v-63h-208v-243h255c0 18 1.66699 35.333 5 52s8.66602 31.667 15.999 45h51v-160h-481v46c8.66699 5.33301 20 9.33301 34 12s28.667 4.33398 44 5.00098v143h-232l-88 -143
c15.333 -0.666992 30.166 -2.33398 44.499 -5.00098s25.833 -6.66699 34.5 -12v-46h-233zM457.002 267.999v314l-194 -314h194z" />
    <glyph glyph-name="Ccedilla" unicode="&#xc7;" horiz-adv-x="661" 
d="M344 -218c-12 -0.000976562 -26.3389 1.83691 -43.0049 5.50488c-16.667 3.66602 -30.667 8.83301 -42 15.5l15 37c11.333 -5.33301 23.333 -9.33301 36 -12s24.334 -4 35.001 -4c20 0 35.167 4.66699 45.5 14c10.335 9.33301 15.502 20.666 15.5 33.999
c0 9.33301 -3.5 17.5 -10.5 24.5s-18.167 10.5 -33.5 10.5c-4.66699 0.000976562 -10 -0.332031 -15.999 -0.999023c-6 -0.666016 -12 -1.99902 -18 -3.99902l-17 10l27 78c-41.333 2.66699 -78.833 11 -112.5 25s-62.5 33.667 -86.5 59s-42.5 56.666 -55.5 93.999
s-19.5 80.666 -19.5 129.999c0 53.333 6.16699 102.5 18.5 147.5s31.833 83.667 58.5 116s60.834 57.666 102.501 75.999s92.167 27.5 151.5 27.5c41.334 -0.00488281 79.001 -2.67188 113.001 -8c34 -5.33594 61.667 -12.0029 83 -20v-160h-53
c-7.33301 11.334 -12.833 26.001 -16.5 44c-3.66699 18.002 -5.5 37.335 -5.5 58c-18 5.33301 -38.667 9.16602 -62 11.499s-44.666 3.5 -63.999 3.5c-35.333 0 -69.833 -4.33301 -103.5 -13s-59.834 -20 -78.501 -34c-6 -9.33398 -12.667 -21.001 -20 -35
c-7.33398 -14.001 -14.167 -30.834 -20.5 -50.5c-6.33398 -19.667 -11.667 -42.334 -16 -68c-4.33398 -25.667 -6.50098 -54.834 -6.5 -87.5c0 -37.333 4.5 -71.333 13.5 -102s23 -57 42 -79s43 -39 72 -51s63.167 -18 102.5 -18c39.334 0 78.001 4.33301 116.001 13
s73.333 20.667 105.999 36v-72c-28 -14 -61.5 -24.667 -100.5 -32s-78.833 -11.333 -119.499 -12l-13 -47c3.33496 0.666016 6.66797 0.999023 10 0.999023h9c28 0 48.833 -6.83301 62.5 -20.5s20.5 -29.5 20.5 -47.5c0 -24.667 -10 -46.334 -30 -65.001
s-50.667 -28 -92 -28z" />
    <glyph glyph-name="Egrave" unicode="&#xc8;" horiz-adv-x="600" 
d="M539 654v-157h-51c-7.33301 12.001 -12.5 26.334 -15.5 42.999c-3.00586 16.667 -4.83887 33.667 -5.5 51h-270v-222h224v-63h-224v-243h270c0 18 1.5 36 4.5 54s8.5 33.667 16.5 47h51v-164h-498v46c8 5.33301 19.333 9.33301 34 12s29.667 4.33398 45 5.00098v528
c-15.333 0 -30.333 1.5 -45 4.5s-26 7.16699 -34 12.5v46h498zM345 716c-49.333 26 -91.833 50.167 -127.5 72.5s-61.167 45.166 -76.5 68.499l48 52c21.333 -23.334 48.166 -48.667 80.499 -75.999c32.334 -27.334 66.501 -54.001 102.501 -80z" />
    <glyph glyph-name="Eacute" unicode="&#xc9;" horiz-adv-x="600" 
d="M539 654v-157h-51c-7.33301 12.001 -12.5 26.334 -15.5 42.999c-3.00586 16.667 -4.83887 33.667 -5.5 51h-270v-222h224v-63h-224v-243h270c0 18 1.5 36 4.5 54s8.5 33.667 16.5 47h51v-164h-498v46c8 5.33301 19.333 9.33301 34 12s29.667 4.33398 45 5.00098v528
c-15.333 0 -30.333 1.5 -45 4.5s-26 7.16699 -34 12.5v46h498zM222 755c38 23.333 74.999 47.668 110.999 73.001s65.333 49 88 71l45 -56c-9.33301 -12.002 -22 -23.6689 -38 -35.001c-16 -11.333 -33.833 -22.333 -53.499 -33c-19.667 -10.667 -40.667 -21 -63 -31
s-43.833 -19.333 -64.5 -28z" />
    <glyph glyph-name="Ecircumflex" unicode="&#xca;" horiz-adv-x="600" 
d="M539 654v-157h-51c-7.33301 12.001 -12.5 26.334 -15.5 42.999c-3.00586 16.667 -4.83887 33.667 -5.5 51h-270v-222h224v-63h-224v-243h270c0 18 1.5 36 4.5 54s8.5 33.667 16.5 47h51v-164h-498v46c8 5.33301 19.333 9.33301 34 12s29.667 4.33398 45 5.00098v528
c-15.333 0 -30.333 1.5 -45 4.5s-26 7.16699 -34 12.5v46h498zM311 807c-15.333 -11.333 -36.332 -25.8311 -62.999 -43.498s-54.334 -34.5 -83.001 -50.5l-24 38c25.333 19.333 51.333 39.5 78 60.5s55 46.5 85 76.5h13c30 -30 58.333 -55.5 85 -76.5
c26.667 -21.002 53 -41.1689 79 -60.501l-25 -38c-28.667 16.002 -56.334 32.835 -83 50.499c-26.667 17.667 -47.334 32.167 -62 43.5z" />
    <glyph glyph-name="Edieresis" unicode="&#xcb;" horiz-adv-x="600" 
d="M539 654v-157h-51c-7.33301 12.001 -12.5 26.334 -15.5 42.999c-3.00586 16.667 -4.83887 33.667 -5.5 51h-270v-222h224v-63h-224v-243h270c0 18 1.5 36 4.5 54s8.5 33.667 16.5 47h51v-164h-498v46c8 5.33301 19.333 9.33301 34 12s29.667 4.33398 45 5.00098v528
c-15.333 0 -30.333 1.5 -45 4.5s-26 7.16699 -34 12.5v46h498zM272 799c0 -14 -4.66602 -26 -13.999 -36s-22 -15 -38 -15s-28.833 5 -38.5 15s-14.5 22 -14.5 36c0 14.667 4.83301 27.167 14.499 37.5c9.66699 10.333 22.5 15.5 38.5 15.5
c16 -0.00976562 28.667 -5.17676 38 -15.5c9.33398 -10.333 14.001 -22.833 14 -37.5zM465.001 799c0 -14 -4.66797 -26 -14.001 -36s-22 -15 -38 -15s-28.667 5 -38 15s-14 22 -14 36c0.000976562 14.667 4.66797 27.167 14 37.5c9.33398 10.333 22.001 15.5 38.001 15.5
c16 -0.00976562 28.667 -5.17676 38 -15.5c9.33594 -10.333 14.0029 -22.833 14 -37.5z" />
    <glyph glyph-name="Igrave" unicode="&#xcc;" horiz-adv-x="317" 
d="M276 654v-46c-8.66699 -6 -20.167 -10.333 -34.5 -13s-29.166 -4 -44.499 -4v-528c15.333 -0.666992 30.166 -2.33398 44.499 -5.00098s25.833 -6.66699 34.5 -12v-46h-235v46c8 5.33301 19.333 9.33301 34 12s29.667 4.33398 45 5.00098v528
c-15.333 0 -30.333 1.5 -45 4.5s-26 7.16699 -34 12.5v46h235zM199 716c-49.333 26 -91.832 50.167 -127.499 72.5s-61.167 45.166 -76.5 68.499l48 52c21.333 -23.334 48.166 -48.667 80.499 -75.999c32.333 -27.334 66.5 -54.001 102.5 -80z" />
    <glyph glyph-name="Iacute" unicode="&#xcd;" horiz-adv-x="317" 
d="M276 654v-46c-8.66699 -6 -20.167 -10.333 -34.5 -13s-29.166 -4 -44.499 -4v-528c15.333 -0.666992 30.166 -2.33398 44.499 -5.00098s25.833 -6.66699 34.5 -12v-46h-235v46c8 5.33301 19.333 9.33301 34 12s29.667 4.33398 45 5.00098v528
c-15.333 0 -30.333 1.5 -45 4.5s-26 7.16699 -34 12.5v46h235zM71 755c38 23.333 75 47.668 111 73.001s65.333 49 88 71l45 -56c-9.33301 -12.002 -22 -23.6689 -38 -35.001c-16 -11.333 -33.833 -22.333 -53.5 -33s-40.667 -21 -63 -31s-43.833 -19.333 -64.5 -28z" />
    <glyph glyph-name="Icircumflex" unicode="&#xce;" horiz-adv-x="317" 
d="M276 654v-46c-8.66699 -6 -20.167 -10.333 -34.5 -13s-29.166 -4 -44.499 -4v-528c15.333 -0.666992 30.166 -2.33398 44.499 -5.00098s25.833 -6.66699 34.5 -12v-46h-235v46c8 5.33301 19.333 9.33301 34 12s29.667 4.33398 45 5.00098v528
c-15.333 0 -30.333 1.5 -45 4.5s-26 7.16699 -34 12.5v46h235zM154 807c-15.333 -11.333 -36.3301 -25.8311 -62.9971 -43.498s-54.334 -34.5 -83.001 -50.5l-24 38c25.333 19.333 51.333 39.5 78 60.5s55 46.5 85 76.5h13c30 -30 58.333 -55.5 85 -76.5
c26.667 -21.002 53 -41.1689 79 -60.501l-25 -38c-28.667 16.002 -56.334 32.835 -83.001 50.499c-26.667 17.667 -47.334 32.167 -62.001 43.5z" />
    <glyph glyph-name="Idieresis" unicode="&#xcf;" horiz-adv-x="317" 
d="M276 654v-46c-8.66699 -6 -20.167 -10.333 -34.5 -13s-29.166 -4 -44.499 -4v-528c15.333 -0.666992 30.166 -2.33398 44.499 -5.00098s25.833 -6.66699 34.5 -12v-46h-235v46c8 5.33301 19.333 9.33301 34 12s29.667 4.33398 45 5.00098v528
c-15.333 0 -30.333 1.5 -45 4.5s-26 7.16699 -34 12.5v46h235zM114 799c0 -14 -4.66699 -26 -14 -36s-22 -15 -38 -15s-28.833 5 -38.5 15s-14.5 22 -14.5 36c0 14.667 4.83301 27.167 14.5 37.5s22.5 15.5 38.5 15.5c16 -0.00976562 28.667 -5.17676 38 -15.5
c9.33301 -10.333 14 -22.833 14 -37.5zM307 799c0 -14 -4.66602 -26 -13.999 -36s-22 -15 -38 -15s-28.667 5 -38 15c-9.33398 10 -14.001 22 -14.001 36c0 14.667 4.66699 27.167 14 37.5s22 15.5 38 15.5c16 -0.00976562 28.667 -5.17676 38 -15.5
c9.33496 -10.333 14.002 -22.833 14 -37.5z" />
    <glyph glyph-name="Eth" unicode="&#xd0;" horiz-adv-x="709" 
d="M7 365l113.002 -0.00195312v226c-15.333 0 -30.333 1.5 -45 4.5s-26 7.16699 -34 12.5v46h309c58.667 -0.00195312 107.167 -8.16895 145.5 -24.5c38.333 -16.334 68.833 -38.001 91.5 -65c22.667 -27 38.667 -58.333 48 -93.999c9.33301 -35.667 14 -72.5 14 -110.5
c0 -44.667 -4.83301 -88.5 -14.5 -131.5s-26.334 -81.5 -50.001 -115.5s-54.834 -61.333 -93.501 -82s-87 -31 -145 -31h-305v46c8 5.33301 19.333 9.33301 34 12s29.667 4.33398 45 5.00098v241h-113v61zM197.002 590.998l0.000976562 -225.998h155v-61h-155v-241h140
c38 0 70.333 3.83301 97 11.5s47.667 17.167 63 28.5c8 9.33301 16.167 21.666 24.5 36.999s16 33.5 23 54.5c7.00195 21 12.835 44.667 17.5 71c4.67969 26.333 7.0127 55.166 7 86.499c-0.00683594 34.667 -3.67383 66.5 -11.001 95.5
c-7.33398 29 -20.001 54.167 -38 75.5c-18 21.333 -41.667 38 -71 50s-66 18 -110 18h-142z" />
    <glyph glyph-name="Ntilde" unicode="&#xd1;" horiz-adv-x="755" 
d="M216 733l-0.00195312 6.00195c0 36 8.16699 62.667 24.5 80s37.833 26 64.5 26c17.334 -0.0126953 35.501 -1.67969 54.501 -5c19 -3.33301 37.5 -6.83301 55.5 -10.5s35 -7.16699 51 -10.5c16 -3.3457 29.667 -5.0127 41 -5c3.33594 5.33301 7.00293 13.166 11 23.499
c4 10.333 6.66699 20.166 8 29.499h55v-8c0 -19.3359 -2.5 -35.5029 -7.5 -48.501c-5 -13 -11.5 -23.833 -19.5 -32.5s-17.333 -14.834 -28 -18.501s-22 -5.5 -34 -5.5c-17.333 0 -35.333 1.66699 -54 5s-37 7 -54.999 11c-18 4 -35 7.66699 -51 11s-29.667 5 -41 5
c-3.33301 -5.33594 -6.83301 -13.1689 -10.5 -23.499c-3.66797 -10.3359 -6.50098 -20.1689 -8.5 -29.499h-56zM718.998 654.002l0.000976562 -46c-8.66699 -5.33984 -20.334 -9.50684 -35.001 -12.5c-14.667 -3 -29.667 -4.5 -45 -4.5v-591h-95l-359 572v-509
c15.333 0 30.833 -1.33301 46.5 -4s28.167 -7 37.5 -13v-46h-229v46c8.66699 5.33301 20.334 9.33301 35.001 12s29.667 4.33398 45 5.00098v528c-15.333 0 -30.333 1.5 -45 4.5s-26.334 7.16699 -35.001 12.5v46h181l353 -563v500h-1
c-15.333 0.00878906 -30.833 1.3418 -46.5 3.99902c-15.667 2.67383 -28.167 7.00684 -37.5 13v46h230z" />
    <glyph glyph-name="Ograve" unicode="&#xd2;" horiz-adv-x="744" 
d="M397 716c-49.333 26 -91.833 50.167 -127.5 72.5s-61.167 45.166 -76.5 68.499l48 52c21.333 -23.334 48.166 -48.667 80.499 -75.999c32.334 -27.334 66.501 -54.001 102.501 -80zM373 57c32.667 0 63.168 4.16406 91.501 12.4971
c28.334 8.33301 50.834 18.833 67.5 31.5c7.33301 10 15 22.5 23 37.5s15.167 32.5 21.5 52.5s11.666 42.667 15.999 68s6.5 54 6.5 86c0 34.667 -4 67.334 -12 98.001s-21 57.5 -39 80.5s-41.5 41 -70.5 54s-64.5 19.5 -106.5 19.5c-34 0 -65.167 -4.33301 -93.5 -13
s-50.5 -19 -66.5 -31c-15.333 -22 -30.166 -52.833 -44.499 -92.499c-14.333 -39.667 -21.5 -89.5 -21.5 -149.5c0 -38 4.33301 -72.667 12.999 -104c8.66699 -31.333 22.167 -58.166 40.5 -80.499s42 -39.5 71 -51.5s63.5 -18 103.5 -18zM64.001 298.997
c0 48 5.33594 94.167 16.0029 138.5c10.667 44.334 28.334 83.334 53.001 117c24.667 33.667 57 60.5 97 80.499c40 20 89.667 30 149 30c52 -0.00292969 97 -7.66992 135 -23.001c38 -15.333 69.167 -36.833 93.5 -64.5s42.5 -60.334 54.5 -98.001s18 -78.5 18 -122.5
c-0.00292969 -54.667 -6.16992 -104.5 -18.501 -149.5c-12.333 -45 -31.333 -83.667 -57 -116s-58.334 -57.5 -98.001 -75.5s-87.167 -27 -142.5 -27c-52 0 -96.833 7.83301 -134.5 23.5s-68.834 37.334 -93.501 65.001s-42.834 60.334 -54.501 98.001
s-17.5 78.834 -17.5 123.501z" />
    <glyph glyph-name="Oacute" unicode="&#xd3;" horiz-adv-x="744" 
d="M292 755c38 23.333 75 47.668 111 73.001s65.333 49 88 71l45 -56c-9.33398 -12.002 -22.001 -23.6689 -38 -35.001c-16.001 -11.333 -33.834 -22.333 -53.5 -33c-19.667 -10.667 -40.667 -21 -63 -31s-43.833 -19.333 -64.5 -28zM373 57.002
c32.667 0 63.168 4.16406 91.501 12.4971c28.334 8.33301 50.834 18.833 67.5 31.5c7.33301 10 15 22.5 23 37.5s15.167 32.5 21.5 52.5s11.666 42.667 15.999 68s6.5 54 6.5 86c0 34.667 -4 67.334 -12 98.001s-21 57.5 -39 80.5s-41.5 41 -70.5 54s-64.5 19.5 -106.5 19.5
c-34 0 -65.167 -4.33301 -93.5 -13s-50.5 -19 -66.5 -31c-15.333 -22 -30.166 -52.833 -44.499 -92.499c-14.333 -39.667 -21.5 -89.5 -21.5 -149.5c0 -38 4.33301 -72.667 12.999 -104c8.66699 -31.333 22.167 -58.166 40.5 -80.499s42 -39.5 71 -51.5s63.5 -18 103.5 -18z
M64.001 298.999c0 48 5.33594 94.167 16.0029 138.5c10.667 44.334 28.334 83.334 53.001 117c24.667 33.667 57 60.5 97 80.499c40 20 89.667 30 149 30c52 -0.00292969 97 -7.66992 135 -23.001c38 -15.333 69.167 -36.833 93.5 -64.5s42.5 -60.334 54.5 -98.001
s18 -78.5 18 -122.5c-0.00292969 -54.667 -6.16992 -104.5 -18.501 -149.5c-12.333 -45 -31.333 -83.667 -57 -116s-58.334 -57.5 -98.001 -75.5s-87.167 -27 -142.5 -27c-52 0 -96.833 7.83301 -134.5 23.5s-68.834 37.334 -93.501 65.001s-42.834 60.334 -54.501 98.001
s-17.5 78.834 -17.5 123.501z" />
    <glyph glyph-name="Ocircumflex" unicode="&#xd4;" horiz-adv-x="744" 
d="M373 57c32.667 0 63.168 4.16406 91.501 12.4971c28.334 8.33301 50.834 18.833 67.5 31.5c7.33301 10 15 22.5 23 37.5s15.167 32.5 21.5 52.5s11.666 42.667 15.999 68s6.5 54 6.5 86c0 34.667 -4 67.334 -12 98.001s-21 57.5 -39 80.5s-41.5 41 -70.5 54
s-64.5 19.5 -106.5 19.5c-34 0 -65.167 -4.33301 -93.5 -13s-50.5 -19 -66.5 -31c-15.333 -22 -30.166 -52.833 -44.499 -92.499c-14.333 -39.667 -21.5 -89.5 -21.5 -149.5c0 -38 4.33301 -72.667 12.999 -104c8.66699 -31.333 22.167 -58.166 40.5 -80.499
s42 -39.5 71 -51.5s63.5 -18 103.5 -18zM64.001 298.997c0 48 5.33594 94.167 16.0029 138.5c10.667 44.334 28.334 83.334 53.001 117c24.667 33.667 57 60.5 97 80.499c40 20 89.667 30 149 30c52 -0.00292969 97 -7.66992 135 -23.001
c38 -15.333 69.167 -36.833 93.5 -64.5s42.5 -60.334 54.5 -98.001s18 -78.5 18 -122.5c-0.00292969 -54.667 -6.16992 -104.5 -18.501 -149.5c-12.333 -45 -31.333 -83.667 -57 -116s-58.334 -57.5 -98.001 -75.5s-87.167 -27 -142.5 -27
c-52 0 -96.833 7.83301 -134.5 23.5s-68.834 37.334 -93.501 65.001s-42.834 60.334 -54.501 98.001s-17.5 78.834 -17.5 123.501zM372.004 806.997c-15.333 -11.333 -36.332 -25.832 -62.999 -43.499s-54.334 -34.5 -83.001 -50.5l-24 38
c25.333 19.333 51.333 39.5 78 60.5s55 46.5 85 76.5h13c30 -30 58.333 -55.5 85 -76.5c26.667 -21.002 53 -41.1689 79 -60.501l-25 -38c-28.667 16.002 -56.334 32.835 -83 50.5c-26.667 17.667 -47.334 32.167 -62 43.5z" />
    <glyph glyph-name="Otilde" unicode="&#xd5;" horiz-adv-x="744" 
d="M190 733l-0.00292969 6.00195c0 36 8.16699 62.667 24.5 80s37.833 26 64.5 26c17.334 -0.0126953 35.501 -1.67969 54.501 -5c19 -3.33301 37.5 -6.83301 55.5 -10.5s35 -7.16699 51 -10.5c16 -3.3457 29.667 -5.0127 41 -5c3.33594 5.33301 7.00293 13.166 11 23.499
c4.00195 10.333 6.66895 20.166 8 29.499h55v-8c0 -19.3359 -2.5 -35.5029 -7.5 -48.501c-5 -13 -11.5 -23.833 -19.5 -32.5c-8.00098 -8.66699 -17.334 -14.834 -27.999 -18.501c-10.667 -3.66699 -22 -5.5 -34 -5.5c-17.333 0 -35.333 1.66699 -54 5s-37 7 -54.999 11
c-18 4 -35 7.66699 -51 11s-29.667 5 -41 5c-3.33301 -5.33594 -6.83301 -13.1689 -10.5 -23.499c-3.66699 -10.3359 -6.5 -20.1689 -8.5 -29.499h-56zM372.997 57.002c32.667 0 63.168 4.16406 91.501 12.4971c28.334 8.33301 50.834 18.833 67.5 31.5
c7.33301 10 15 22.5 23 37.5s15.167 32.5 21.5 52.5s11.666 42.667 15.999 68s6.5 54 6.5 86c0 34.667 -4 67.334 -12 98.001s-21 57.5 -39 80.5s-41.5 41 -70.5 54s-64.5 19.5 -106.5 19.5c-34 0 -65.167 -4.33301 -93.5 -13s-50.5 -19 -66.5 -31
c-15.333 -22 -30.166 -52.833 -44.499 -92.499c-14.333 -39.667 -21.5 -89.5 -21.5 -149.5c0 -38 4.33301 -72.667 12.999 -104c8.66699 -31.333 22.167 -58.166 40.5 -80.499s42 -39.5 71 -51.5s63.5 -18 103.5 -18zM63.998 298.999c0 48 5.33594 94.167 16.0029 138.5
c10.667 44.334 28.334 83.334 53.001 117c24.667 33.667 57 60.5 97 80.499c40 20 89.667 30 149 30c52 -0.00292969 97 -7.66992 135 -23.001c38 -15.333 69.167 -36.833 93.5 -64.5s42.5 -60.334 54.5 -98.001s18 -78.5 18 -122.5
c-0.00292969 -54.667 -6.16992 -104.5 -18.501 -149.5c-12.333 -45 -31.333 -83.667 -57 -116s-58.334 -57.5 -98.001 -75.5s-87.167 -27 -142.5 -27c-52 0 -96.833 7.83301 -134.5 23.5s-68.834 37.334 -93.501 65.001s-42.834 60.334 -54.501 98.001
s-17.5 78.834 -17.5 123.501z" />
    <glyph glyph-name="Odieresis" unicode="&#xd6;" horiz-adv-x="744" 
d="M328 799c0 -14 -4.66797 -26 -14.001 -36s-22 -15 -38 -15s-28.833 5 -38.5 15s-14.5 22 -14.5 36c0.000976562 14.667 4.83398 27.167 14.5 37.5c9.66699 10.333 22.5 15.5 38.5 15.5c16 -0.00976562 28.667 -5.17676 38 -15.5
c9.33496 -10.333 14.002 -22.833 14.001 -37.5zM520.999 799c-0.00585938 -14 -4.6748 -26 -14.002 -36c-9.33301 -10 -22 -15 -38 -15s-28.667 5 -38 15s-14 22 -14 36c0.00195312 14.667 4.66895 27.167 14.001 37.5c9.33398 10.333 22.001 15.5 38.001 15.5
c16 -0.00976562 28.667 -5.17676 38 -15.5c9.33301 -10.333 14 -22.833 14 -37.5zM372.997 57c32.667 0 63.168 4.16406 91.501 12.4971c28.334 8.33301 50.834 18.833 67.5 31.5c7.33301 10 15 22.5 23 37.5s15.167 32.5 21.5 52.5s11.666 42.667 15.999 68s6.5 54 6.5 86
c0 34.667 -4 67.334 -12 98.001s-21 57.5 -39 80.5s-41.5 41 -70.5 54s-64.5 19.5 -106.5 19.5c-34 0 -65.167 -4.33301 -93.5 -13s-50.5 -19 -66.5 -31c-15.333 -22 -30.166 -52.833 -44.499 -92.499c-14.333 -39.667 -21.5 -89.5 -21.5 -149.5
c0 -38 4.33301 -72.667 12.999 -104c8.66699 -31.333 22.167 -58.166 40.5 -80.499s42 -39.5 71 -51.5s63.5 -18 103.5 -18zM63.998 298.997c0 48 5.33594 94.167 16.0029 138.5c10.667 44.334 28.334 83.334 53.001 117c24.667 33.667 57 60.5 97 80.499
c40 20 89.667 30 149 30c52 -0.00292969 97 -7.66992 135 -23.001c38 -15.333 69.167 -36.833 93.5 -64.5s42.5 -60.334 54.5 -98.001s18 -78.5 18 -122.5c-0.00292969 -54.667 -6.16992 -104.5 -18.501 -149.5c-12.333 -45 -31.333 -83.667 -57 -116
s-58.334 -57.5 -98.001 -75.5s-87.167 -27 -142.5 -27c-52 0 -96.833 7.83301 -134.5 23.5s-68.834 37.334 -93.501 65.001s-42.834 60.334 -54.501 98.001s-17.5 78.834 -17.5 123.501z" />
    <glyph glyph-name="multiply" unicode="&#xd7;" horiz-adv-x="680" 
d="M142 148l156 159l-156 160l42 41l156 -159l156 159l42 -41l-157 -160l157 -159l-42 -42l-156 159l-156 -159z" />
    <glyph glyph-name="Oslash" unicode="&#xd8;" horiz-adv-x="744" 
d="M64 299c0 48 5.33496 94.167 16.002 138.5c10.667 44.334 28.334 83.334 53.001 117c24.667 33.667 57 60.5 97 80.499c40 20 89.667 30 149 30c40 0 75.667 -4.5 107 -13.5c31.333 -9.00098 58.666 -22.168 81.999 -39.5l43 53h77l-76 -93
c23.333 -27.334 40.5 -59.167 51.5 -95.5s16.5 -76.166 16.5 -119.499c-0.00292969 -54.667 -6.16992 -104.5 -18.501 -149.5c-12.333 -45 -31.333 -83.667 -57 -116s-58.334 -57.5 -98.001 -75.5s-87.167 -27 -142.5 -27c-40 0 -75.5 4.5 -106.5 13.5
s-58.167 21.833 -81.5 38.5l-42 -52h-77l75 92c-23.333 28 -40.5 60.333 -51.5 97s-16.5 77 -16.5 121zM145.002 311c0 -34 3.16602 -64.834 9.49902 -92.501s16.5 -52.167 30.5 -73.5l334 407c-18 14 -39.167 25 -63.5 33s-52.5 12 -84.5 12
c-34 0 -65.167 -4.33301 -93.5 -13s-50.5 -19 -66.5 -31c-15.333 -22 -30.166 -52.833 -44.499 -92.499c-14.333 -39.667 -21.5 -89.5 -21.5 -149.5zM373.001 56.999c32.667 0 63.1699 4.16699 91.5029 12.5c28.334 8.33301 50.834 18.833 67.5 31.5
c7.33301 10 15 22.5 23 37.5s15.167 32.5 21.5 52.5s11.666 42.667 15.999 68s6.5 54 6.5 86c-0.00488281 31.333 -3.17188 60.833 -9.50098 88.5c-6.33691 27.667 -16.5039 52.5 -30.501 74.5l-334 -408c36.667 -28.667 86 -43 148 -43z" />
    <glyph glyph-name="Ugrave" unicode="&#xd9;" horiz-adv-x="731" 
d="M386 716c-49.333 26 -91.833 50.167 -127.5 72.5s-61.167 45.166 -76.5 68.499l48 52c21.333 -23.334 48.166 -48.667 80.499 -75.999c32.334 -27.334 66.501 -54.001 102.501 -80zM265 654l-0.00488281 -45.998c-9.33301 -6 -21.166 -10.333 -35.499 -13
c-14.334 -2.66699 -29.167 -4 -44.5 -4v-344c0 -37.333 5 -68.333 15 -93s23.333 -44.167 40 -58.5s35.834 -24.5 57.501 -30.5s44.5 -9 68.5 -9c25.334 0 50.001 2.5 74.001 7.5s44.667 13.167 62 24.5c16.001 17.333 29.334 41.666 40 72.999
c10.6689 31.333 16.002 69 16 113v317h-2c-15.334 0.00878906 -30.667 1.3418 -45.999 3.99902c-15.333 2.67383 -27.666 7.00684 -36.999 13v46h228v-46c-8.66699 -5.33984 -20.167 -9.50684 -34.5 -12.5c-14.333 -3 -28.833 -4.5 -43.5 -4.5v-319
c-0.000976562 -100.667 -23.168 -173 -69.501 -217s-113.166 -66 -200.499 -66c-37.333 0 -71 5 -101 15s-55.667 25 -77 45s-37.833 45 -49.5 75s-17.5 64.667 -17.5 104v363c-15.333 0.675781 -30 2.34277 -44 5c-14 2.66699 -25 6.66699 -33 12v46h234z" />
    <glyph glyph-name="Uacute" unicode="&#xda;" horiz-adv-x="731" 
d="M265 654l-0.00488281 -45.998c-9.33301 -6 -21.166 -10.333 -35.499 -13c-14.334 -2.66699 -29.167 -4 -44.5 -4v-344c0 -37.333 5 -68.333 15 -93s23.333 -44.167 40 -58.5s35.834 -24.5 57.501 -30.5s44.5 -9 68.5 -9c25.334 0 50.001 2.5 74.001 7.5
s44.667 13.167 62 24.5c16.001 17.333 29.334 41.666 40 72.999c10.6689 31.333 16.002 69 16 113v317h-2c-15.334 0.00878906 -30.667 1.3418 -45.999 3.99902c-15.333 2.67383 -27.666 7.00684 -36.999 13v46h228v-46c-8.66699 -5.33984 -20.167 -9.50684 -34.5 -12.5
c-14.333 -3 -28.833 -4.5 -43.5 -4.5v-319c-0.000976562 -100.667 -23.168 -173 -69.501 -217s-113.166 -66 -200.499 -66c-37.333 0 -71 5 -101 15s-55.667 25 -77 45s-37.833 45 -49.5 75s-17.5 64.667 -17.5 104v363c-15.333 0.675781 -30 2.34277 -44 5
c-14 2.66699 -25 6.66699 -33 12v46h234zM288.995 755.002c38 23.333 74.999 47.668 110.999 73.001s65.333 49 88 71l45 -56c-9.33398 -12.002 -22.001 -23.6689 -38 -35.001c-16 -11.333 -33.833 -22.333 -53.499 -33c-19.667 -10.667 -40.667 -21 -63 -31
s-43.833 -19.333 -64.5 -28z" />
    <glyph glyph-name="Ucircumflex" unicode="&#xdb;" horiz-adv-x="731" 
d="M265 654l-0.00488281 -45.998c-9.33301 -6 -21.166 -10.333 -35.499 -13c-14.334 -2.66699 -29.167 -4 -44.5 -4v-344c0 -37.333 5 -68.333 15 -93s23.333 -44.167 40 -58.5s35.834 -24.5 57.501 -30.5s44.5 -9 68.5 -9c25.334 0 50.001 2.5 74.001 7.5
s44.667 13.167 62 24.5c16.001 17.333 29.334 41.666 40 72.999c10.6689 31.333 16.002 69 16 113v317h-2c-15.334 0.00878906 -30.667 1.3418 -45.999 3.99902c-15.333 2.67383 -27.666 7.00684 -36.999 13v46h228v-46c-8.66699 -5.33984 -20.167 -9.50684 -34.5 -12.5
c-14.333 -3 -28.833 -4.5 -43.5 -4.5v-319c-0.000976562 -100.667 -23.168 -173 -69.501 -217s-113.166 -66 -200.499 -66c-37.333 0 -71 5 -101 15s-55.667 25 -77 45s-37.833 45 -49.5 75s-17.5 64.667 -17.5 104v363c-15.333 0.675781 -30 2.34277 -44 5
c-14 2.66699 -25 6.66699 -33 12v46h234zM370.995 807.002c-15.333 -11.333 -36.332 -25.8311 -62.999 -43.498s-54.334 -34.5 -83.001 -50.5l-24 38c25.333 19.333 51.333 39.5 78 60.5s55 46.5 85 76.5h13c30 -30 58.333 -55.5 85 -76.5
c26.667 -21.002 53 -41.1689 79 -60.501l-25 -38c-28.667 16.002 -56.334 32.835 -83 50.499c-26.667 17.667 -47.334 32.167 -62 43.5z" />
    <glyph glyph-name="Udieresis" unicode="&#xdc;" horiz-adv-x="731" 
d="M265 654l-0.00488281 -45.998c-9.33301 -6 -21.166 -10.333 -35.499 -13c-14.334 -2.66699 -29.167 -4 -44.5 -4v-344c0 -37.333 5 -68.333 15 -93s23.333 -44.167 40 -58.5s35.834 -24.5 57.501 -30.5s44.5 -9 68.5 -9c25.334 0 50.001 2.5 74.001 7.5
s44.667 13.167 62 24.5c16.001 17.333 29.334 41.666 40 72.999c10.6689 31.333 16.002 69 16 113v317h-2c-15.334 0.00878906 -30.667 1.3418 -45.999 3.99902c-15.333 2.67383 -27.666 7.00684 -36.999 13v46h228v-46c-8.66699 -5.33984 -20.167 -9.50684 -34.5 -12.5
c-14.333 -3 -28.833 -4.5 -43.5 -4.5v-319c-0.000976562 -100.667 -23.168 -173 -69.501 -217s-113.166 -66 -200.499 -66c-37.333 0 -71 5 -101 15s-55.667 25 -77 45s-37.833 45 -49.5 75s-17.5 64.667 -17.5 104v363c-15.333 0.675781 -30 2.34277 -44 5
c-14 2.66699 -25 6.66699 -33 12v46h234zM329.995 799.002c0 -14 -4.66602 -26 -13.999 -36s-22 -15 -38 -15s-28.833 5 -38.5 15s-14.5 22 -14.5 36c0 14.667 4.83301 27.167 14.499 37.5c9.66699 10.333 22.5 15.5 38.5 15.5c16 -0.00976562 28.667 -5.17676 38 -15.5
c9.33496 -10.333 14.002 -22.833 14 -37.5zM522.996 799.002c-0.00585938 -14 -4.6748 -26 -14.002 -36c-9.33301 -10 -22 -15 -38 -15s-28.667 5 -38 15s-14 22 -14 36c0.00195312 14.667 4.66895 27.167 14.001 37.5c9.33398 10.333 22.001 15.5 38.001 15.5
c16 -0.00976562 28.667 -5.17676 38 -15.5c9.33301 -10.333 14 -22.833 14 -37.5z" />
    <glyph glyph-name="Yacute" unicode="&#xdd;" horiz-adv-x="621" 
d="M186 46c9.33301 5.33301 21.833 9.50098 37.5 12.501s31.167 4.5 46.5 4.5h3v201l-198 327c-14.667 0.675781 -28.667 2.34277 -42 5c-13.333 2.66699 -23.666 6.66699 -30.999 12v46h231v-46c-7.33398 -5.33594 -17.501 -9.16895 -30.501 -11.5
c-13 -2.34277 -26.167 -4.17578 -39.5 -5.5l156 -260l155 260c-14 0.675781 -27.667 2.34277 -41 5c-13.333 2.66699 -23.666 6.66699 -30.999 12v46h218v-46c-8.66699 -5.33301 -19.834 -9.33301 -33.501 -12s-27.167 -4.33398 -40.5 -5.00098l-196 -324v-204h4
c15.334 0 30.667 -1.33301 46 -4c15.334 -2.66699 27.667 -7 37 -13v-46h-251v46zM231 755.001c38 23.333 75 47.668 111 73.001s65.333 49 88 71l45 -56c-9.33301 -12.002 -22 -23.6689 -38 -35.001c-16.001 -11.333 -33.834 -22.333 -53.5 -33
c-19.667 -10.667 -40.667 -21 -63 -31s-43.833 -19.333 -64.5 -28z" />
    <glyph glyph-name="Thorn" unicode="&#xde;" horiz-adv-x="586" 
d="M276 654l-0.000976562 -46.002c-8.66699 -6 -20.167 -10.333 -34.5 -13s-29.166 -4 -44.499 -4v-58h119c34.667 -0.00390625 66 -3.1709 94 -9.5c28 -6.33496 51.667 -16.668 71 -31c19.334 -14.333 34.334 -33 45 -56c10.6689 -23 16.002 -50.833 16 -83.499
c0 -23.333 -3.83301 -48 -11.5 -74s-20.667 -49.667 -39 -71s-42.833 -39 -73.5 -53s-69.334 -21 -116 -21h-105v-71h2c18 0 35 -1.33301 51 -4s28.667 -7 38 -13v-46h-247v46c8 5.33301 19.333 9.33301 34 12s29.667 4.33398 45 5.00098v528c-15.333 0 -30.333 1.5 -45 4.5
s-26 7.16699 -34 12.5v46h235zM196.999 470.998l-0.000976562 -275h85c36 0.000976562 64.833 2.33398 86.5 7c21.667 4.66699 37.834 10.334 48.501 17c10 10.667 19.833 27.5 29.5 50.5s14.5 49.5 14.5 79.5c0 41.333 -12.167 71.833 -36.5 91.5s-64.833 29.5 -121.5 29.5
h-106z" />
    <glyph glyph-name="germandbls" unicode="&#xdf;" horiz-adv-x="598" 
d="M41 42c17.333 9.33301 40.3252 14.6621 68.9922 15.9951v324h-77v43c16.667 10 42.334 15.333 77.001 16v44c0 32 3.33301 61.167 10 87.5s17.834 48.833 33.501 67.5s36.834 33.167 63.501 43.5s60 15.5 100 15.5c36 -0.0078125 66.5 -3.6748 91.5 -11
c25 -7.33594 45.333 -17.1689 61 -29.5c15.667 -12.333 26.834 -26.833 33.501 -43.5s10 -34.334 10 -53.001c0 -16.667 -2.16699 -31.5 -6.5 -44.5s-10.166 -25 -17.499 -36c-7.33301 -11.001 -15.833 -21.334 -25.5 -30.999
c-9.66797 -9.66699 -19.835 -19.167 -30.5 -28.5c-20 -17.333 -36.833 -32.666 -50.499 -45.999c-13.667 -13.333 -20.5 -28 -20.499 -44c0 -11.333 6 -21.833 18 -31.5s32 -22.5 60 -38.5c24 -14 44 -26.167 60 -36.5c16.001 -10.333 28.834 -20.666 38.5 -30.999
c9.6709 -10.333 16.3379 -21.166 20 -32.499c3.67969 -11.333 5.5127 -24.666 5.5 -39.999c0 -18.667 -3.33301 -36 -10 -52s-16.667 -30 -30 -42s-30 -21.5 -50 -28.5s-43.667 -10.5 -71 -10.5c-20.667 0 -40.334 1.33301 -59 4c-18.667 2.66699 -34.334 6 -47.001 10v125
h53c5.33496 -10 9.16797 -21.667 11.5 -35c2.33496 -13.333 4.16797 -27 5.5 -41c16.667 -3.33301 31.667 -5 45 -5c14.667 0 28.667 1.5 42 4.5s23.333 7.5 30 13.5c3.33496 7.33301 5.66797 16 6.99902 26c1.34082 10 2.00781 17.667 2 23
c0 9.33301 -1.16699 17.333 -3.5 24s-6.83301 13.167 -13.5 19.5c-6.66797 6.33301 -15.501 12.833 -26.5 19.5c-11 6.66699 -24.833 14.667 -41.499 24c-19.333 10.667 -36.166 20.334 -50.499 29c-14.333 8.66699 -26.333 17.5 -36 26.5
c-9.66797 9.00098 -17.001 19.168 -22 30.501c-5 11.334 -7.5 24.667 -7.5 40c0 14.667 2.5 28 7.5 40c5.00098 12 11.668 23.333 20.001 34c8.33398 10.667 18.167 21 29.5 31s23.333 20.667 36 32c16 14 29.167 28.167 39.5 42.5c10.335 14.333 15.502 31.5 15.5 51.5
c0 23.333 -10.833 42.333 -32.499 57c-21.667 14.6689 -53.5 22.002 -95.5 22c-18 -0.00976562 -36.333 -1.67676 -54.999 -5c-18.667 -3.33594 -35.334 -9.00293 -50.001 -17.001c-8.66699 -14.667 -14.834 -31.667 -18.501 -51c-3.66699 -19.334 -5.5 -42.667 -5.5 -70
v-437c10.667 -1.33301 21 -3.16602 31 -5.49902s19 -5.5 27 -9.5v-42h-200v42z" />
    <glyph glyph-name="agrave" unicode="&#xe0;" horiz-adv-x="508" 
d="M81 422c26.667 10.667 54.165 18.332 82.498 22.999s53.5 7 75.5 7c32 0 59 -3.5 81 -10.5s39.833 -17 53.5 -30c13.667 -13.001 23.5 -28.334 29.5 -46c6 -17.667 9 -36.834 9 -57.5v-229c0 -18.667 7 -28 21 -28c7.33496 0 15.002 1.5 23.001 4.5
c8 3 16 6.16699 24 9.5v-56c-9.33301 -6 -20.166 -10.833 -32.499 -14.5s-23.5 -5.5 -33.5 -5.5c-25.333 0 -43.5 6.5 -54.5 19.5s-17.5 28.5 -19.5 46.5c-16.667 -17.333 -37.667 -32.666 -63 -45.999s-56.333 -20 -93 -20c-46.667 0 -81.834 11.5 -105.501 34.5
s-35.5 52.167 -35.5 87.5c0 46 14.5 81 43.5 105s73.833 36 134.5 36c43.333 0 82.666 -3.66699 117.999 -11v56c-0.000976562 18 -2.83398 33 -8.49902 45c-5.66699 12 -13.334 21.5 -23 28.5c-9.66699 7 -21.167 11.833 -34.5 14.5s-28 4 -44 4
c-14.667 0 -28.667 -1 -42 -3s-25.666 -4.66699 -36.999 -8c-2 -24.667 -7.33301 -46 -16 -64h-53v108zM130.998 175.998c-8 -14 -11.998 -32.6641 -11.998 -55.9971c0 -16.667 5.66699 -32 17 -46s31.666 -21 60.999 -21c32 0 59.833 6.33301 83.5 19
s43.167 26.667 58.5 42v69c-18 4 -37.167 6.83301 -57.5 8.49902c-20.333 1.66797 -41.166 2.50098 -62.499 2.49902c-20.667 -0.000976562 -38.334 -1.66797 -53.001 -5.00098c-14.667 -3.33398 -26.334 -7.66699 -35.001 -13zM265 507.001
c-17.333 16.668 -34.1689 33.3359 -50.502 50.002c-16.333 16.667 -31.166 32.834 -44.499 48.5c-13.333 15.668 -24.666 30.835 -33.999 45.5c-9.33301 14.6689 -16 29.002 -20 43l59 34c13.333 -28.667 31 -59.334 53 -92.001s46.333 -66.334 73 -101.001z" />
    <glyph glyph-name="aacute" unicode="&#xe1;" horiz-adv-x="508" 
d="M81 422c26.667 10.667 54.165 18.332 82.498 22.999s53.5 7 75.5 7c32 0 59 -3.5 81 -10.5s39.833 -17 53.5 -30c13.667 -13.001 23.5 -28.334 29.5 -46c6 -17.667 9 -36.834 9 -57.5v-229c0 -18.667 7 -28 21 -28c7.33496 0 15.002 1.5 23.001 4.5
c8 3 16 6.16699 24 9.5v-56c-9.33301 -6 -20.166 -10.833 -32.499 -14.5s-23.5 -5.5 -33.5 -5.5c-25.333 0 -43.5 6.5 -54.5 19.5s-17.5 28.5 -19.5 46.5c-16.667 -17.333 -37.667 -32.666 -63 -45.999s-56.333 -20 -93 -20c-46.667 0 -81.834 11.5 -105.501 34.5
s-35.5 52.167 -35.5 87.5c0 46 14.5 81 43.5 105s73.833 36 134.5 36c43.333 0 82.666 -3.66699 117.999 -11v56c-0.000976562 18 -2.83398 33 -8.49902 45c-5.66699 12 -13.334 21.5 -23 28.5c-9.66699 7 -21.167 11.833 -34.5 14.5s-28 4 -44 4
c-14.667 0 -28.667 -1 -42 -3s-25.666 -4.66699 -36.999 -8c-2 -24.667 -7.33301 -46 -16 -64h-53v108zM130.998 175.998c-8 -14 -11.998 -32.6641 -11.998 -55.9971c0 -16.667 5.66699 -32 17 -46s31.666 -21 60.999 -21c32 0 59.833 6.33301 83.5 19
s43.167 26.667 58.5 42v69c-18 4 -37.167 6.83301 -57.5 8.49902c-20.333 1.66797 -41.166 2.50098 -62.499 2.49902c-20.667 -0.000976562 -38.334 -1.66797 -53.001 -5.00098c-14.667 -3.33398 -26.334 -7.66699 -35.001 -13zM151 545.001c36.667 25.333 70.667 50 102 74
c31.334 24 57.667 47.667 79 71l46 -52c-8.66699 -12.001 -20.167 -23.668 -34.5 -35c-14.333 -11.334 -30.5 -22.501 -48.5 -33.5c-18 -11.001 -37 -21.668 -57 -32c-20 -10.335 -40.333 -20.502 -61 -30.5z" />
    <glyph glyph-name="acircumflex" unicode="&#xe2;" horiz-adv-x="508" 
d="M81 422c26.667 10.667 54.165 18.332 82.498 22.999s53.5 7 75.5 7c32 0 59 -3.5 81 -10.5s39.833 -17 53.5 -30c13.667 -13.001 23.5 -28.334 29.5 -46c6 -17.667 9 -36.834 9 -57.5v-229c0 -18.667 7 -28 21 -28c7.33496 0 15.002 1.5 23.001 4.5
c8 3 16 6.16699 24 9.5v-56c-9.33301 -6 -20.166 -10.833 -32.499 -14.5s-23.5 -5.5 -33.5 -5.5c-25.333 0 -43.5 6.5 -54.5 19.5s-17.5 28.5 -19.5 46.5c-16.667 -17.333 -37.667 -32.666 -63 -45.999s-56.333 -20 -93 -20c-46.667 0 -81.834 11.5 -105.501 34.5
s-35.5 52.167 -35.5 87.5c0 46 14.5 81 43.5 105s73.833 36 134.5 36c43.333 0 82.666 -3.66699 117.999 -11v56c-0.000976562 18 -2.83398 33 -8.49902 45c-5.66699 12 -13.334 21.5 -23 28.5c-9.66699 7 -21.167 11.833 -34.5 14.5s-28 4 -44 4
c-14.667 0 -28.667 -1 -42 -3s-25.666 -4.66699 -36.999 -8c-2 -24.667 -7.33301 -46 -16 -64h-53v108zM130.998 175.998c-8 -14 -11.998 -32.6641 -11.998 -55.9971c0 -16.667 5.66699 -32 17 -46s31.666 -21 60.999 -21c32 0 59.833 6.33301 83.5 19
s43.167 26.667 58.5 42v69c-18 4 -37.167 6.83301 -57.5 8.49902c-20.333 1.66797 -41.166 2.50098 -62.499 2.49902c-20.667 -0.000976562 -38.334 -1.66797 -53.001 -5.00098c-14.667 -3.33398 -26.334 -7.66699 -35.001 -13zM235 601.001
c-13.333 -11.334 -32.999 -25.5 -58.999 -42.499c-26 -17 -53.667 -33.5 -83 -49.5l-24 37c25.333 18.667 50.833 38.167 76.5 58.5s53.5 45.5 83.5 75.5h12c29.333 -29.333 57.166 -54.333 83.499 -75s52.166 -40.334 77.499 -59.001l-24 -37
c-30 16 -57.833 32.5 -83.499 49.5c-25.667 17 -45.5 31.167 -59.5 42.5z" />
    <glyph glyph-name="atilde" unicode="&#xe3;" horiz-adv-x="508" 
d="M81 422c26.667 10.667 54.165 18.332 82.498 22.999s53.5 7 75.5 7c32 0 59 -3.5 81 -10.5s39.833 -17 53.5 -30c13.667 -13.001 23.5 -28.334 29.5 -46c6 -17.667 9 -36.834 9 -57.5v-229c0 -18.667 7 -28 21 -28c7.33496 0 15.002 1.5 23.001 4.5
c8 3 16 6.16699 24 9.5v-56c-9.33301 -6 -20.166 -10.833 -32.499 -14.5s-23.5 -5.5 -33.5 -5.5c-25.333 0 -43.5 6.5 -54.5 19.5s-17.5 28.5 -19.5 46.5c-16.667 -17.333 -37.667 -32.666 -63 -45.999s-56.333 -20 -93 -20c-46.667 0 -81.834 11.5 -105.501 34.5
s-35.5 52.167 -35.5 87.5c0 46 14.5 81 43.5 105s73.833 36 134.5 36c43.333 0 82.666 -3.66699 117.999 -11v56c-0.000976562 18 -2.83398 33 -8.49902 45c-5.66699 12 -13.334 21.5 -23 28.5c-9.66699 7 -21.167 11.833 -34.5 14.5s-28 4 -44 4
c-14.667 0 -28.667 -1 -42 -3s-25.666 -4.66699 -36.999 -8c-2 -24.667 -7.33301 -46 -16 -64h-53v108zM130.998 175.998c-8 -14 -11.998 -32.6641 -11.998 -55.9971c0 -16.667 5.66699 -32 17 -46s31.666 -21 60.999 -21c32 0 59.833 6.33301 83.5 19
s43.167 26.667 58.5 42v69c-18 4 -37.167 6.83301 -57.5 8.49902c-20.333 1.66797 -41.166 2.50098 -62.499 2.49902c-20.667 -0.000976562 -38.334 -1.66797 -53.001 -5.00098c-14.667 -3.33398 -26.334 -7.66699 -35.001 -13zM81 543.001
c0 32 8.00195 55.168 24.002 69.501s36 21.5 60 21.5c12 0 25.833 -1.33301 41.5 -4s31.167 -5.66699 46.5 -9s29.833 -6.33301 43.5 -9s24.5 -4 32.5 -4c7.33496 10.668 12.668 26.001 16 46h51v-11c-0.00292969 -16.667 -2.33594 -30.667 -7 -42
c-4.66699 -11.3359 -11 -20.5029 -18.999 -27.501c-8 -7.00391 -17.167 -12.1709 -27.5 -15.5c-10.333 -3.3418 -20.833 -5.00879 -31.5 -5c-12 0.00878906 -25.5 1.3418 -40.5 4c-15 2.66699 -30.167 5.66699 -45.5 9s-29.833 6.33301 -43.5 9
c-13.667 2.67578 -24.834 4.00879 -33.501 4c-3.33398 -5.33301 -6.50098 -11.833 -9.50098 -19.5c-3.00098 -7.66699 -5.16797 -16.5 -6.50098 -26.5h-51v10z" />
    <glyph glyph-name="adieresis" unicode="&#xe4;" horiz-adv-x="508" 
d="M81 422c26.667 10.667 54.165 18.332 82.498 22.999s53.5 7 75.5 7c32 0 59 -3.5 81 -10.5s39.833 -17 53.5 -30c13.667 -13.001 23.5 -28.334 29.5 -46c6 -17.667 9 -36.834 9 -57.5v-229c0 -18.667 7 -28 21 -28c7.33496 0 15.002 1.5 23.001 4.5
c8 3 16 6.16699 24 9.5v-56c-9.33301 -6 -20.166 -10.833 -32.499 -14.5s-23.5 -5.5 -33.5 -5.5c-25.333 0 -43.5 6.5 -54.5 19.5s-17.5 28.5 -19.5 46.5c-16.667 -17.333 -37.667 -32.666 -63 -45.999s-56.333 -20 -93 -20c-46.667 0 -81.834 11.5 -105.501 34.5
s-35.5 52.167 -35.5 87.5c0 46 14.5 81 43.5 105s73.833 36 134.5 36c43.333 0 82.666 -3.66699 117.999 -11v56c-0.000976562 18 -2.83398 33 -8.49902 45c-5.66699 12 -13.334 21.5 -23 28.5c-9.66699 7 -21.167 11.833 -34.5 14.5s-28 4 -44 4
c-14.667 0 -28.667 -1 -42 -3s-25.666 -4.66699 -36.999 -8c-2 -24.667 -7.33301 -46 -16 -64h-53v108zM130.998 175.998c-8 -14 -11.998 -32.6641 -11.998 -55.9971c0 -16.667 5.66699 -32 17 -46s31.666 -21 60.999 -21c32 0 59.833 6.33301 83.5 19
s43.167 26.667 58.5 42v69c-18 4 -37.167 6.83301 -57.5 8.49902c-20.333 1.66797 -41.166 2.50098 -62.499 2.49902c-20.667 -0.000976562 -38.334 -1.66797 -53.001 -5.00098c-14.667 -3.33398 -26.334 -7.66699 -35.001 -13zM199 582.001
c0 -13.333 -4.66699 -24.8311 -14 -34.498s-21.666 -14.5 -36.999 -14.5c-15.333 0.00585938 -27.5 4.83887 -36.5 14.499c-9 9.66699 -13.5 21.167 -13.5 34.5c0 14.001 4.5 25.834 13.5 35.499c9 9.67188 21.167 14.5049 36.5 14.5c15.333 0 27.666 -4.83301 36.999 -14.5
s14 -21.5 14 -35.5zM374 582.003c0 -13.333 -4.66895 -24.8311 -14.002 -34.498s-21.666 -14.5 -36.999 -14.5c-15.333 0.00585938 -27.5 4.83887 -36.5 14.499c-9 9.66699 -13.5 21.167 -13.5 34.5c0 14.001 4.5 25.834 13.5 35.499c9 9.67188 21.167 14.5049 36.5 14.5
c15.334 0 27.667 -4.83301 37 -14.5c9.33496 -9.66699 14.002 -21.5 14.001 -35.5z" />
    <glyph glyph-name="aring" unicode="&#xe5;" horiz-adv-x="508" 
d="M81 422c26.667 10.667 54.165 18.332 82.498 22.999s53.5 7 75.5 7c32 0 59 -3.5 81 -10.5s39.833 -17 53.5 -30c13.667 -13.001 23.5 -28.334 29.5 -46c6 -17.667 9 -36.834 9 -57.5v-229c0 -18.667 7 -28 21 -28c7.33496 0 15.002 1.5 23.001 4.5
c8 3 16 6.16699 24 9.5v-56c-9.33301 -6 -20.166 -10.833 -32.499 -14.5s-23.5 -5.5 -33.5 -5.5c-25.333 0 -43.5 6.5 -54.5 19.5s-17.5 28.5 -19.5 46.5c-16.667 -17.333 -37.667 -32.666 -63 -45.999s-56.333 -20 -93 -20c-46.667 0 -81.834 11.5 -105.501 34.5
s-35.5 52.167 -35.5 87.5c0 46 14.5 81 43.5 105s73.833 36 134.5 36c43.333 0 82.666 -3.66699 117.999 -11v56c-0.000976562 18 -2.83398 33 -8.49902 45c-5.66699 12 -13.334 21.5 -23 28.5c-9.66699 7 -21.167 11.833 -34.5 14.5s-28 4 -44 4
c-14.667 0 -28.667 -1 -42 -3s-25.666 -4.66699 -36.999 -8c-2 -24.667 -7.33301 -46 -16 -64h-53v108zM130.998 175.998c-8 -14 -11.998 -32.6641 -11.998 -55.9971c0 -16.667 5.66699 -32 17 -46s31.666 -21 60.999 -21c32 0 59.833 6.33301 83.5 19
s43.167 26.667 58.5 42v69c-18 4 -37.167 6.83301 -57.5 8.49902c-20.333 1.66797 -41.166 2.50098 -62.499 2.49902c-20.667 -0.000976562 -38.334 -1.66797 -53.001 -5.00098c-14.667 -3.33398 -26.334 -7.66699 -35.001 -13zM352 617.001
c0 -13.333 -2.49902 -26.332 -7.49902 -38.999s-12.167 -24 -21.5 -34c-9.33301 -10.0029 -20.833 -18.1699 -34.5 -24.5c-13.667 -6.33691 -29.167 -9.50391 -46.5 -9.5c-17.333 0 -32.833 3 -46.5 9c-13.667 6.00293 -25.167 13.8359 -34.5 23.5
c-9.33398 9.66797 -16.501 21.001 -21.501 34c-5 13 -7.5 26.5 -7.5 40.5s2.66699 27.5 8 40.5c5.33301 13.001 12.833 24.334 22.5 33.999c9.66699 9.6709 21.167 17.5039 34.5 23.5c13.333 6 28.333 9 45 9c17.333 0 32.833 -3 46.5 -9s25.167 -13.833 34.5 -23.5
c9.33398 -9.66699 16.501 -21 21.5 -34c5 -13 7.5 -26.5 7.5 -40.5zM310.001 617.002c-0.000976562 19.333 -5.83398 35.6699 -17.5 49.0029c-11.667 13.333 -28.167 20 -49.5 20c-22 -0.00292969 -39 -6.66992 -51 -20.001c-12 -13.334 -18 -29.667 -18 -49
c0 -19.335 6 -35.668 18 -49c12 -13.3359 29 -20.0029 51 -20.001c21.333 0 37.833 6.66699 49.5 20s17.5 29.666 17.5 48.999z" />
    <glyph glyph-name="ae" unicode="&#xe6;" horiz-adv-x="800" 
d="M81 422c25.333 9.33398 52.0029 16.667 80.0029 22c28 5.33496 54 8.00195 78 8c43.333 0 77.5 -6.5 102.5 -19.5c25 -13.001 43.167 -30.834 54.5 -53.5c18 21.333 40.5 38.833 67.5 52.5s60.5 20.5 100.5 20.5c22.667 0 44.334 -3 65 -9
c20.668 -6.00098 39.001 -15.834 55 -29.499c16.001 -13.667 28.834 -31.334 38.499 -53c9.6748 -21.667 14.5078 -48.167 14.499 -79.5c0 -13.333 -0.333008 -26.833 -1 -40.5s-1.33398 -24.167 -2.00098 -31.5h-320c0.666992 -53.333 14 -93 40 -119s64 -39 114 -39
c31.333 0 61.5 4.16699 90.5 12.5c29.001 8.33301 52.834 17.166 71.5 26.499v-63c-15.333 -9.33301 -37.333 -18 -66 -26s-64.334 -12 -107.001 -12c-46 0 -83.833 7.5 -113.499 22.5c-29.667 15 -52.834 35.167 -69.5 60.5c-8.66699 -10 -19.167 -19.833 -31.5 -29.5
s-26.5 -18.5 -42.5 -26.5s-33.667 -14.5 -53 -19.5s-40.333 -7.5 -63 -7.5c-48 0 -83.5 11.667 -106.5 35s-34.5 53 -34.5 89c0 45.333 14.333 79.833 43 103.5s72.667 35.5 132 35.5c45.333 -0.000976562 85.666 -3.66797 120.999 -11.001v56
c-0.000976562 18 -2.83398 33 -8.49902 45c-5.66699 12 -13.334 21.5 -23 28.5c-9.66699 7 -21.167 11.833 -34.5 14.5s-28 4 -44 4c-14.667 0 -28.5 -1 -41.5 -3s-25.167 -4.66699 -36.5 -8c-2 -25.333 -7.66699 -46.666 -17 -63.999h-53v108zM132.003 176
c-8.66699 -12.667 -13.001 -30.998 -13.001 -54.998c0 -19.333 5.83301 -35.5 17.5 -48.5s32.5 -19.5 62.5 -19.5c16.667 0 32.667 2 48 6s29.333 9.16699 42 15.5s24.167 13.333 34.5 21c10.334 7.66699 19.501 15.5 27.5 23.5c-6 20 -10 41.333 -12 64
c-18 4 -37.167 6.83301 -57.5 8.49902c-20.333 1.66797 -41.166 2.50098 -62.499 2.49902c-40.667 0 -69.667 -6 -87 -18zM455.002 358.002c-7.33301 -8 -14.499 -19.835 -21.499 -35.501c-7 -15.667 -12.167 -34.5 -15.5 -56.5h243v16
c-0.00390625 36.667 -9.1709 64 -27.501 82c-18.333 18 -44.833 27 -79.5 27c-21.333 0 -40.333 -3.16699 -57 -9.5s-30.667 -14.166 -42 -23.499z" />
    <glyph glyph-name="ccedilla" unicode="&#xe7;" horiz-adv-x="489" 
d="M239 -218c-12 -0.000976562 -26.3311 1.83008 -42.998 5.49805c-16.667 3.66602 -30.667 8.83301 -42 15.5l15 37c11.333 -5.33301 23.333 -9.33301 36 -12s24.334 -4 35 -4c20 0 35.167 4.66699 45.5 14c10.334 9.33301 15.501 20.666 15.5 33.999
c0 9.33301 -3.5 17.5 -10.5 24.5s-18.167 10.5 -33.5 10.5c-4.66699 0.000976562 -10 -0.332031 -16 -0.999023c-6 -0.666016 -12 -1.99902 -18 -3.99902l-17 10l27 79c-33.333 3.33301 -61.5 11.333 -84.5 24s-41.833 28.334 -56.5 47.001s-25.167 40 -31.5 64
s-9.5 49.333 -9.5 76c0 78.667 20.5 140 61.5 184s99.5 66 175.5 66c60.667 -0.000976562 108.334 -7.33398 143.001 -21.999v-127h-54c-11.333 24.667 -18 50 -20 76c-23.333 6 -49.666 9 -78.999 9c-14.667 0 -33 -2 -55 -6c-22 -4.00098 -40.333 -11.334 -55 -22
c-9.33398 -10 -18.667 -28 -28 -54c-9.33398 -26 -14.001 -58 -14.001 -96c0 -19.333 2.33301 -38.5 6.99902 -57.5c4.66699 -19 12.667 -36 24 -51s26.666 -27.167 45.999 -36.5s43.666 -14 72.999 -14c37.334 0 69.001 3.83301 95.001 11.5s46 14.834 60 21.501v-63
c-12 -6 -31.5 -12.667 -58.5 -20s-60.5 -11.333 -100.5 -12l-13 -47c3.33496 0.666016 6.66797 0.999023 9.99902 0.999023h9c28 0 48.833 -6.83301 62.5 -20.5s20.5 -29.5 20.5 -47.5c0 -24.667 -10 -46.334 -30 -65.001s-50.667 -28 -92 -28z" />
    <glyph glyph-name="egrave" unicode="&#xe8;" horiz-adv-x="520" 
d="M290 507c-17.333 16.668 -34.168 33.3359 -50.501 50.002c-16.333 16.667 -31.166 32.834 -44.499 48.5c-13.334 15.668 -24.667 30.835 -34 45.5c-9.33301 14.6689 -16 29.002 -20 43l59 34c13.333 -28.667 31 -59.334 53 -92.001s46.333 -66.334 73 -101.001z
M50.998 202.001c0 40 5.66309 75.6621 16.9961 106.995c11.333 31.334 27 57.501 47 78.501s43.667 37 71 48s57.333 16.5 90 16.5c25.333 0 49 -3 71 -9c22 -6.00098 41 -15.834 57 -29.499c16 -13.667 28.667 -31.5 38 -53.499c9.33496 -22 14.002 -49.333 14 -82
c-0.0136719 -12 -0.34668 -24.667 -0.999023 -38c-0.680664 -13.333 -1.34766 -23.666 -2 -30.999h-327c1.33301 -105.333 54.333 -158 159 -158c32 0 62.667 4.16699 92 12.5s53.333 17.166 72 26.499v-63c-15.333 -9.33301 -38.166 -18 -68.499 -26
s-66.166 -12 -107.499 -12c-40.667 0 -75.167 5.66699 -103.5 17s-51.166 26.833 -68.499 46.5s-30 42.334 -38 68.001s-12 52.834 -12 81.501zM167.994 360.996c-7.33398 -9.33301 -14.5 -21.834 -21.5 -37.501s-12.5 -34.834 -16.5 -57.5h250v16
c0 72.667 -36.667 109 -110 109c-19.333 0 -38.333 -2.66699 -57 -8s-33.667 -12.666 -45 -21.999z" />
    <glyph glyph-name="eacute" unicode="&#xe9;" horiz-adv-x="520" 
d="M201 545c36.667 25.333 70.668 50 102.001 74s57.666 47.667 78.999 71l46 -52c-8.66699 -12.001 -20.167 -23.668 -34.5 -35c-14.333 -11.334 -30.5 -22.501 -48.5 -33.5c-18 -11.001 -37 -21.668 -57 -32c-20 -10.335 -40.333 -20.502 -61 -30.5zM51.001 202
c0 40 5.66211 75.6611 16.9951 106.994c11.333 31.334 27 57.501 47 78.501s43.667 37 71 48s57.333 16.5 90 16.5c25.334 0 49.001 -3 71.001 -9c22 -6.00098 41 -15.834 57 -29.499c16 -13.667 28.667 -31.5 38 -53.499c9.33496 -22 14.002 -49.333 14 -81.999
c-0.0136719 -12 -0.34668 -24.667 -0.999023 -38c-0.680664 -13.333 -1.34766 -23.666 -2 -30.999h-327c1.33301 -105.333 54.333 -158 159 -158c32 0 62.667 4.16699 92 12.5s53.333 17.166 72 26.499v-63c-15.333 -9.33301 -38.166 -18 -68.499 -26
s-66.166 -12 -107.499 -12c-40.667 0 -75.167 5.66699 -103.5 17s-51.166 26.833 -68.499 46.5s-30 42.334 -38 68.001s-12 52.834 -12 81.501zM167.996 360.994c-7.33398 -9.33301 -14.5 -21.834 -21.5 -37.501s-12.5 -34.834 -16.5 -57.5h250v16
c0 72.667 -36.667 109 -110 109c-19.333 0 -38.333 -2.66699 -57 -8s-33.667 -12.666 -45 -21.999z" />
    <glyph glyph-name="ecircumflex" unicode="&#xea;" horiz-adv-x="520" 
d="M51 202c0 40 5.66309 75.6611 16.9961 106.994c11.333 31.334 27 57.501 47 78.501s43.667 37 71 48s57.333 16.5 90 16.5c25.333 0 49 -3 71 -9c22 -6.00098 41 -15.834 57 -29.499c16 -13.667 28.667 -31.5 38 -53.499c9.33496 -22 14.002 -49.333 14 -81.999
c-0.0136719 -12 -0.34668 -24.667 -0.999023 -38c-0.680664 -13.333 -1.34766 -23.666 -2 -30.999h-327c1.33301 -105.333 54.333 -158 159 -158c32 0 62.667 4.16699 92 12.5s53.333 17.166 72 26.499v-63c-15.333 -9.33301 -38.166 -18 -68.499 -26
s-66.166 -12 -107.499 -12c-40.667 0 -75.167 5.66699 -103.5 17s-51.166 26.833 -68.499 46.5s-30 42.334 -38 68.001s-12 52.834 -12 81.501zM167.996 360.994c-7.33398 -9.33301 -14.5 -21.834 -21.5 -37.501s-12.5 -34.834 -16.5 -57.5h250v16
c0 72.667 -36.667 109 -110 109c-19.333 0 -38.333 -2.66699 -57 -8s-33.667 -12.666 -45 -21.999zM264.997 600.993c-13.333 -11.334 -33 -25.5 -59 -42.499c-26 -17 -53.667 -33.5 -83 -49.5l-24 37c25.333 18.667 50.833 38.167 76.5 58.5s53.5 45.5 83.5 75.5h12
c29.333 -29.333 57.166 -54.333 83.499 -75c26.334 -20.667 52.167 -40.334 77.5 -59.001l-24 -37c-30 16 -57.833 32.5 -83.499 49.5c-25.667 17 -45.5 31.167 -59.5 42.5z" />
    <glyph glyph-name="edieresis" unicode="&#xeb;" horiz-adv-x="520" 
d="M51 202c0 40 5.66309 75.6611 16.9961 106.994c11.333 31.334 27 57.501 47 78.501s43.667 37 71 48s57.333 16.5 90 16.5c25.333 0 49 -3 71 -9c22 -6.00098 41 -15.834 57 -29.499c16 -13.667 28.667 -31.5 38 -53.499c9.33496 -22 14.002 -49.333 14 -81.999
c-0.0136719 -12 -0.34668 -24.667 -0.999023 -38c-0.680664 -13.333 -1.34766 -23.666 -2 -30.999h-327c1.33301 -105.333 54.333 -158 159 -158c32 0 62.667 4.16699 92 12.5s53.333 17.166 72 26.499v-63c-15.333 -9.33301 -38.166 -18 -68.499 -26
s-66.166 -12 -107.499 -12c-40.667 0 -75.167 5.66699 -103.5 17s-51.166 26.833 -68.499 46.5s-30 42.334 -38 68.001s-12 52.834 -12 81.501zM167.996 360.994c-7.33398 -9.33301 -14.5 -21.834 -21.5 -37.501s-12.5 -34.834 -16.5 -57.5h250v16
c0 72.667 -36.667 109 -110 109c-19.333 0 -38.333 -2.66699 -57 -8s-33.667 -12.666 -45 -21.999zM234.997 581.993c-0.000976562 -13.333 -4.66699 -24.8311 -14 -34.498s-21.666 -14.5 -36.999 -14.5c-15.333 0.00585938 -27.5 4.83887 -36.5 14.499
c-9 9.66699 -13.5 21.167 -13.5 34.5c0 14.001 4.5 25.834 13.5 35.499c9 9.67188 21.167 14.5049 36.5 14.5c15.333 0 27.666 -4.83301 36.999 -14.5s14 -21.5 14 -35.5zM409.998 581.995c0 -13.333 -4.66895 -24.8311 -14.002 -34.498s-21.666 -14.5 -36.999 -14.5
c-15.333 0.00585938 -27.5 4.83887 -36.5 14.499c-9 9.66699 -13.5 21.167 -13.5 34.5c0 14.001 4.5 25.834 13.5 35.499c9 9.67188 21.167 14.5049 36.5 14.5c15.334 0 27.667 -4.83301 37 -14.5c9.33594 -9.66699 14.0029 -21.5 14.001 -35.5z" />
    <glyph glyph-name="igrave" unicode="&#xec;" horiz-adv-x="283" 
d="M134 507c-26 46 -46.333 85.668 -61 119.001s-22 62.666 -22 87.999l67 15c4 -31.334 11 -63.167 21 -95.5c10 -32.334 22.667 -69.167 38 -110.5zM39 441.001l143.999 -0.00195312v-383c27.333 -1.33301 49.666 -6.66602 66.999 -15.999v-42h-209v42
c8 5.33301 18 9.16602 30 11.499s25 3.83301 39 4.5v319c-15.333 0.666992 -28.666 2.33398 -39.999 5.00098s-21.666 6.33398 -30.999 11.001v48z" />
    <glyph glyph-name="iacute" unicode="&#xed;" horiz-adv-x="283" 
d="M65 539c32 31.333 61.168 61.667 87.501 91s48.166 57 65.499 83l54 -43c-13.333 -27.334 -36.5 -54.501 -69.5 -81.5c-33 -27 -68.167 -54.5 -105.5 -82.5zM39.001 441.001l143.999 -0.00195312v-383c27.333 -1.33301 49.666 -6.66602 66.999 -15.999v-42h-209v42
c8 5.33301 18 9.16602 30 11.499s25 3.83301 39 4.5v319c-15.333 0.666992 -28.666 2.33398 -39.999 5.00098s-21.666 6.33398 -30.999 11.001v48z" />
    <glyph glyph-name="icircumflex" unicode="&#xee;" horiz-adv-x="283" 
d="M122 680c19.333 -23.334 40.667 -46.9961 64 -70.9951c23.333 -24.001 46.333 -46.668 69 -68.001l-29 -32c-21.333 15.333 -41.833 31.166 -61.5 47.499s-35.834 30.166 -48.501 41.499c-2 -2.00684 -6.83301 -6.17383 -14.5 -12.5
c-7.66699 -6.33691 -16.834 -14.0039 -27.501 -23.001c-10.667 -9.00195 -22.167 -18.1689 -34.5 -27.5c-12.333 -9.33496 -23.833 -18.002 -34.5 -26l-29 32c22.667 21.333 45.334 43.666 68.001 66.999s44.334 47.333 65.001 72h13zM39.001 441.005l143.999 -0.00195312
v-383c27.333 -1.33301 49.666 -6.66602 66.999 -15.999v-42h-209v42c8 5.33301 18 9.16602 30 11.499s25 3.83301 39 4.5v319c-15.333 0.666992 -28.666 2.33398 -39.999 5.00098s-21.666 6.33398 -30.999 11.001v48z" />
    <glyph glyph-name="idieresis" unicode="&#xef;" horiz-adv-x="283" 
d="M94 582c0 -13.333 -4.66699 -24.832 -14 -34.499s-21.666 -14.5 -36.999 -14.5c-15.333 0.00585938 -27.5 4.83887 -36.5 14.499c-9 9.66699 -13.5 21.167 -13.5 34.5c0 14.001 4.5 25.834 13.5 35.5c9 9.67188 21.167 14.5049 36.5 14.5
c15.333 0 27.666 -4.83301 36.999 -14.5s14 -21.5 14 -35.5zM259 582.001c-0.000976562 -13.333 -4.66699 -24.8311 -14 -34.498s-21.666 -14.5 -36.999 -14.5c-15.333 0.00585938 -27.5 4.83887 -36.5 14.499c-9 9.66699 -13.5 21.167 -13.5 34.5
c0 14.001 4.5 25.834 13.5 35.499c9 9.67188 21.167 14.5049 36.5 14.5c15.333 0 27.666 -4.83301 36.999 -14.5s14 -21.5 14 -35.5zM39.001 441.003l143.999 -0.00195312v-383c27.333 -1.33301 49.666 -6.66602 66.999 -15.999v-42h-209v42c8 5.33301 18 9.16602 30 11.499
s25 3.83301 39 4.5v319c-15.333 0.666992 -28.666 2.33398 -39.999 5.00098s-21.666 6.33398 -30.999 11.001v48z" />
    <glyph glyph-name="eth" unicode="&#xf0;" horiz-adv-x="575" 
d="M209 538l83.9971 52.002c-22 13.333 -46.667 23.5 -74 30.5s-57 10.5 -89 10.5c-10.667 -0.0195312 -20.834 -0.186523 -30.501 -0.500977c-9.66699 -0.333008 -18.167 -0.833008 -25.5 -1.5l5 61c4 0.6875 9 1.02051 15 0.999023l18 1
c6 0.6875 11.333 1.02051 16 0.999023h10c43.333 -0.00292969 83 -5.66992 119 -17.001c36 -11.335 68.333 -27.002 97 -47.001l135 85l-1 -62l-92 -58c31.334 -32 55.167 -69.333 71.5 -112c16.334 -42.667 24.501 -89 24.5 -139c0 -27.333 -1 -53.333 -3 -78
c-2.00195 -24.667 -5.33496 -47.667 -10 -69c-13.333 -65.333 -37.666 -116.166 -72.999 -152.499s-84.333 -54.5 -147 -54.5c-63.333 0 -113.666 18.333 -150.999 55s-56 88.667 -56 156c0 36.667 5 69.834 15 99.501s24.167 54.834 42.5 75.501s40.5 36.5 66.5 47.5
s55 16.5 87 16.5c32.667 0 62.334 -4.5 89.001 -13.5s49 -21.167 67 -36.5c-9.33301 69.334 -36.666 125.334 -81.999 168l-128 -81v62zM378.997 87.002c15.334 32 26.168 68 32.501 108c6.33496 40 10.168 80.667 11.5 122c-20 18 -44.333 32 -72.999 42
c-28.667 10 -58.334 15 -89.001 15c-17.333 0 -34.833 -2.16699 -52.5 -6.5s-32.834 -11.833 -45.501 -22.5c-6.66699 -9.33301 -12.334 -20 -17.001 -32s-8.33398 -24.333 -11.001 -36.999c-2.66699 -12.667 -4.66699 -24.834 -6 -36.501s-2 -21.5 -2 -29.5
c0 -30 4 -55.167 12 -75.5s18.667 -36.833 32 -49.5s28.5 -21.667 45.5 -27s34.833 -8 53.5 -8c21.334 0 41.501 3.33301 60.501 10c19.001 6.66699 35.168 15.667 48.501 27z" />
    <glyph glyph-name="ntilde" unicode="&#xf1;" horiz-adv-x="579" 
d="M154 543c0 32 8.00195 55.168 24.002 69.501s36 21.5 60 21.5c12 0 25.833 -1.33301 41.5 -4s31.167 -5.66699 46.5 -9s29.833 -6.33301 43.5 -9s24.5 -4 32.5 -4c7.33496 10.668 12.668 26.001 16 46h51v-11c-0.00585938 -16.667 -2.33887 -30.667 -7 -42
c-4.66797 -11.3359 -11.001 -20.5029 -19 -27.501c-8 -7.00391 -17.167 -12.1709 -27.5 -15.5c-10.333 -3.3418 -20.833 -5.00879 -31.5 -5c-12 0.00878906 -25.5 1.3418 -40.5 4c-15 2.66699 -30.167 5.66699 -45.5 9s-29.833 6.33301 -43.5 9
c-13.667 2.67578 -24.834 4.00879 -33.501 4c-3.33398 -5.33301 -6.50098 -11.833 -9.50098 -19.5c-3.00098 -7.66699 -5.16797 -16.5 -6.5 -26.5h-51v10zM346.002 42.001c8.00098 5.33301 17.6631 9.16016 28.9961 11.4932c11.334 2.33301 23.667 3.83301 37 4.5v242
c-0.000976562 28.667 -7.83398 49.834 -23.5 63.501c-15.667 13.667 -37.5 20.5 -65.5 20.5c-21.333 0 -44.5 -5.5 -69.5 -16.5s-48.5 -27.167 -70.5 -48.5v-261c26.667 -1.33301 49 -6.66602 67 -15.999v-42h-209v42c17.333 9.33301 40.333 14.666 69 15.999v319h-4
c-11.333 0.666992 -23.166 2.33398 -35.499 5.00098s-22.166 6.33398 -29.499 11.001v48h122c5.33301 -7.33301 9 -16.666 11 -27.999c2.00098 -11.333 3.33398 -23.666 4 -36.999c21.333 21.333 45.833 39.333 73.5 54s57.834 22 90.501 22
c42.667 0 77.167 -11.167 103.5 -33.5c26.334 -22.333 39.501 -56.166 39.501 -101.499v-259c11.333 -0.666992 22.833 -2.16699 34.5 -4.5s22.167 -6.16602 31.5 -11.499v-42h-205v42z" />
    <glyph glyph-name="ograve" unicode="&#xf2;" horiz-adv-x="549" 
d="M299 507c-17.333 16.668 -34.1689 33.3359 -50.502 50.002c-16.333 16.667 -31.166 32.834 -44.499 48.5c-13.333 15.668 -24.666 30.835 -33.999 45.5c-9.33301 14.6689 -16 29.002 -20 43l59 34c13.333 -28.667 31 -59.334 53 -92.001s46.333 -66.334 73 -101.001z
M271.997 390.001c-22 -0.00195312 -42.833 -2.83496 -62.5 -8.5c-19.667 -5.66699 -34.167 -13.167 -43.5 -22.5c-10.667 -14.667 -19.834 -34.5 -27.501 -59.5s-11.5 -53.5 -11.5 -85.5c0 -56 13 -97.167 39 -123.5s62.667 -39.5 110 -39.5
c20.667 0 40.834 2.66699 60.501 8s35.167 12.666 46.5 21.999c12 16.667 21.5 37.834 28.5 63.501s10.5 54.167 10.5 85.5c0 53.333 -12.833 93.333 -38.499 120c-25.667 26.667 -62.834 40 -111.501 40zM51.9971 206.001c0 34.667 4.83203 67 14.499 97s24 56 43 78
s42.833 39.333 71.5 52s62.334 19 101.001 19c36 0 67.333 -5.16699 94 -15.5s49 -24.833 67 -43.5s31.5 -41.167 40.5 -67.5s13.5 -55.833 13.5 -88.5c-0.00292969 -36.667 -4.83594 -70.167 -14.5 -100.5c-9.66699 -30.333 -24.334 -56.5 -44 -78.5
c-19.667 -22 -43.834 -39 -72.5 -51c-28.667 -12 -62 -18 -100 -18c-66 0 -118.167 18.167 -156.5 54.5s-57.5 90.5 -57.5 162.5z" />
    <glyph glyph-name="oacute" unicode="&#xf3;" horiz-adv-x="549" 
d="M209 545c36.667 25.333 70.667 50 102 74c31.334 24 57.667 47.667 79 71l46 -52c-8.66699 -12.001 -20.167 -23.668 -34.5 -35c-14.333 -11.334 -30.5 -22.501 -48.5 -33.5c-18 -11.001 -37 -21.668 -57 -32c-20 -10.335 -40.333 -20.502 -61 -30.5zM272 390
c-22 -0.00195312 -42.834 -2.83496 -62.501 -8.5c-19.667 -5.66699 -34.167 -13.167 -43.5 -22.5c-10.667 -14.667 -19.834 -34.5 -27.501 -59.5s-11.5 -53.5 -11.5 -85.5c0 -56 13 -97.167 39 -123.5s62.667 -39.5 110 -39.5c20.667 0 40.834 2.66699 60.501 8
s35.167 12.666 46.5 21.999c12 16.667 21.5 37.834 28.5 63.501s10.5 54.167 10.5 85.5c0 53.333 -12.833 93.333 -38.499 120c-25.667 26.667 -62.834 40 -111.5 40zM51.999 206c0 34.667 4.83203 67 14.499 97s24 56 43 78s42.833 39.333 71.5 52s62.334 19 101.001 19
c36 0 67.333 -5.16699 94 -15.5s49 -24.833 67 -43.5s31.5 -41.167 40.5 -67.5s13.5 -55.833 13.5 -88.5c-0.00292969 -36.667 -4.83594 -70.167 -14.5 -100.5c-9.66699 -30.333 -24.334 -56.5 -44 -78.5c-19.667 -22 -43.834 -39 -72.5 -51c-28.667 -12 -62 -18 -100 -18
c-66 0 -118.167 18.167 -156.5 54.5s-57.5 90.5 -57.5 162.5z" />
    <glyph glyph-name="ocircumflex" unicode="&#xf4;" horiz-adv-x="549" 
d="M275 601c-13.333 -11.334 -33 -25.5 -59 -42.499c-26 -17 -53.667 -33.5 -83 -49.5l-24 37c25.333 18.667 50.833 38.167 76.5 58.5s53.5 45.5 83.5 75.5h12c29.333 -29.333 57.166 -54.333 83.499 -75c26.334 -20.667 52.167 -40.334 77.5 -59.001l-24 -37
c-30 16 -57.833 32.5 -83.499 49.5c-25.667 17 -45.5 31.167 -59.5 42.5zM272 390.001c-22 -0.00195312 -42.834 -2.83496 -62.501 -8.5c-19.667 -5.66699 -34.167 -13.167 -43.5 -22.5c-10.667 -14.667 -19.834 -34.5 -27.501 -59.5s-11.5 -53.5 -11.5 -85.5
c0 -56 13 -97.167 39 -123.5s62.667 -39.5 110 -39.5c20.667 0 40.834 2.66699 60.501 8s35.167 12.666 46.5 21.999c12 16.667 21.5 37.834 28.5 63.501s10.5 54.167 10.5 85.5c0 53.333 -12.833 93.333 -38.499 120c-25.667 26.667 -62.834 40 -111.5 40zM51.999 206.001
c0 34.667 4.83203 67 14.499 97s24 56 43 78s42.833 39.333 71.5 52s62.334 19 101.001 19c36 0 67.333 -5.16699 94 -15.5s49 -24.833 67 -43.5s31.5 -41.167 40.5 -67.5s13.5 -55.833 13.5 -88.5c-0.00292969 -36.667 -4.83594 -70.167 -14.5 -100.5
c-9.66699 -30.333 -24.334 -56.5 -44 -78.5c-19.667 -22 -43.834 -39 -72.5 -51c-28.667 -12 -62 -18 -100 -18c-66 0 -118.167 18.167 -156.5 54.5s-57.5 90.5 -57.5 162.5z" />
    <glyph glyph-name="otilde" unicode="&#xf5;" horiz-adv-x="549" 
d="M117 543c0 32 8.00098 55.168 24.001 69.501s36 21.5 60 21.5c12 0 25.833 -1.33301 41.5 -4s31.167 -5.66699 46.5 -9s29.833 -6.33301 43.5 -9s24.5 -4 32.5 -4c7.33496 10.668 12.668 26.001 16 46h51v-11c-0.00292969 -16.667 -2.33594 -30.667 -6.99902 -42
c-4.66699 -11.3359 -11 -20.5029 -18.999 -27.501c-8 -7.00391 -17.167 -12.1709 -27.5 -15.5c-10.333 -3.3418 -20.833 -5.00879 -31.5 -5c-12 0.00878906 -25.5 1.3418 -40.5 4c-15 2.66699 -30.167 5.66699 -45.5 9s-29.833 6.33301 -43.5 9
c-13.667 2.67578 -24.834 4.00879 -33.501 4c-3.33398 -5.33301 -6.50098 -11.833 -9.50098 -19.5c-3.00098 -7.66699 -5.16797 -16.5 -6.50098 -26.5h-51v10zM272.001 390.001c-22 -0.00195312 -42.833 -2.83496 -62.5 -8.5c-19.667 -5.66699 -34.167 -13.167 -43.5 -22.5
c-10.667 -14.667 -19.834 -34.5 -27.501 -59.5s-11.5 -53.5 -11.5 -85.5c0 -56 13 -97.167 39 -123.5s62.667 -39.5 110 -39.5c20.667 0 40.834 2.66699 60.501 8s35.167 12.666 46.5 21.999c12 16.667 21.5 37.834 28.5 63.501s10.5 54.167 10.5 85.5
c0 53.333 -12.833 93.333 -38.499 120c-25.667 26.667 -62.834 40 -111.501 40zM52.001 206.001c0 34.667 4.83203 67 14.499 97s24 56 43 78s42.833 39.333 71.5 52s62.334 19 101.001 19c36 0 67.333 -5.16699 94 -15.5s49 -24.833 67 -43.5s31.5 -41.167 40.5 -67.5
s13.5 -55.833 13.5 -88.5c-0.00292969 -36.667 -4.83594 -70.167 -14.5 -100.5c-9.66699 -30.333 -24.334 -56.5 -44 -78.5c-19.667 -22 -43.834 -39 -72.5 -51c-28.667 -12 -62 -18 -100 -18c-66 0 -118.167 18.167 -156.5 54.5s-57.5 90.5 -57.5 162.5z" />
    <glyph glyph-name="odieresis" unicode="&#xf6;" horiz-adv-x="549" 
d="M272 390c-22 -0.00195312 -42.834 -2.83496 -62.501 -8.5c-19.667 -5.66699 -34.167 -13.167 -43.5 -22.5c-10.667 -14.667 -19.834 -34.5 -27.501 -59.5s-11.5 -53.5 -11.5 -85.5c0 -56 13 -97.167 39 -123.5s62.667 -39.5 110 -39.5c20.667 0 40.834 2.66699 60.501 8
s35.167 12.666 46.5 21.999c12 16.667 21.5 37.834 28.5 63.501s10.5 54.167 10.5 85.5c0 53.333 -12.833 93.333 -38.499 120c-25.667 26.667 -62.834 40 -111.5 40zM51.999 206c0 34.667 4.83203 67 14.499 97s24 56 43 78s42.833 39.333 71.5 52s62.334 19 101.001 19
c36 0 67.333 -5.16699 94 -15.5s49 -24.833 67 -43.5s31.5 -41.167 40.5 -67.5s13.5 -55.833 13.5 -88.5c-0.00292969 -36.667 -4.83594 -70.167 -14.5 -100.5c-9.66699 -30.333 -24.334 -56.5 -44 -78.5c-19.667 -22 -43.834 -39 -72.5 -51c-28.667 -12 -62 -18 -100 -18
c-66 0 -118.167 18.167 -156.5 54.5s-57.5 90.5 -57.5 162.5zM236.998 582c0 -13.333 -4.66602 -24.832 -13.999 -34.499c-9.33398 -9.66699 -21.667 -14.5 -37 -14.5c-15.333 0.00585938 -27.5 4.83887 -36.5 14.499c-9 9.66699 -13.5 21.167 -13.5 34.5
c0 14.001 4.5 25.834 13.5 35.5c9 9.67188 21.167 14.5049 36.5 14.5c15.333 0 27.666 -4.83301 36.999 -14.5s14 -21.5 14 -35.5zM411.999 582.001c0 -13.333 -4.66797 -24.8311 -14.001 -34.498s-21.666 -14.5 -36.999 -14.5
c-15.333 0.00585938 -27.5 4.83887 -36.5 14.499c-9 9.66699 -13.5 21.167 -13.5 34.5c0 14.001 4.5 25.834 13.5 35.499c9 9.67188 21.167 14.5049 36.5 14.5c15.334 0 27.667 -4.83301 37 -14.5c9.33496 -9.66699 14.002 -21.5 14 -35.5z" />
    <glyph glyph-name="divide" unicode="&#xf7;" horiz-adv-x="680" 
d="M133 337h414v-60h-414v60zM339 418c-14.667 0 -27 4.83203 -37 14.499s-15 22.167 -15 37.5c0 15.334 5 28.001 15 38c10 10 22.333 15 37 15c15.334 0 28.167 -5 38.5 -15c10.335 -10 15.502 -22.667 15.5 -38c0 -15.333 -5 -27.833 -15 -37.5
c-10 -9.66797 -23 -14.501 -39 -14.499zM339 90.999c-14.667 0 -27 4.83301 -37 14.5s-15 22.167 -15 37.5s5 28 15 38s22.333 15 37 15c15.334 0 28.167 -5 38.5 -15c10.335 -10 15.502 -22.667 15.5 -38c0 -15.333 -5 -27.833 -15 -37.5s-23 -14.5 -39 -14.5z" />
    <glyph glyph-name="oslash" unicode="&#xf8;" horiz-adv-x="549" 
d="M52 206c0 34.667 4.83203 67 14.499 97s24 56 43 78s42.833 39.333 71.5 52s62.334 19 101.001 19c50.667 0 93.667 -11 129 -33l28 33h70l-58 -68c30.667 -38 46 -87 46 -147c-0.00292969 -36.667 -4.83594 -70.167 -14.5 -100.5
c-9.66699 -30.333 -24.334 -56.5 -44 -78.5c-19.667 -22 -43.834 -39 -72.5 -51c-28.667 -12 -62 -18 -100 -18c-52 0 -95.333 11 -130 33l-28 -33h-69l58 68c-30 36 -45 85.667 -45 149zM421.999 230c-0.000976562 38 -7.33594 70 -22.001 96l-217 -250
c23.333 -16.667 54.333 -25 93 -25c20.667 0 40.834 2.66699 60.501 8s35.167 12.666 46.5 21.999c12 16.667 21.5 37.834 28.5 63.501s10.5 54.167 10.5 85.5zM271.997 390c-22 -0.00195312 -42.832 -2.83496 -62.499 -8.5c-19.667 -5.66699 -34.167 -13.167 -43.5 -22.5
c-10.667 -14.667 -19.834 -34.5 -27.501 -59.5s-11.5 -53.5 -11.5 -85.5c0 -41.333 7 -74.333 21 -99l216 250c-23.333 16.667 -54 25 -92 25z" />
    <glyph glyph-name="ugrave" unicode="&#xf9;" horiz-adv-x="564" 
d="M254 507c-17.333 16.668 -34.1689 33.3359 -50.502 50.002c-16.333 16.667 -31.166 32.834 -44.499 48.5c-13.333 15.668 -24.666 30.835 -33.999 45.5c-9.33301 14.6689 -16 29.002 -20 43l59 34c13.333 -28.667 31 -59.334 53 -92.001s46.333 -66.334 73 -101.001z
M23.9971 441.001l143.003 -0.00195312v-300c0 -30 8.16699 -51.667 24.5 -65s35.166 -20 56.499 -20c28.667 0 55.167 6.33301 79.5 19c24.334 12.667 45.167 27.667 62.5 45v260c-13.333 0.00585938 -25.833 1.17285 -37.5 3.5c-11.667 2.33496 -22.167 6.16797 -31.5 11.5
v46h142v-358c0.0107422 -11.333 1.17773 -19.5 3.5 -24.5c2.33301 -5 7.83301 -7.5 16.5 -7.5c7.33398 0 15.167 1.5 23.5 4.5s16.166 6.16699 23.499 9.5v-56c-9.33398 -6 -20.167 -10.833 -32.5 -14.5s-23.5 -5.5 -33.5 -5.5c-26 0 -44.5 6.83301 -55.5 20.5
s-17.167 29.834 -18.5 48.501c-20.667 -21.333 -45 -38.166 -73 -50.499s-55.667 -18.5 -83 -18.5c-18.667 0 -36.5 2.33301 -53.5 7s-31.833 12.5 -44.5 23.5s-22.834 25.333 -30.501 43s-11.5 39.5 -11.5 65.5v252c-14 0.00585938 -26.833 1.17285 -38.5 3.5
c-11.667 2.33496 -22.167 6.16797 -31.5 11.5v46z" />
    <glyph glyph-name="uacute" unicode="&#xfa;" horiz-adv-x="564" 
d="M215 545c36.667 25.333 70.667 50 102 74s57.666 47.667 78.999 71l46 -52c-8.66699 -12.001 -20.167 -23.668 -34.5 -35c-14.333 -11.334 -30.5 -22.501 -48.5 -33.5c-18 -11.001 -37 -21.668 -57 -32c-20 -10.335 -40.333 -20.502 -60.999 -30.5zM24 441
l143.003 -0.00195312v-300c0 -30 8.16699 -51.667 24.5 -65s35.166 -20 56.499 -20c28.667 0 55.167 6.33301 79.5 19c24.334 12.667 45.167 27.667 62.5 45v260c-13.333 0.00585938 -25.833 1.17285 -37.5 3.5c-11.667 2.33496 -22.167 6.16797 -31.5 11.5v46h142v-358
c0.0107422 -11.333 1.17773 -19.5 3.5 -24.5c2.33301 -5 7.83301 -7.5 16.5 -7.5c7.33398 0 15.167 1.5 23.5 4.5s16.166 6.16699 23.499 9.5v-56c-9.33398 -6 -20.167 -10.833 -32.5 -14.5s-23.5 -5.5 -33.5 -5.5c-26 0 -44.5 6.83301 -55.5 20.5
s-17.167 29.834 -18.5 48.501c-20.667 -21.333 -45 -38.166 -73 -50.499s-55.667 -18.5 -83 -18.5c-18.667 0 -36.5 2.33301 -53.5 7s-31.833 12.5 -44.5 23.5s-22.834 25.333 -30.501 43s-11.5 39.5 -11.5 65.5v252c-14 0.00585938 -26.833 1.17285 -38.5 3.5
c-11.667 2.33496 -22.167 6.16797 -31.5 11.5v46z" />
    <glyph glyph-name="ucircumflex" unicode="&#xfb;" horiz-adv-x="564" 
d="M24 441l143.003 -0.00195312v-300c0 -30 8.16699 -51.667 24.5 -65s35.166 -20 56.499 -20c28.667 0 55.167 6.33301 79.5 19c24.334 12.667 45.167 27.667 62.5 45v260c-13.333 0.00585938 -25.833 1.17285 -37.5 3.5c-11.667 2.33496 -22.167 6.16797 -31.5 11.5v46
h142v-358c0.0107422 -11.333 1.17773 -19.5 3.5 -24.5c2.33301 -5 7.83301 -7.5 16.5 -7.5c7.33398 0 15.167 1.5 23.5 4.5s16.166 6.16699 23.499 9.5v-56c-9.33398 -6 -20.167 -10.833 -32.5 -14.5s-23.5 -5.5 -33.5 -5.5c-26 0 -44.5 6.83301 -55.5 20.5
s-17.167 29.834 -18.5 48.501c-20.667 -21.333 -45 -38.166 -73 -50.499s-55.667 -18.5 -83 -18.5c-18.667 0 -36.5 2.33301 -53.5 7s-31.833 12.5 -44.5 23.5s-22.834 25.333 -30.501 43s-11.5 39.5 -11.5 65.5v252c-14 0.00585938 -26.833 1.17285 -38.5 3.5
c-11.667 2.33496 -22.167 6.16797 -31.5 11.5v46zM270.003 600.998c-13.333 -11.334 -33.001 -25.5 -59.001 -42.499c-26 -17 -53.667 -33.5 -83 -49.5l-24 37c25.333 18.667 50.833 38.167 76.5 58.5s53.5 45.5 83.5 75.5h12c29.334 -29.333 57.167 -54.333 83.5 -75
c26.334 -20.667 52.167 -40.334 77.5 -59.001l-24 -37c-30 16 -57.833 32.5 -83.499 49.5c-25.667 17 -45.5 31.167 -59.5 42.5z" />
    <glyph glyph-name="udieresis" unicode="&#xfc;" horiz-adv-x="564" 
d="M24 441l143.003 -0.00195312v-300c0 -30 8.16699 -51.667 24.5 -65s35.166 -20 56.499 -20c28.667 0 55.167 6.33301 79.5 19c24.334 12.667 45.167 27.667 62.5 45v260c-13.333 0.00585938 -25.833 1.17285 -37.5 3.5c-11.667 2.33496 -22.167 6.16797 -31.5 11.5v46
h142v-358c0.0107422 -11.333 1.17773 -19.5 3.5 -24.5c2.33301 -5 7.83301 -7.5 16.5 -7.5c7.33398 0 15.167 1.5 23.5 4.5s16.166 6.16699 23.499 9.5v-56c-9.33398 -6 -20.167 -10.833 -32.5 -14.5s-23.5 -5.5 -33.5 -5.5c-26 0 -44.5 6.83301 -55.5 20.5
s-17.167 29.834 -18.5 48.501c-20.667 -21.333 -45 -38.166 -73 -50.499s-55.667 -18.5 -83 -18.5c-18.667 0 -36.5 2.33301 -53.5 7s-31.833 12.5 -44.5 23.5s-22.834 25.333 -30.501 43s-11.5 39.5 -11.5 65.5v252c-14 0.00585938 -26.833 1.17285 -38.5 3.5
c-11.667 2.33496 -22.167 6.16797 -31.5 11.5v46zM235.003 581.998c-0.000976562 -13.333 -4.66699 -24.832 -14 -34.499s-21.666 -14.5 -36.999 -14.5c-15.333 0.00585938 -27.5 4.83887 -36.5 14.499c-9 9.66699 -13.5 21.167 -13.5 34.5c0 14.001 4.5 25.834 13.5 35.5
c9 9.67188 21.167 14.5049 36.5 14.5c15.333 0 27.666 -4.83301 36.999 -14.5s14 -21.5 14 -35.5zM410.004 581.999c0 -13.333 -4.66895 -24.8311 -14.002 -34.498s-21.666 -14.5 -36.999 -14.5c-15.333 0.00585938 -27.5 4.83887 -36.5 14.499
c-9 9.66699 -13.5 21.167 -13.5 34.5c0 14.001 4.5 25.834 13.5 35.499c9 9.67188 21.167 14.5049 36.5 14.5c15.334 0 27.667 -4.83301 37 -14.5c9.33594 -9.66699 14.0029 -21.5 14.001 -35.5z" />
    <glyph glyph-name="yacute" unicode="&#xfd;" horiz-adv-x="530" 
d="M26 -91l51 0.00195312c5.33301 -10.667 9.33301 -20.5 12 -29.5s4.66699 -19.5 6 -31.5c10.667 1.33301 21.667 4.5 33 9.5s23 13 35 24s24.167 25.5 36.5 43.5s24.833 40.667 37.5 68l1 4l-170 386c-13.333 1.33594 -25.5 3.16895 -36.5 5.49902
c-11 2.33301 -20.167 5.83301 -27.5 10.5v42h206v-42c-9.33398 -5.33301 -19.667 -9 -31 -11c-11.334 -2 -22.667 -3.66699 -34 -5l130 -300l127 300c-12.667 1.33594 -24.5 3.16895 -35.5 5.49902c-11.001 2.33301 -20.834 5.83301 -29.5 10.5v42h190v-42
c-8.00195 -4.66699 -17.835 -8.16699 -29.5 -10.5c-11.667 -2.33301 -23.167 -4.16602 -34.5 -5.49902l-174 -404c-26.667 -62 -58.167 -109 -94.5 -141s-81.5 -48 -135.5 -48c-3.33301 0 -8.33301 0.166992 -15 0.5s-12.667 1.16602 -18 2.49902v116zM198 545.002
c36.667 25.333 70.668 50 102.001 74s57.666 47.667 78.999 71l46 -52c-8.66699 -12.001 -20.167 -23.668 -34.5 -35c-14.333 -11.334 -30.5 -22.501 -48.5 -33.5c-18 -11.001 -37 -21.668 -57 -32c-20 -10.335 -40.333 -20.502 -61 -30.5z" />
    <glyph glyph-name="thorn" unicode="&#xfe;" horiz-adv-x="554" 
d="M27 -165c8 5.33301 17.8311 9.16797 29.498 11.501s24.5 3.83301 38.5 4.5v776c-16 0.680664 -30 2.51367 -42 5.49902c-12 3 -22.667 7.16699 -32 12.5v46h147v-307c18.667 20.667 40.167 37.167 64.5 49.5c24.333 12.334 52.833 18.501 85.5 18.5
c31.334 0 58.501 -5 81.501 -15s42.167 -24 57.5 -42c15.334 -18 26.667 -39.5 33.999 -64.5c7.33496 -25 11.002 -52.5 11 -82.5c0 -84 -22.167 -148 -66.5 -192s-105.166 -66 -182.499 -66c-15.333 0 -30.166 0.666992 -44.499 2s-27.833 3 -40.5 5v-146
c16 0.000976562 31.333 -1.16602 46 -3.5c14.667 -2.33301 27.667 -6.5 39 -12.5v-42h-226v42zM261.998 52.002c21.334 0 42.666 2.66699 63.999 8c21.334 5.33301 40.001 13.666 56 24.999c12.667 14.667 23.167 35.167 31.5 61.5c8.33594 26.333 12.5029 57.833 12.5 94.5
c0 44.667 -10 80.167 -30 106.5c-20 26.334 -51 39.501 -93 39.501c-27.333 0 -52.166 -6 -74.499 -18s-42.5 -27.667 -60.5 -47v-259c13.333 -3.33301 27.5 -6 42.5 -8s32.167 -3 51.5 -3z" />
    <glyph glyph-name="ydieresis" unicode="&#xff;" horiz-adv-x="530" 
d="M26 -91l51 0.00195312c5.33301 -10.667 9.33301 -20.5 12 -29.5s4.66699 -19.5 6 -31.5c10.667 1.33301 21.667 4.5 33 9.5s23 13 35 24s24.167 25.5 36.5 43.5s24.833 40.667 37.5 68l1 4l-170 386c-13.333 1.33594 -25.5 3.16895 -36.5 5.49902
c-11 2.33301 -20.167 5.83301 -27.5 10.5v42h206v-42c-9.33398 -5.33301 -19.667 -9 -31 -11c-11.334 -2 -22.667 -3.66699 -34 -5l130 -300l127 300c-12.667 1.33594 -24.5 3.16895 -35.5 5.49902c-11.001 2.33301 -20.834 5.83301 -29.5 10.5v42h190v-42
c-8.00195 -4.66699 -17.835 -8.16699 -29.5 -10.5c-11.667 -2.33301 -23.167 -4.16602 -34.5 -5.49902l-174 -404c-26.667 -62 -58.167 -109 -94.5 -141s-81.5 -48 -135.5 -48c-3.33301 0 -8.33301 0.166992 -15 0.5s-12.667 1.16602 -18 2.49902v116zM237 582.002
c0 -13.333 -4.66602 -24.832 -13.999 -34.499c-9.33398 -9.66699 -21.667 -14.5 -37 -14.5c-15.333 0.00585938 -27.5 4.83887 -36.5 14.499c-9 9.66699 -13.5 21.167 -13.5 34.5c0 14.001 4.5 25.834 13.5 35.5c9 9.67188 21.167 14.5049 36.5 14.5
c15.333 0 27.666 -4.83301 36.999 -14.5s14 -21.5 14 -35.5zM412.001 582.003c0 -13.333 -4.66797 -24.8311 -14.001 -34.498s-21.666 -14.5 -36.999 -14.5c-15.333 0.00585938 -27.5 4.83887 -36.5 14.499c-9 9.66699 -13.5 21.167 -13.5 34.5
c0 14.001 4.5 25.834 13.5 35.499c9 9.67188 21.167 14.5049 36.5 14.5c15.334 0 27.667 -4.83301 37 -14.5c9.33496 -9.66699 14.002 -21.5 14 -35.5z" />
    <glyph glyph-name="Amacron" unicode="&#x100;" horiz-adv-x="672" 
d="M-11 0l0.00195312 47.002c8 5.33301 19 9.16602 33 11.499s28.667 3.83301 44 4.5l226 591h91l222 -591c15.333 -0.666992 30 -2.33398 44 -5.00098c14.001 -2.66699 25.334 -6.66699 33.999 -12v-46h-239v46c8.66699 5.33301 20.167 9.33301 34.5 12
c14.334 2.66699 29.167 4.33398 44.5 5.00098l-53 143h-282l-54 -143c16 -0.666992 31.667 -2.33398 47 -5.00098s27.666 -6.66699 36.999 -12v-46h-229zM212.002 269.002h234l-117 311zM176.002 829.002h325v-61h-325v61z" />
    <glyph glyph-name="amacron" unicode="&#x101;" horiz-adv-x="508" 
d="M81 422c26.667 10.667 54.165 18.332 82.498 22.999s53.5 7 75.5 7c32 0 59 -3.5 81 -10.5s39.833 -17 53.5 -30c13.667 -13.001 23.5 -28.334 29.5 -46c6 -17.667 9 -36.834 9 -57.5v-229c0 -18.667 7 -28 21 -28c7.33496 0 15.002 1.5 23.001 4.5
c8 3 16 6.16699 24 9.5v-56c-9.33301 -6 -20.166 -10.833 -32.499 -14.5s-23.5 -5.5 -33.5 -5.5c-25.333 0 -43.5 6.5 -54.5 19.5s-17.5 28.5 -19.5 46.5c-16.667 -17.333 -37.667 -32.666 -63 -45.999s-56.333 -20 -93 -20c-46.667 0 -81.834 11.5 -105.501 34.5
s-35.5 52.167 -35.5 87.5c0 46 14.5 81 43.5 105s73.833 36 134.5 36c43.333 0 82.666 -3.66699 117.999 -11v56c-0.000976562 18 -2.83398 33 -8.49902 45c-5.66699 12 -13.334 21.5 -23 28.5c-9.66699 7 -21.167 11.833 -34.5 14.5s-28 4 -44 4
c-14.667 0 -28.667 -1 -42 -3s-25.666 -4.66699 -36.999 -8c-2 -24.667 -7.33301 -46 -16 -64h-53v108zM130.998 175.998c-8 -14 -11.998 -32.6641 -11.998 -55.9971c0 -16.667 5.66699 -32 17 -46s31.666 -21 60.999 -21c32 0 59.833 6.33301 83.5 19
s43.167 26.667 58.5 42v69c-18 4 -37.167 6.83301 -57.5 8.49902c-20.333 1.66797 -41.166 2.50098 -62.499 2.49902c-20.667 -0.000976562 -38.334 -1.66797 -53.001 -5.00098c-14.667 -3.33398 -26.334 -7.66699 -35.001 -13zM98 621.001h297v-59h-297v59z" />
    <glyph glyph-name="Abreve" unicode="&#x102;" horiz-adv-x="672" 
d="M-11 0l0.00195312 47.002c8 5.33301 19 9.16602 33 11.499s28.667 3.83301 44 4.5l226 591h91l222 -591c15.333 -0.666992 30 -2.33398 44 -5.00098c14.001 -2.66699 25.334 -6.66699 33.999 -12v-46h-239v46c8.66699 5.33301 20.167 9.33301 34.5 12
c14.334 2.66699 29.167 4.33398 44.5 5.00098l-53 143h-282l-54 -143c16 -0.666992 31.667 -2.33398 47 -5.00098s27.666 -6.66699 36.999 -12v-46h-229zM212.002 269.002h234l-117 311zM332.002 726.002c-45.333 0 -83.1689 13.1689 -113.502 39.502
s-49.5 61.5 -57.5 105.5l49 15c8 -29.334 22.5 -53.001 43.5 -71c21 -18 47.167 -27 78.5 -27c31.334 0 57.501 9 78.501 27s35.833 41.667 44.5 71l48 -15c-8 -44.001 -27.167 -79.168 -57.5 -105.501c-30.333 -26.335 -68.166 -39.502 -113.499 -39.501z" />
    <glyph glyph-name="abreve" unicode="&#x103;" horiz-adv-x="508" 
d="M81 422c26.667 10.667 54.165 18.332 82.498 22.999s53.5 7 75.5 7c32 0 59 -3.5 81 -10.5s39.833 -17 53.5 -30c13.667 -13.001 23.5 -28.334 29.5 -46c6 -17.667 9 -36.834 9 -57.5v-229c0 -18.667 7 -28 21 -28c7.33496 0 15.002 1.5 23.001 4.5
c8 3 16 6.16699 24 9.5v-56c-9.33301 -6 -20.166 -10.833 -32.499 -14.5s-23.5 -5.5 -33.5 -5.5c-25.333 0 -43.5 6.5 -54.5 19.5s-17.5 28.5 -19.5 46.5c-16.667 -17.333 -37.667 -32.666 -63 -45.999s-56.333 -20 -93 -20c-46.667 0 -81.834 11.5 -105.501 34.5
s-35.5 52.167 -35.5 87.5c0 46 14.5 81 43.5 105s73.833 36 134.5 36c43.333 0 82.666 -3.66699 117.999 -11v56c-0.000976562 18 -2.83398 33 -8.49902 45c-5.66699 12 -13.334 21.5 -23 28.5c-9.66699 7 -21.167 11.833 -34.5 14.5s-28 4 -44 4
c-14.667 0 -28.667 -1 -42 -3s-25.666 -4.66699 -36.999 -8c-2 -24.667 -7.33301 -46 -16 -64h-53v108zM130.998 175.998c-8 -14 -11.998 -32.6641 -11.998 -55.9971c0 -16.667 5.66699 -32 17 -46s31.666 -21 60.999 -21c32 0 59.833 6.33301 83.5 19
s43.167 26.667 58.5 42v69c-18 4 -37.167 6.83301 -57.5 8.49902c-20.333 1.66797 -41.166 2.50098 -62.499 2.49902c-20.667 -0.000976562 -38.334 -1.66797 -53.001 -5.00098c-14.667 -3.33398 -26.334 -7.66699 -35.001 -13zM250 518.001
c-38 0.000976562 -70.8311 11.835 -98.498 35.501c-27.667 23.667 -44.5 58.5 -50.5 104.499l46 13c7.33301 -27.334 18.666 -50.001 33.999 -68c15.333 -18 38.666 -27 69.999 -27s54.666 9 69.999 27c15.334 18 26.667 40.667 34 68l46 -13
c-2.66699 -22.667 -8.5 -42.667 -17.499 -60c-9 -17.335 -20.167 -32.002 -33.5 -44c-13.333 -12 -28.5 -21 -45.5 -27s-35.167 -9 -54.5 -9z" />
    <glyph glyph-name="Aogonek" unicode="&#x104;" horiz-adv-x="672" 
d="M615 0c-30.667 -16.667 -55.8311 -35.8301 -75.498 -57.4971s-29.5 -45.167 -29.5 -70.5c0 -12 4 -22.5 12 -31.5c8.00098 -9 21.334 -13.5 40 -13.5c11.333 -0.000976562 24.5 1.83203 39.5 5.5c15 3.66602 28.5 8.49902 40.5 14.499v-43
c-15.333 -9.33301 -31.833 -15.333 -49.5 -18s-32.167 -4 -43.5 -4c-33.334 0 -58.001 7.5 -74.001 22.5s-24 35.167 -24 60.5c0.000976562 28.667 9.16797 54 27.5 76c18.334 22 41.501 41.667 69.501 59h-104v46c8.66699 5.33301 20.167 9.33301 34.5 12
c14.334 2.66699 29.167 4.33398 44.5 5.00098l-53 143h-282l-54 -143c16 -0.666992 31.667 -2.33398 47 -5.00098s27.666 -6.66699 36.999 -12v-46h-229v47c8 5.33301 19 9.16602 33 11.499s28.667 3.83301 44 4.5l226 591h91l222 -591
c15.333 -0.666992 30 -2.33398 44 -5.00098c14.001 -2.66699 25.334 -6.66699 33.999 -12v-46h-68zM212.003 269.004h234l-117 311z" />
    <glyph glyph-name="aogonek" unicode="&#x105;" horiz-adv-x="508" 
d="M81 422c26.667 10.667 54.1611 18.3359 82.4941 23.0029s53.5 7 75.5 7c32 0 59 -3.5 81 -10.5s39.833 -17 53.5 -30c13.667 -13.001 23.5 -28.334 29.5 -46c6 -17.667 9 -36.834 9 -57.5v-229c0 -18.667 7 -28 21 -28c7.33496 0 15.002 1.5 23.001 4.5
c8 3 16 6.16699 24 9.5v-56c-20 -8.66699 -39 -18 -57 -28s-33.833 -20.833 -47.499 -32.5c-13.667 -11.667 -24.334 -23.834 -32 -36.501c-7.66895 -12.667 -11.502 -26 -11.5 -40c0 -12 4 -22.5 12 -31.5s21.667 -13.5 41 -13.5
c10.667 -0.000976562 23.5 1.83203 38.5 5.5c15 3.66602 28.5 8.49902 40.5 14.499v-43c-15.333 -9.33301 -31.666 -15.333 -48.999 -18s-31.333 -4 -42 -4c-32.667 0 -57.5 7.5 -74.5 22.5s-25.5 35.167 -25.5 60.5c0.000976562 29.333 10.168 54.5 30.501 75.5
c20.334 21 45.501 39.5 75.501 55.5c-12.667 5.33301 -22 13.166 -27.999 23.499c-6 10.333 -9.66699 22.166 -11 35.499c-16.667 -17.333 -37.667 -32.666 -63 -45.999s-56.333 -20 -93 -20c-46.667 0 -81.834 11.5 -105.501 34.5s-35.5 52.167 -35.5 87.5
c0 46 14.5 81 43.5 105s73.833 36 134.5 36c43.333 0 82.666 -3.66699 117.999 -11v56c-0.000976562 18 -2.83398 33 -8.49902 45c-5.66699 12 -13.334 21.5 -23 28.5c-9.66699 7 -21.167 11.833 -34.5 14.5s-28 4 -44 4c-14.667 0 -28.667 -1 -42 -3
s-25.666 -4.66699 -36.999 -8c-2 -24.667 -7.33301 -46 -16 -64h-53v108zM130.994 176.002c-8 -14 -11.998 -32.6641 -11.998 -55.9971c0 -16.667 5.66699 -32 17 -46s31.666 -21 60.999 -21c32 0 59.833 6.33301 83.5 19s43.167 26.667 58.5 42v69
c-18 4 -37.167 6.83301 -57.5 8.49902c-20.333 1.66797 -41.166 2.50098 -62.499 2.49902c-20.667 -0.000976562 -38.334 -1.66797 -53.001 -5.00098c-14.667 -3.33398 -26.334 -7.66699 -35.001 -13z" />
    <glyph glyph-name="Cacute" unicode="&#x106;" horiz-adv-x="661" 
d="M538 477c-7.33301 11.334 -12.8359 26.002 -16.5029 44.001c-3.66699 18.002 -5.5 37.335 -5.5 58c-18 5.33301 -38.667 9.16602 -62 11.499s-44.666 3.5 -63.999 3.5c-35.333 0 -69.833 -4.33301 -103.5 -13s-59.834 -20 -78.501 -34
c-6 -9.33398 -12.667 -21.001 -20 -35c-7.33398 -14.001 -14.167 -30.834 -20.5 -50.5c-6.33398 -19.667 -11.667 -42.334 -16 -68c-4.33398 -25.667 -6.50098 -54.834 -6.5 -87.5c0 -37.333 4.5 -71.333 13.5 -102s23 -57 42 -79s43 -39 72 -51s63.167 -18 102.5 -18
c39.334 0 78.001 4.33301 116.001 13s73.333 20.667 105.999 36v-72c-29.334 -14.667 -64.501 -25.667 -105.5 -33c-41 -7.33301 -82.833 -11 -125.499 -11c-45.333 0 -86.5 6.33301 -123.5 19s-68.667 31.834 -95 57.501s-46.833 57.834 -61.5 96.501s-22 84 -22 136
c0 53.333 6.16699 102.5 18.5 147.5s31.833 83.667 58.5 116s60.834 57.666 102.501 75.999s92.167 27.5 151.5 27.5c41.334 -0.00488281 79.001 -2.67188 113.001 -8c34 -5.33594 61.667 -12.0029 83 -20.001v-160h-53zM282.997 755.001
c38 23.333 74.999 47.668 110.999 73.001s65.333 49 88 71l45 -56c-9.33398 -12.002 -22.001 -23.6689 -38 -35.001c-16 -11.333 -33.833 -22.333 -53.499 -33c-19.667 -10.667 -40.667 -21 -63 -31s-43.833 -19.333 -64.5 -28z" />
    <glyph glyph-name="cacute" unicode="&#x107;" horiz-adv-x="489" 
d="M431 303l-53.999 -0.00390625c-11.333 24.667 -18 50 -20 76c-23.333 6 -49.666 9 -78.999 9c-14.667 0 -33 -2 -55 -6c-22 -4.00098 -40.333 -11.334 -55 -22c-9.33398 -10 -18.667 -28 -28 -54c-9.33398 -26 -14.001 -58 -14.001 -96
c0 -19.333 2.33301 -38.5 6.99902 -57.5c4.66699 -19 12.667 -36 24 -51s26.666 -27.167 45.999 -36.5s43.666 -14 72.999 -14c37.334 0 69.001 3.83301 95.001 11.5s46 14.834 60 21.501v-63c-12 -6 -31.667 -12.833 -59 -20.5s-61.333 -11.5 -102 -11.5
c-40 0 -74 5.66699 -102 17s-50.667 26.833 -68 46.5s-29.833 42.334 -37.5 68.001s-11.5 52.834 -11.5 81.501c0 78.667 20.5 140 61.5 184s99.5 66 175.5 66c60.667 -0.000976562 108.334 -7.33398 143.001 -21.999v-127zM175.001 544.996c36.667 25.333 70.667 50 102 74
c31.334 24 57.667 47.667 79 71l46 -52c-8.66699 -12.001 -20.167 -23.668 -34.5 -35c-14.333 -11.334 -30.5 -22.501 -48.5 -33.5c-18 -11.001 -37 -21.668 -57 -32c-20 -10.335 -40.333 -20.502 -61 -30.5z" />
    <glyph glyph-name="Ccircumflex" unicode="&#x108;" horiz-adv-x="661" 
d="M538 477c-7.33301 11.334 -12.8359 26.002 -16.5029 44.001c-3.66699 18.002 -5.5 37.335 -5.5 58c-18 5.33301 -38.667 9.16602 -62 11.499s-44.666 3.5 -63.999 3.5c-35.333 0 -69.833 -4.33301 -103.5 -13s-59.834 -20 -78.501 -34
c-6 -9.33398 -12.667 -21.001 -20 -35c-7.33398 -14.001 -14.167 -30.834 -20.5 -50.5c-6.33398 -19.667 -11.667 -42.334 -16 -68c-4.33398 -25.667 -6.50098 -54.834 -6.5 -87.5c0 -37.333 4.5 -71.333 13.5 -102s23 -57 42 -79s43 -39 72 -51s63.167 -18 102.5 -18
c39.334 0 78.001 4.33301 116.001 13s73.333 20.667 105.999 36v-72c-29.334 -14.667 -64.501 -25.667 -105.5 -33c-41 -7.33301 -82.833 -11 -125.499 -11c-45.333 0 -86.5 6.33301 -123.5 19s-68.667 31.834 -95 57.501s-46.833 57.834 -61.5 96.501s-22 84 -22 136
c0 53.333 6.16699 102.5 18.5 147.5s31.833 83.667 58.5 116s60.834 57.666 102.501 75.999s92.167 27.5 151.5 27.5c41.334 -0.00488281 79.001 -2.67188 113.001 -8c34 -5.33594 61.667 -12.0029 83 -20.001v-160h-53zM379.997 807.001
c-15.333 -11.333 -36.332 -25.832 -62.999 -43.499s-54.334 -34.5 -83.001 -50.5l-24 38c25.333 19.333 51.333 39.5 78 60.5s55 46.5 85 76.5h13c30 -30 58.333 -55.5 85 -76.5c26.667 -21.002 53 -41.1689 79 -60.501l-25 -38c-28.667 16.002 -56.334 32.835 -83 50.5
c-26.667 17.667 -47.334 32.167 -62 43.5z" />
    <glyph glyph-name="ccircumflex" unicode="&#x109;" horiz-adv-x="489" 
d="M431 303l-53.999 -0.00390625c-11.333 24.667 -18 50 -20 76c-23.333 6 -49.666 9 -78.999 9c-14.667 0 -33 -2 -55 -6c-22 -4.00098 -40.333 -11.334 -55 -22c-9.33398 -10 -18.667 -28 -28 -54c-9.33398 -26 -14.001 -58 -14.001 -96
c0 -19.333 2.33301 -38.5 6.99902 -57.5c4.66699 -19 12.667 -36 24 -51s26.666 -27.167 45.999 -36.5s43.666 -14 72.999 -14c37.334 0 69.001 3.83301 95.001 11.5s46 14.834 60 21.501v-63c-12 -6 -31.667 -12.833 -59 -20.5s-61.333 -11.5 -102 -11.5
c-40 0 -74 5.66699 -102 17s-50.667 26.833 -68 46.5s-29.833 42.334 -37.5 68.001s-11.5 52.834 -11.5 81.501c0 78.667 20.5 140 61.5 184s99.5 66 175.5 66c60.667 -0.000976562 108.334 -7.33398 143.001 -21.999v-127zM267.001 600.996
c-13.333 -11.334 -33 -25.5 -59 -42.499c-26 -17 -53.667 -33.5 -83 -49.5l-24 37c25.333 18.667 50.833 38.167 76.5 58.5s53.5 45.5 83.5 75.5h12c29.333 -29.333 57.166 -54.333 83.499 -75c26.334 -20.667 52.167 -40.334 77.5 -59.001l-24 -37
c-30 16 -57.833 32.5 -83.499 49.5c-25.667 17 -45.5 31.167 -59.5 42.5z" />
    <glyph glyph-name="Cdotaccent" unicode="&#x10a;" horiz-adv-x="661" 
d="M538 477c-7.33301 11.334 -12.8359 26.002 -16.5029 44.001c-3.66699 18.002 -5.5 37.335 -5.5 58c-18 5.33301 -38.667 9.16602 -62 11.499s-44.666 3.5 -63.999 3.5c-35.333 0 -69.833 -4.33301 -103.5 -13s-59.834 -20 -78.501 -34
c-6 -9.33398 -12.667 -21.001 -20 -35c-7.33398 -14.001 -14.167 -30.834 -20.5 -50.5c-6.33398 -19.667 -11.667 -42.334 -16 -68c-4.33398 -25.667 -6.50098 -54.834 -6.5 -87.5c0 -37.333 4.5 -71.333 13.5 -102s23 -57 42 -79s43 -39 72 -51s63.167 -18 102.5 -18
c39.334 0 78.001 4.33301 116.001 13s73.333 20.667 105.999 36v-72c-29.334 -14.667 -64.501 -25.667 -105.5 -33c-41 -7.33301 -82.833 -11 -125.499 -11c-45.333 0 -86.5 6.33301 -123.5 19s-68.667 31.834 -95 57.501s-46.833 57.834 -61.5 96.501s-22 84 -22 136
c0 53.333 6.16699 102.5 18.5 147.5s31.833 83.667 58.5 116s60.834 57.666 102.501 75.999s92.167 27.5 151.5 27.5c41.334 -0.00488281 79.001 -2.67188 113.001 -8c34 -5.33594 61.667 -12.0029 83 -20.001v-160h-53zM435.997 803.001
c-0.000976562 -15.335 -5.33594 -28.501 -16.002 -39.499c-10.667 -11 -24 -16.5 -40 -16.5c-16.667 0 -30.334 5.5 -41 16.5c-10.667 11 -16 24.167 -15.999 39.5c0 15.333 5.33301 28.5 16 39.5s24.334 16.5 41.001 16.5c16 0 29.333 -5.5 40 -16.5
c10.667 -11.002 16 -24.1689 16 -39.501z" />
    <glyph glyph-name="cdotaccent" unicode="&#x10b;" horiz-adv-x="489" 
d="M431 303l-53.999 -0.00390625c-11.333 24.667 -18 50 -20 76c-23.333 6 -49.666 9 -78.999 9c-14.667 0 -33 -2 -55 -6c-22 -4.00098 -40.333 -11.334 -55 -22c-9.33398 -10 -18.667 -28 -28 -54c-9.33398 -26 -14.001 -58 -14.001 -96
c0 -19.333 2.33301 -38.5 6.99902 -57.5c4.66699 -19 12.667 -36 24 -51s26.666 -27.167 45.999 -36.5s43.666 -14 72.999 -14c37.334 0 69.001 3.83301 95.001 11.5s46 14.834 60 21.501v-63c-12 -6 -31.667 -12.833 -59 -20.5s-61.333 -11.5 -102 -11.5
c-40 0 -74 5.66699 -102 17s-50.667 26.833 -68 46.5s-29.833 42.334 -37.5 68.001s-11.5 52.834 -11.5 81.501c0 78.667 20.5 140 61.5 184s99.5 66 175.5 66c60.667 -0.000976562 108.334 -7.33398 143.001 -21.999v-127zM333.001 583.996
c0 -16.001 -5.66797 -29.668 -17.001 -41c-11.333 -11.335 -25.666 -17.002 -42.999 -17c-17.333 0 -31.5 5.66699 -42.5 17s-16.5 25 -16.5 41c0 16.667 5.5 30.667 16.5 42s25.167 17 42.5 17c17.334 -0.00195312 31.667 -5.66895 43 -17
c11.334 -11.333 17.001 -25.333 17 -42z" />
    <glyph glyph-name="Ccaron" unicode="&#x10c;" horiz-adv-x="661" 
d="M538 477c-7.33301 11.334 -12.8359 26.002 -16.5029 44.001c-3.66699 18.002 -5.5 37.335 -5.5 58c-18 5.33301 -38.667 9.16602 -62 11.499s-44.666 3.5 -63.999 3.5c-35.333 0 -69.833 -4.33301 -103.5 -13s-59.834 -20 -78.501 -34
c-6 -9.33398 -12.667 -21.001 -20 -35c-7.33398 -14.001 -14.167 -30.834 -20.5 -50.5c-6.33398 -19.667 -11.667 -42.334 -16 -68c-4.33398 -25.667 -6.50098 -54.834 -6.5 -87.5c0 -37.333 4.5 -71.333 13.5 -102s23 -57 42 -79s43 -39 72 -51s63.167 -18 102.5 -18
c39.334 0 78.001 4.33301 116.001 13s73.333 20.667 105.999 36v-72c-29.334 -14.667 -64.501 -25.667 -105.5 -33c-41 -7.33301 -82.833 -11 -125.499 -11c-45.333 0 -86.5 6.33301 -123.5 19s-68.667 31.834 -95 57.501s-46.833 57.834 -61.5 96.501s-22 84 -22 136
c0 53.333 6.16699 102.5 18.5 147.5s31.833 83.667 58.5 116s60.834 57.666 102.501 75.999s92.167 27.5 151.5 27.5c41.334 -0.00488281 79.001 -2.67188 113.001 -8c34 -5.33594 61.667 -12.0029 83 -20.001v-160h-53zM384.997 805.001
c15.333 11.333 36.3301 25.835 62.9971 43.502c26.667 17.668 54.334 34.501 83.001 50.499l24 -38c-25.334 -19.3359 -51.334 -39.5029 -78 -60.501c-26.667 -21 -55 -46.5 -85 -76.5h-13c-30 30 -58.333 55.5 -85 76.5s-53 41.167 -79 60.5l25 38
c28.667 -16 56.334 -32.833 83.001 -50.5s47.334 -32.167 62.001 -43.5z" />
    <glyph glyph-name="ccaron" unicode="&#x10d;" horiz-adv-x="489" 
d="M431 303l-53.999 -0.00390625c-11.333 24.667 -18 50 -20 76c-23.333 6 -49.666 9 -78.999 9c-14.667 0 -33 -2 -55 -6c-22 -4.00098 -40.333 -11.334 -55 -22c-9.33398 -10 -18.667 -28 -28 -54c-9.33398 -26 -14.001 -58 -14.001 -96
c0 -19.333 2.33301 -38.5 6.99902 -57.5c4.66699 -19 12.667 -36 24 -51s26.666 -27.167 45.999 -36.5s43.666 -14 72.999 -14c37.334 0 69.001 3.83301 95.001 11.5s46 14.834 60 21.501v-63c-12 -6 -31.667 -12.833 -59 -20.5s-61.333 -11.5 -102 -11.5
c-40 0 -74 5.66699 -102 17s-50.667 26.833 -68 46.5s-29.833 42.334 -37.5 68.001s-11.5 52.834 -11.5 81.501c0 78.667 20.5 140 61.5 184s99.5 66 175.5 66c60.667 -0.000976562 108.334 -7.33398 143.001 -21.999v-127zM274.001 591.996
c13.334 11.333 32.998 25.501 58.998 42.501s53.667 33.5 83 49.5l24 -37c-25.333 -18.667 -50.833 -38.167 -76.5 -58.5c-25.667 -20.334 -53.5 -45.501 -83.5 -75.501h-12c-29.333 29.333 -57.166 54.333 -83.499 75c-26.333 20.668 -52.166 40.335 -77.499 59l24 37
c30 -16 57.833 -32.5 83.5 -49.5c25.667 -17.001 45.5 -31.168 59.5 -42.5z" />
    <glyph glyph-name="Dcaron" unicode="&#x10e;" horiz-adv-x="713" 
d="M350 654c58.667 -0.00195312 107.169 -8.1709 145.502 -24.502c38.333 -16.334 68.833 -38.001 91.5 -65c22.667 -27 38.667 -58.333 48 -93.999c9.33301 -35.667 14 -72.5 14 -110.5c0 -44.667 -4.83301 -88.5 -14.5 -131.5s-26.334 -81.5 -50.001 -115.5
s-54.834 -61.333 -93.501 -82s-87 -31 -145 -31h-305v46c8 5.33301 19.333 9.33301 34 12s29.667 4.33398 45 5.00098v528c-15.333 0 -30.333 1.5 -45 4.5s-26 7.16699 -34 12.5v46h309zM197.002 590.998l0.000976562 -527.998h140c38 0 70.333 3.83301 97 11.5
s47.667 17.167 63 28.5c8 9.33301 16.167 21.666 24.5 36.999s16 33.5 23 54.5c7.00195 21 12.835 44.667 17.5 71c4.67969 26.333 7.0127 55.166 7 86.499c-0.00683594 34.667 -3.67383 66.5 -11.001 95.5c-7.33398 29 -20.001 54.167 -38 75.5
c-18 21.333 -41.667 38 -71 50s-66 18 -110 18h-142zM339.003 805c15.333 11.333 36.3301 25.835 62.9971 43.502c26.667 17.668 54.334 34.501 83.001 50.499l24 -38c-25.333 -19.3359 -51.333 -39.5029 -78 -60.501c-26.667 -21 -55 -46.5 -85 -76.5h-13
c-30 30 -58.333 55.5 -85 76.5s-53 41.167 -79 60.5l25 38c28.667 -16 56.334 -32.833 83.001 -50.5s47.334 -32.167 62.001 -43.5z" />
    <glyph glyph-name="dcaron" unicode="&#x10f;" horiz-adv-x="568" 
d="M310 691h148v-608c0.00683594 -11.333 1.17383 -19.5 3.5 -24.5c2.33301 -5 7.83301 -7.5 16.5 -7.5c7.33398 0 15.167 1.5 23.499 4.5c8.33301 3 16.166 6.16699 23.499 9.5v-56c-9.33398 -6 -20.167 -10.833 -32.5 -14.5s-23.5 -5.5 -33.5 -5.5
c-26.667 0 -45.334 6.83301 -56 20.5c-10.667 13.667 -16.667 30.167 -18 49.5c-18.667 -21.333 -40.834 -38.333 -66.5 -51c-25.667 -12.667 -53.167 -19 -82.5 -19c-32 0 -59.667 5.16699 -83 15.5s-42.5 24.5 -57.5 42.5s-26.167 39.667 -33.5 65s-11 53 -11 83
c0 82.667 22 146.167 66 190.5c44 44.334 104 66.501 180 66.501c16.667 -0.00683594 32.334 -0.839844 47.001 -2.5c14.667 -1.67188 28.334 -3.50488 41.001 -5.5v183c-16 0.680664 -30 2.51367 -42 5.49902c-12 3 -23 7.16699 -33 12.5v46zM247 54
c28 0 53.498 6.16602 76.498 18.499s43.5 28.166 61.5 47.499v258c-14 3.33496 -28.667 6.00195 -44 8c-15.333 2 -31.666 3 -48.999 3c-22.667 0 -44.667 -2.66699 -66 -8s-39.666 -13.666 -54.999 -24.999c-13.333 -15.333 -24 -36.166 -32 -62.499s-12 -55.833 -12 -88.5
c0 -48 10 -85.167 30 -111.5s50 -39.5 90 -39.5zM527.998 500.999c4.66699 10 8.66797 20.665 12.001 31.998s6.33301 22.5 9 33.5s4.66699 21.167 6 30.5s2 17.333 2 24l-40 21v44c15.333 10 31 15 47 15c14.668 0 27.335 -4.5 38 -13.5
c10.6689 -9 16.002 -24.833 16 -47.5c0 -12.667 -1.5 -26 -4.5 -40c-3 -14.001 -6.83301 -27.668 -11.5 -41c-4.66699 -13.334 -9.83398 -26.167 -15.501 -38.499c-5.66699 -12.333 -11.5 -23.166 -17.5 -32.499z" />
    <glyph glyph-name="Dcroat" unicode="&#x110;" horiz-adv-x="718" 
d="M12 365l113.002 -0.00195312v226c-15.333 0 -30.333 1.5 -45 4.5s-26 7.16699 -34 12.5v46h309c58.667 -0.00195312 107.167 -8.16895 145.5 -24.5c38.333 -16.334 68.833 -38.001 91.5 -65c22.667 -27 38.667 -58.333 48 -93.999c9.33301 -35.667 14 -72.5 14 -110.5
c0 -44.667 -4.83301 -88.5 -14.5 -131.5s-26.334 -81.5 -50.001 -115.5s-54.834 -61.333 -93.501 -82s-87 -31 -145 -31h-305v46c8 5.33301 19.333 9.33301 34 12s29.667 4.33398 45 5.00098v241h-113v61zM202.002 590.998l0.000976562 -225.998h155v-61h-155v-241h140
c38 0 70.333 3.83301 97 11.5s47.667 17.167 63 28.5c8 9.33301 16.167 21.666 24.5 36.999s16 33.5 23 54.5c7.00195 21 12.835 44.667 17.499 71c4.67578 26.333 7.00879 55.166 7 86.499c-0.00390625 34.667 -3.6709 66.5 -11 95.5c-7.33398 29 -20.001 54.167 -38 75.5
c-18 21.333 -41.667 38 -71 50s-66 18 -110 18h-142z" />
    <glyph glyph-name="dcroat" unicode="&#x111;" horiz-adv-x="559" 
d="M385 511h-119v56h119v60c-16 0.680664 -30 2.51367 -42 5.49902c-12 3 -23 7.16699 -33 12.5v46h148v-124h66v-56h-66v-428c0.00683594 -11.333 1.17383 -19.5 3.5 -24.5c2.33301 -5 7.83301 -7.5 16.5 -7.5c7.33398 0 15.167 1.5 23.499 4.5
c8.33301 3 16.166 6.16699 23.499 9.5v-56c-9.33398 -6 -20.167 -10.833 -32.5 -14.5s-23.5 -5.5 -33.5 -5.5c-26.667 0 -45.334 6.83301 -56 20.5c-10.667 13.667 -16.667 30.167 -18 49.5c-18.667 -21.333 -40.834 -38.333 -66.5 -51
c-25.667 -12.667 -53.167 -19 -82.5 -19c-32 0 -59.667 5.16699 -83 15.5s-42.5 24.5 -57.5 42.5s-26.167 39.667 -33.5 65s-11 53 -11 83c0 82.667 22 146.167 66 190.5c44 44.334 104 66.501 180 66.501c16.667 -0.00683594 32.334 -0.839844 47.001 -2.5
c14.667 -1.67188 28.334 -3.50488 41.001 -5.5v67zM385 378c-14 3.33496 -28.6689 6 -44.002 7.99902c-15.333 2 -31.666 3 -48.999 3c-22.667 0 -44.667 -2.66699 -66 -8s-39.666 -13.666 -54.999 -24.999c-13.333 -15.333 -24 -36.166 -32 -62.499s-12 -55.833 -12 -88.5
c0 -48 10 -85.167 30 -111.5s50 -39.5 90 -39.5c28 0 53.5 6.16699 76.5 18.5s43.5 28.166 61.5 47.499v258z" />
    <glyph glyph-name="Emacron" unicode="&#x112;" horiz-adv-x="600" 
d="M539 654v-157h-51c-7.33301 12.001 -12.5 26.334 -15.5 42.999c-3.00586 16.667 -4.83887 33.667 -5.5 51h-270v-222h224v-63h-224v-243h270c0 18 1.5 36 4.5 54s8.5 33.667 16.5 47h51v-164h-498v46c8 5.33301 19.333 9.33301 34 12s29.667 4.33398 45 5.00098v528
c-15.333 0 -30.333 1.5 -45 4.5s-26 7.16699 -34 12.5v46h498zM162 829h325v-61h-325v61z" />
    <glyph glyph-name="emacron" unicode="&#x113;" horiz-adv-x="520" 
d="M51 202c0 40 5.66309 75.6611 16.9961 106.994c11.333 31.334 27 57.501 47 78.501s43.667 37 71 48s57.333 16.5 90 16.5c25.333 0 49 -3 71 -9c22 -6.00098 41 -15.834 57 -29.499c16 -13.667 28.667 -31.5 38 -53.499c9.33496 -22 14.002 -49.333 14 -81.999
c-0.0136719 -12 -0.34668 -24.667 -0.999023 -38c-0.680664 -13.333 -1.34766 -23.666 -2 -30.999h-327c1.33301 -105.333 54.333 -158 159 -158c32 0 62.667 4.16699 92 12.5s53.333 17.166 72 26.499v-63c-15.333 -9.33301 -38.166 -18 -68.499 -26
s-66.166 -12 -107.499 -12c-40.667 0 -75.167 5.66699 -103.5 17s-51.166 26.833 -68.499 46.5s-30 42.334 -38 68.001s-12 52.834 -12 81.501zM167.996 360.994c-7.33398 -9.33301 -14.5 -21.834 -21.5 -37.501s-12.5 -34.834 -16.5 -57.5h250v16
c0 72.667 -36.667 109 -110 109c-19.333 0 -38.333 -2.66699 -57 -8s-33.667 -12.666 -45 -21.999zM129.997 620.993h297v-59h-297v59z" />
    <glyph glyph-name="Ebreve" unicode="&#x114;" horiz-adv-x="600" 
d="M539 654v-157h-51c-7.33301 12.001 -12.5 26.334 -15.5 42.999c-3.00586 16.667 -4.83887 33.667 -5.5 51h-270v-222h224v-63h-224v-243h270c0 18 1.5 36 4.5 54s8.5 33.667 16.5 47h51v-164h-498v46c8 5.33301 19.333 9.33301 34 12s29.667 4.33398 45 5.00098v528
c-15.333 0 -30.333 1.5 -45 4.5s-26 7.16699 -34 12.5v46h498zM327 726c-45.333 0 -83.1689 13.1689 -113.502 39.502s-49.5 61.5 -57.5 105.5l49 15c8 -29.334 22.5 -53.001 43.5 -71c21 -18 47.167 -27 78.5 -27c31.334 0 57.501 9 78.501 27s35.833 41.667 44.5 71
l48 -15c-8 -44.001 -27.167 -79.168 -57.5 -105.501c-30.333 -26.335 -68.166 -39.502 -113.499 -39.501z" />
    <glyph glyph-name="ebreve" unicode="&#x115;" horiz-adv-x="520" 
d="M51 202c0 40 5.66309 75.6611 16.9961 106.994c11.333 31.334 27 57.501 47 78.501s43.667 37 71 48s57.333 16.5 90 16.5c25.333 0 49 -3 71 -9c22 -6.00098 41 -15.834 57 -29.499c16 -13.667 28.667 -31.5 38 -53.499c9.33496 -22 14.002 -49.333 14 -81.999
c-0.0136719 -12 -0.34668 -24.667 -0.999023 -38c-0.680664 -13.333 -1.34766 -23.666 -2 -30.999h-327c1.33301 -105.333 54.333 -158 159 -158c32 0 62.667 4.16699 92 12.5s53.333 17.166 72 26.499v-63c-15.333 -9.33301 -38.166 -18 -68.499 -26
s-66.166 -12 -107.499 -12c-40.667 0 -75.167 5.66699 -103.5 17s-51.166 26.833 -68.499 46.5s-30 42.334 -38 68.001s-12 52.834 -12 81.501zM167.996 360.994c-7.33398 -9.33301 -14.5 -21.834 -21.5 -37.501s-12.5 -34.834 -16.5 -57.5h250v16
c0 72.667 -36.667 109 -110 109c-19.333 0 -38.333 -2.66699 -57 -8s-33.667 -12.666 -45 -21.999zM268.997 517.993c-38 0.000976562 -70.8311 11.835 -98.498 35.501c-27.667 23.667 -44.5 58.5 -50.5 104.499l46 13c7.33301 -27.334 18.666 -50.001 33.999 -68
c15.333 -18 38.666 -27 69.999 -27s54.666 9 69.999 27c15.334 18 26.667 40.667 34 68l46 -13c-2.66699 -22.667 -8.5 -42.667 -17.499 -60c-9 -17.335 -20.167 -32.002 -33.5 -44c-13.333 -12 -28.5 -21 -45.5 -27s-35.167 -9 -54.5 -9z" />
    <glyph glyph-name="Edotaccent" unicode="&#x116;" horiz-adv-x="600" 
d="M539 654v-157h-51c-7.33301 12.001 -12.5 26.334 -15.5 42.999c-3.00586 16.667 -4.83887 33.667 -5.5 51h-270v-222h224v-63h-224v-243h270c0 18 1.5 36 4.5 54s8.5 33.667 16.5 47h51v-164h-498v46c8 5.33301 19.333 9.33301 34 12s29.667 4.33398 45 5.00098v528
c-15.333 0 -30.333 1.5 -45 4.5s-26 7.16699 -34 12.5v46h498zM381 803c-0.000976562 -15.335 -5.33594 -28.5 -16.002 -39.499c-10.667 -11 -24 -16.5 -40 -16.5c-16.667 0 -30.334 5.5 -41 16.5c-10.667 11 -16 24.167 -15.999 39.5c0 15.333 5.33301 28.5 16 39.5
s24.334 16.5 41.001 16.5c16 0 29.333 -5.5 40 -16.5c10.667 -11.002 16 -24.1689 16 -39.501z" />
    <glyph glyph-name="edotaccent" unicode="&#x117;" horiz-adv-x="520" 
d="M51 202c0 40 5.66309 75.6611 16.9961 106.994c11.333 31.334 27 57.501 47 78.501s43.667 37 71 48s57.333 16.5 90 16.5c25.333 0 49 -3 71 -9c22 -6.00098 41 -15.834 57 -29.499c16 -13.667 28.667 -31.5 38 -53.499c9.33496 -22 14.002 -49.333 14 -81.999
c-0.0136719 -12 -0.34668 -24.667 -0.999023 -38c-0.680664 -13.333 -1.34766 -23.666 -2 -30.999h-327c1.33301 -105.333 54.333 -158 159 -158c32 0 62.667 4.16699 92 12.5s53.333 17.166 72 26.499v-63c-15.333 -9.33301 -38.166 -18 -68.499 -26
s-66.166 -12 -107.499 -12c-40.667 0 -75.167 5.66699 -103.5 17s-51.166 26.833 -68.499 46.5s-30 42.334 -38 68.001s-12 52.834 -12 81.501zM167.996 360.994c-7.33398 -9.33301 -14.5 -21.834 -21.5 -37.501s-12.5 -34.834 -16.5 -57.5h250v16
c0 72.667 -36.667 109 -110 109c-19.333 0 -38.333 -2.66699 -57 -8s-33.667 -12.666 -45 -21.999zM331.997 583.993c0 -16.001 -5.66797 -29.667 -17.001 -40.999c-11.333 -11.335 -25.666 -17.002 -42.999 -17c-17.333 0 -31.5 5.66699 -42.5 17s-16.5 25 -16.5 41
c0 16.667 5.5 30.667 16.5 42s25.167 17 42.5 17c17.334 -0.00292969 31.667 -5.66992 43 -17.001c11.334 -11.333 17.001 -25.333 17 -42z" />
    <glyph glyph-name="Eogonek" unicode="&#x118;" horiz-adv-x="600" 
d="M539 0c-16 -7.33301 -32 -15.5 -48 -24.5s-30.167 -19 -42.5 -30s-22.333 -22.667 -30 -35c-7.66895 -12.333 -11.502 -25.166 -11.5 -38.499c0 -12 4.33301 -22.5 13 -31.5s23.667 -13.5 45 -13.5c8 -0.000976562 19.333 1.83203 34 5.5
c14.668 3.66602 28.001 8.49902 40 14.499v-43c-15.335 -9.33301 -31.502 -15.333 -48.5 -18c-17 -2.66699 -30.167 -4 -39.5 -4c-36 0 -62.167 7.5 -78.5 22.5s-24.5 35.167 -24.5 60.5c0 29.333 10.833 55.166 32.5 77.499s48.5 41.5 80.5 57.5h-420v46
c8 5.33301 19.333 9.33301 34 12s29.667 4.33398 45 5.00098v528c-15.333 0 -30.333 1.5 -45 4.5s-26 7.16699 -34 12.5v46h498v-157h-51c-7.33301 12.002 -12.5 26.335 -15.5 43c-3.00586 16.667 -4.83887 33.667 -5.5 51h-270v-222h224v-63h-224v-243h270
c0 18 1.5 36 4.5 54s8.5 33.667 16.5 47h51v-164z" />
    <glyph glyph-name="eogonek" unicode="&#x119;" horiz-adv-x="520" 
d="M344 -218c-35.333 0 -61.1729 7.49805 -77.5059 22.498c-16.334 15 -24.501 35.167 -24.501 60.5c0 26.667 8 50.5 24 71.5s36.333 39.833 61 56.5c-15.333 -2.66699 -33.333 -4 -54 -4c-40.667 0 -75.167 5.66699 -103.5 17s-51.166 26.833 -68.499 46.5
s-30 42.334 -38 68.001s-12 52.834 -12 81.501c0 40 5.66699 75.667 17 107c11.333 31.334 27 57.501 47 78.501s43.667 37 71 48s57.333 16.5 90 16.5c25.334 0 49.001 -3 71.001 -9c22 -6.00098 41 -15.834 57 -29.499c16 -13.667 28.667 -31.5 38 -53.499
c9.33496 -22 14.002 -49.333 14 -82c-0.0136719 -10 -0.34668 -22.167 -0.999023 -36.5c-0.680664 -14.334 -1.34766 -25.167 -2 -32.5h-327c1.33301 -105.333 54.333 -158 159 -158c32 0 62.667 4.16699 92 12.5s53.333 17.166 72 26.499v-63l-8 -4
c-19.333 -8.66699 -37.5 -18.834 -54.5 -30.501s-31.833 -24 -44.499 -37c-12.667 -13 -22.667 -26.333 -30 -40s-11 -27.5 -11 -41.5c0 -13.333 4 -24.5 12 -33.5s21.333 -13.5 40 -13.5c11.334 -0.000976562 24.501 1.83203 39.501 5.5
c15 3.66602 28.5 8.49902 40.5 14.499v-43c-15.333 -9.33301 -31.666 -15.333 -48.999 -18s-30.666 -4 -39.999 -4zM167.993 360.998c-7.33398 -9.33301 -14.5 -21.834 -21.5 -37.501s-12.5 -34.834 -16.5 -57.5h250v16c0 72.667 -36.667 109 -110 109
c-19.333 0 -38.333 -2.66699 -57 -8s-33.667 -12.666 -45 -21.999z" />
    <glyph glyph-name="Ecaron" unicode="&#x11a;" horiz-adv-x="600" 
d="M539 654v-157h-51c-7.33301 12.001 -12.5 26.334 -15.5 42.999c-3.00586 16.667 -4.83887 33.667 -5.5 51h-270v-222h224v-63h-224v-243h270c0 18 1.5 36 4.5 54s8.5 33.667 16.5 47h51v-164h-498v46c8 5.33301 19.333 9.33301 34 12s29.667 4.33398 45 5.00098v528
c-15.333 0 -30.333 1.5 -45 4.5s-26 7.16699 -34 12.5v46h498zM325 805c15.333 11.333 36.3301 25.835 62.9971 43.502c26.667 17.668 54.334 34.501 83.001 50.499l24 -38c-25.333 -19.3359 -51.333 -39.5029 -78 -60.501c-26.667 -21 -55 -46.5 -85 -76.5h-13
c-30 30 -58.333 55.5 -85 76.5s-53 41.167 -79 60.5l25 38c28.667 -16 56.334 -32.833 83.001 -50.5s47.334 -32.167 62.001 -43.5z" />
    </font>
</defs>
</svg>
